SplineFontDB: 3.0
FontName: Monoton-Regular
FullName: Monoton
FamilyName: Monoton
Weight: Regular
Copyright: Copyright (c) 2011 by vernon adams. All rights reserved.
Version: 1.000
ItalicAngle: 0
UnderlinePosition: -50
UnderlineWidth: 50
Ascent: 1638
Descent: 410
sfntRevision: 0x00010000
LayerCount: 2
Layer: 0 1 "Back"  1
Layer: 1 1 "Fore"  0
XUID: [1021 288 713564382 3981896]
FSType: 4
OS2Version: 3
OS2_WeightWidthSlopeOnly: 0
OS2_UseTypoMetrics: 1
CreationTime: 1313659879
ModificationTime: 1313780366
PfmFamily: 81
TTFWeight: 400
TTFWidth: 5
LineGap: 0
VLineGap: 0
Panose: 0 0 0 0 0 0 0 0 0 0
OS2TypoAscent: 462
OS2TypoAOffset: 1
OS2TypoDescent: -112
OS2TypoDOffset: 1
OS2TypoLinegap: 0
OS2WinAscent: -266
OS2WinAOffset: 1
OS2WinDescent: -300
OS2WinDOffset: 1
HheadAscent: -266
HheadAOffset: 1
HheadDescent: 300
HheadDOffset: 1
OS2SubXSize: 1331
OS2SubYSize: 1228
OS2SubXOff: 0
OS2SubYOff: 153
OS2SupXSize: 1331
OS2SupYSize: 1228
OS2SupXOff: 0
OS2SupYOff: 716
OS2StrikeYSize: 50
OS2StrikeYPos: 864
OS2Vendor: 'newt'
OS2CodePages: 00000001.00000000
OS2UnicodeRanges: 00000007.00000000.00000000.00000000
Lookup: 258 0 0 "'kern' Horizontal Kerning in Latin lookup 0"  {"'kern' Horizontal Kerning in Latin lookup 0 subtable"  } ['kern' ('latn' <'dflt' > ) ]
MarkAttachClasses: 1
DEI: 91125
TtTable: prep
PUSHW_1
 511
SCANCTRL
PUSHB_1
 4
SCANTYPE
EndTTInstrs
ShortTable: maxp 16
  1
  0
  373
  231
  24
  228
  21
  2
  0
  1
  1
  0
  64
  0
  2
  2
EndShort
LangName: 1033 "" "" "Regular" "" "" "Version 1.000" "" "Monoton is a trademark of vernon adams." "vernon adams" "" "Copyright (c) 2011 by vernon adams. All rights reserved." 
GaspTable: 1 65535 15
Encoding: UnicodeBmp
UnicodeInterp: none
NameList: Adobe Glyph List
DisplaySize: -36
AntiAlias: 1
FitToEm: 1
WinInfo: 34 34 12
BeginPrivate: 0
EndPrivate
BeginChars: 65539 373

StartChar: exclam
Encoding: 33 33 7
Width: 689
Flags: W
LayerCount: 2
Fore
SplineSet
94 216 m 1,0,-1
 94 288 l 1,1,-1
 598 288 l 1,2,-1
 598 216 l 1,3,-1
 94 216 l 1,0,-1
94 72 m 1,4,-1
 94 144 l 1,5,-1
 598 144 l 1,6,-1
 598 72 l 1,7,-1
 94 72 l 1,4,-1
94 -72 m 1,8,-1
 94 0 l 1,9,-1
 598 0 l 1,10,-1
 598 -72 l 1,11,-1
 94 -72 l 1,8,-1
526 1656 m 1,12,-1
 598 1656 l 1,13,-1
 598 432 l 1,14,-1
 526 432 l 1,15,-1
 526 1656 l 1,12,-1
382 1656 m 1,16,-1
 454 1656 l 1,17,-1
 454 432 l 1,18,-1
 382 432 l 1,19,-1
 382 1656 l 1,16,-1
238 1656 m 1,20,-1
 310 1656 l 1,21,-1
 310 432 l 1,22,-1
 238 432 l 1,23,-1
 238 1656 l 1,20,-1
94 1656 m 1,24,-1
 166 1656 l 1,25,-1
 166 432 l 1,26,-1
 94 432 l 1,27,-1
 94 1656 l 1,24,-1
EndSplineSet
EndChar

StartChar: quotedbl
Encoding: 34 34 8
Width: 1103
Flags: W
LayerCount: 2
Fore
SplineSet
947 1007 m 1,0,-1
 947 1656 l 1,1,-1
 1019 1656 l 1,2,-1
 1019 1007 l 1,3,-1
 947 1007 l 1,0,-1
803 1007 m 1,4,-1
 803 1656 l 1,5,-1
 875 1656 l 1,6,-1
 875 1007 l 1,7,-1
 803 1007 l 1,4,-1
659 1007 m 1,8,-1
 659 1656 l 1,9,-1
 731 1656 l 1,10,-1
 731 1007 l 1,11,-1
 659 1007 l 1,8,-1
372 1007 m 1,12,-1
 372 1656 l 1,13,-1
 444 1656 l 1,14,-1
 444 1007 l 1,15,-1
 372 1007 l 1,12,-1
228 1007 m 1,16,-1
 228 1656 l 1,17,-1
 300 1656 l 1,18,-1
 300 1007 l 1,19,-1
 228 1007 l 1,16,-1
84 1007 m 1,20,-1
 84 1656 l 1,21,-1
 156 1656 l 1,22,-1
 156 1007 l 1,23,-1
 84 1007 l 1,20,-1
EndSplineSet
EndChar

StartChar: numbersign
Encoding: 35 35 9
Width: 2078
Flags: W
LayerCount: 2
Fore
SplineSet
1110 527 m 1,0,-1
 1092 455 l 1,1,-1
 818 455 l 1,2,-1
 837 527 l 1,3,-1
 1110 527 l 1,0,-1
1074 383 m 1,4,-1
 1056 311 l 1,5,-1
 781 311 l 1,6,-1
 800 383 l 1,7,-1
 1074 383 l 1,4,-1
1037 237 m 1,8,-1
 1020 167 l 1,9,-1
 744 167 l 1,10,-1
 762 237 l 1,11,-1
 1037 237 l 1,8,-1
1820 527 m 1,12,-1
 1802 455 l 1,13,-1
 1548 455 l 1,14,-1
 1567 527 l 1,15,-1
 1820 527 l 1,12,-1
1784 383 m 1,16,-1
 1766 311 l 1,17,-1
 1511 311 l 1,18,-1
 1530 383 l 1,19,-1
 1784 383 l 1,16,-1
1747 237 m 1,20,-1
 1730 167 l 1,21,-1
 1474 167 l 1,22,-1
 1492 237 l 1,23,-1
 1747 237 l 1,20,-1
384 527 m 1,24,-1
 366 455 l 1,25,-1
 112 455 l 1,26,-1
 131 527 l 1,27,-1
 384 527 l 1,24,-1
348 383 m 1,28,-1
 330 311 l 1,29,-1
 75 311 l 1,30,-1
 94 383 l 1,31,-1
 348 383 l 1,28,-1
311 237 m 1,32,-1
 294 167 l 1,33,-1
 38 167 l 1,34,-1
 56 237 l 1,35,-1
 311 237 l 1,32,-1
1328 1408 m 1,36,-1
 1310 1336 l 1,37,-1
 1036 1336 l 1,38,-1
 1055 1408 l 1,39,-1
 1328 1408 l 1,36,-1
1292 1264 m 1,40,-1
 1274 1192 l 1,41,-1
 999 1192 l 1,42,-1
 1018 1264 l 1,43,-1
 1292 1264 l 1,40,-1
1255 1118 m 1,44,-1
 1238 1048 l 1,45,-1
 962 1048 l 1,46,-1
 980 1118 l 1,47,-1
 1255 1118 l 1,44,-1
2038 1408 m 1,48,-1
 2020 1336 l 1,49,-1
 1766 1336 l 1,50,-1
 1785 1408 l 1,51,-1
 2038 1408 l 1,48,-1
2002 1264 m 1,52,-1
 1984 1192 l 1,53,-1
 1729 1192 l 1,54,-1
 1748 1264 l 1,55,-1
 2002 1264 l 1,52,-1
1965 1118 m 1,56,-1
 1948 1048 l 1,57,-1
 1692 1048 l 1,58,-1
 1710 1118 l 1,59,-1
 1965 1118 l 1,56,-1
722 1728 m 1,60,-1
 797 1728 l 1,61,-1
 334 -121 l 1,62,-1
 259 -121 l 1,63,-1
 722 1728 l 1,60,-1
602 1408 m 1,64,-1
 584 1336 l 1,65,-1
 330 1336 l 1,66,-1
 349 1408 l 1,67,-1
 602 1408 l 1,64,-1
566 1264 m 1,68,-1
 548 1192 l 1,69,-1
 293 1192 l 1,70,-1
 312 1264 l 1,71,-1
 566 1264 l 1,68,-1
529 1118 m 1,72,-1
 512 1048 l 1,73,-1
 256 1048 l 1,74,-1
 274 1118 l 1,75,-1
 529 1118 l 1,72,-1
1022 1728 m 1,76,-1
 1096 1728 l 1,77,-1
 632 -121 l 1,78,-1
 558 -121 l 1,79,-1
 1022 1728 l 1,76,-1
872 1728 m 1,80,-1
 947 1728 l 1,81,-1
 483 -121 l 1,82,-1
 409 -121 l 1,83,-1
 872 1728 l 1,80,-1
1749 1728 m 1,84,-1
 1823 1728 l 1,85,-1
 1359 -121 l 1,86,-1
 1285 -121 l 1,87,-1
 1749 1728 l 1,84,-1
1599 1728 m 1,88,-1
 1674 1728 l 1,89,-1
 1210 -121 l 1,90,-1
 1136 -121 l 1,91,-1
 1599 1728 l 1,88,-1
1449 1728 m 1,92,-1
 1524 1728 l 1,93,-1
 1061 -121 l 1,94,-1
 986 -121 l 1,95,-1
 1449 1728 l 1,92,-1
EndSplineSet
EndChar

StartChar: dollar
Encoding: 36 36 10
Width: 1405
Flags: W
LayerCount: 2
Fore
SplineSet
649 1008 m 2,0,-1
 770 1008 l 2,1,2
 926 1008 926 1008 1040.5 938 c 128,-1,3
 1155 868 1155 868 1211 755.5 c 128,-1,4
 1267 643 1267 643 1267 504 c 0,5,6
 1267 399 1267 399 1228.5 308 c 128,-1,7
 1190 217 1190 217 1118.5 148 c 128,-1,8
 1047 79 1047 79 936.5 39.5 c 128,-1,9
 826 0 826 0 689 0 c 0,10,11
 514 0 514 0 360.5 50.5 c 128,-1,12
 207 101 207 101 105 193 c 1,13,-1
 47 150 l 1,14,15
 159 45 159 45 327.5 -13.5 c 128,-1,16
 496 -72 496 -72 689 -72 c 0,17,18
 812 -72 812 -72 917.5 -42.5 c 128,-1,19
 1023 -13 1023 -13 1099.5 39.5 c 128,-1,20
 1176 92 1176 92 1230.5 164 c 128,-1,21
 1285 236 1285 236 1312 322 c 128,-1,22
 1339 408 1339 408 1339 504 c 0,23,24
 1339 622 1339 622 1302 725.5 c 128,-1,25
 1265 829 1265 829 1195 908.5 c 128,-1,26
 1125 988 1125 988 1016.5 1034 c 128,-1,27
 908 1080 908 1080 773 1080 c 2,28,-1
 649 1080 l 2,29,30
 606 1080 606 1080 590 1099 c 128,-1,31
 574 1118 574 1118 574 1152 c 128,-1,32
 574 1186 574 1186 603.5 1205 c 128,-1,33
 633 1224 633 1224 719 1224 c 0,34,35
 895 1224 895 1224 965 1192 c 1,36,-1
 1023 1236 l 1,37,38
 921 1296 921 1296 719 1296 c 0,39,40
 504 1296 504 1296 504 1152 c 0,41,42
 504 1087 504 1087 538 1047.5 c 128,-1,43
 572 1008 572 1008 649 1008 c 2,0,-1
763 936 m 2,44,-1
 649 936 l 2,45,46
 532 936 532 936 480.5 995 c 128,-1,47
 429 1054 429 1054 429 1152 c 0,48,49
 429 1249 429 1249 498.5 1308.5 c 128,-1,50
 568 1368 568 1368 719 1368 c 0,51,52
 953 1368 953 1368 1078 1282 c 1,53,-1
 1135 1326 l 1,54,55
 1064 1381 1064 1381 955 1410.5 c 128,-1,56
 846 1440 846 1440 719 1440 c 0,57,58
 538 1440 538 1440 447.5 1360 c 128,-1,59
 357 1280 357 1280 357 1152 c 128,-1,60
 357 1024 357 1024 430 944 c 128,-1,61
 503 864 503 864 649 864 c 2,62,-1
 762 864 l 2,63,64
 936 864 936 864 1029.5 762 c 128,-1,65
 1123 660 1123 660 1123 504 c 0,66,67
 1123 346 1123 346 1011.5 245 c 128,-1,68
 900 144 900 144 689 144 c 0,69,70
 546 144 546 144 421.5 181 c 128,-1,71
 297 218 297 218 215 285 c 1,72,-1
 159 240 l 1,73,74
 251 160 251 160 390 116 c 128,-1,75
 529 72 529 72 689 72 c 0,76,77
 929 72 929 72 1062 194.5 c 128,-1,78
 1195 317 1195 317 1195 504 c 0,79,80
 1195 688 1195 688 1080.5 812 c 128,-1,81
 966 936 966 936 763 936 c 2,44,-1
759 792 m 2,82,-1
 649 792 l 2,83,84
 473 792 473 792 379 893.5 c 128,-1,85
 285 995 285 995 285 1152 c 0,86,87
 285 1310 285 1310 396.5 1411 c 128,-1,88
 508 1512 508 1512 719 1512 c 0,89,90
 862 1512 862 1512 986 1475 c 128,-1,91
 1110 1438 1110 1438 1192 1371 c 1,92,-1
 1248 1416 l 1,93,94
 1156 1496 1156 1496 1017.5 1540 c 128,-1,95
 879 1584 879 1584 719 1584 c 0,96,97
 479 1584 479 1584 346 1461.5 c 128,-1,98
 213 1339 213 1339 213 1152 c 128,-1,99
 213 965 213 965 328.5 842.5 c 128,-1,100
 444 720 444 720 649 720 c 2,101,-1
 758 720 l 2,102,103
 875 720 875 720 927 660.5 c 128,-1,104
 979 601 979 601 979 504 c 128,-1,105
 979 407 979 407 909.5 347.5 c 128,-1,106
 840 288 840 288 689 288 c 0,107,108
 454 288 454 288 329 374 c 1,109,-1
 272 330 l 1,110,111
 343 275 343 275 452.5 245.5 c 128,-1,112
 562 216 562 216 689 216 c 0,113,114
 870 216 870 216 960.5 296 c 128,-1,115
 1051 376 1051 376 1051 504 c 0,116,117
 1051 630 1051 630 978 711 c 128,-1,118
 905 792 905 792 759 792 c 2,82,-1
759 648 m 2,119,-1
 649 648 l 2,120,121
 489 648 489 648 372 716.5 c 128,-1,122
 255 785 255 785 198 898 c 128,-1,123
 141 1011 141 1011 141 1152 c 0,124,125
 141 1257 141 1257 179.5 1348 c 128,-1,126
 218 1439 218 1439 289.5 1508 c 128,-1,127
 361 1577 361 1577 471.5 1616.5 c 128,-1,128
 582 1656 582 1656 719 1656 c 0,129,130
 894 1656 894 1656 1047 1605.5 c 128,-1,131
 1200 1555 1200 1555 1302 1463 c 1,132,-1
 1360 1506 l 1,133,134
 1248 1611 1248 1611 1080 1669.5 c 128,-1,135
 912 1728 912 1728 719 1728 c 0,136,137
 596 1728 596 1728 490.5 1698.5 c 128,-1,138
 385 1669 385 1669 308.5 1616.5 c 128,-1,139
 232 1564 232 1564 177.5 1492 c 128,-1,140
 123 1420 123 1420 96 1334 c 128,-1,141
 69 1248 69 1248 69 1152 c 0,142,143
 69 1032 69 1032 107 928 c 128,-1,144
 145 824 145 824 216.5 745 c 128,-1,145
 288 666 288 666 399.5 621 c 128,-1,146
 511 576 511 576 649 576 c 2,147,-1
 757 576 l 2,148,149
 801 576 801 576 817.5 556.5 c 128,-1,150
 834 537 834 537 834 504 c 0,151,152
 834 470 834 470 804.5 451 c 128,-1,153
 775 432 775 432 689 432 c 0,154,155
 512 432 512 432 442 464 c 1,156,-1
 384 420 l 1,157,158
 486 360 486 360 689 360 c 0,159,160
 904 360 904 360 904 504 c 0,161,162
 904 568 904 568 870 608 c 128,-1,163
 836 648 836 648 759 648 c 2,119,-1
834 -109 m 1,164,-1
 834 -298 l 1,165,-1
 762 -298 l 1,166,-1
 762 -114 l 1,167,-1
 834 -109 l 1,164,-1
546 -298 m 1,168,-1
 546 -104 l 1,169,-1
 618 -114 l 1,170,-1
 618 -298 l 1,171,-1
 546 -298 l 1,168,-1
834 1944 m 1,172,-1
 834 1755 l 1,173,-1
 762 1760 l 1,174,-1
 762 1944 l 1,175,-1
 834 1944 l 1,172,-1
546 1750 m 1,176,-1
 546 1944 l 1,177,-1
 618 1944 l 1,178,-1
 618 1760 l 1,179,-1
 546 1750 l 1,176,-1
EndSplineSet
EndChar

StartChar: percent
Encoding: 37 37 11
Width: 3082
Flags: W
LayerCount: 2
Fore
SplineSet
1831 540 m 128,-1,1
 1831 664 1831 664 1879 777.5 c 128,-1,2
 1927 891 1927 891 2008 973 c 128,-1,3
 2089 1055 2089 1055 2201 1103.5 c 128,-1,4
 2313 1152 2313 1152 2435 1152 c 0,5,6
 2555 1152 2555 1152 2665 1103.5 c 128,-1,7
 2775 1055 2775 1055 2855 973 c 128,-1,8
 2935 891 2935 891 2982 777.5 c 128,-1,9
 3029 664 3029 664 3029 540 c 128,-1,10
 3029 416 3029 416 2982 302.5 c 128,-1,11
 2935 189 2935 189 2855 107 c 128,-1,12
 2775 25 2775 25 2665 -23.5 c 128,-1,13
 2555 -72 2555 -72 2435 -72 c 0,14,15
 2313 -72 2313 -72 2201 -23.5 c 128,-1,16
 2089 25 2089 25 2008 107 c 128,-1,17
 1927 189 1927 189 1879 302.5 c 128,-1,0
 1831 416 1831 416 1831 540 c 128,-1,1
2597 540 m 128,-1,19
 2597 466 2597 466 2549.5 413 c 128,-1,20
 2502 360 2502 360 2435 360 c 0,21,22
 2364 360 2364 360 2313.5 413 c 128,-1,23
 2263 466 2263 466 2263 540 c 128,-1,24
 2263 614 2263 614 2313.5 667 c 128,-1,25
 2364 720 2364 720 2435 720 c 0,26,27
 2502 720 2502 720 2549.5 667 c 128,-1,18
 2597 614 2597 614 2597 540 c 128,-1,19
2741 540 m 128,-1,29
 2741 407 2741 407 2651 311.5 c 128,-1,30
 2561 216 2561 216 2435 216 c 0,31,32
 2305 216 2305 216 2212 311 c 128,-1,33
 2119 406 2119 406 2119 540 c 128,-1,34
 2119 674 2119 674 2212 769 c 128,-1,35
 2305 864 2305 864 2435 864 c 0,36,37
 2561 864 2561 864 2651 768.5 c 128,-1,28
 2741 673 2741 673 2741 540 c 128,-1,29
2885 540 m 128,-1,39
 2885 347 2885 347 2752.5 209.5 c 128,-1,40
 2620 72 2620 72 2435 72 c 0,41,42
 2311 72 2311 72 2205 135 c 128,-1,43
 2099 198 2099 198 2037 306 c 128,-1,44
 1975 414 1975 414 1975 540 c 128,-1,45
 1975 666 1975 666 2037 774 c 128,-1,46
 2099 882 2099 882 2205 945 c 128,-1,47
 2311 1008 2311 1008 2435 1008 c 0,48,49
 2620 1008 2620 1008 2752.5 870.5 c 128,-1,38
 2885 733 2885 733 2885 540 c 128,-1,39
2335 540 m 128,-1,51
 2335 496 2335 496 2364.5 464 c 128,-1,52
 2394 432 2394 432 2435 432 c 0,53,54
 2472 432 2472 432 2498.5 464 c 128,-1,55
 2525 496 2525 496 2525 540 c 128,-1,56
 2525 584 2525 584 2498.5 616 c 128,-1,57
 2472 648 2472 648 2435 648 c 0,58,59
 2394 648 2394 648 2364.5 616 c 128,-1,50
 2335 584 2335 584 2335 540 c 128,-1,51
2191 540 m 128,-1,61
 2191 436 2191 436 2262.5 362 c 128,-1,62
 2334 288 2334 288 2435 288 c 0,63,64
 2532 288 2532 288 2600.5 362 c 128,-1,65
 2669 436 2669 436 2669 540 c 128,-1,66
 2669 644 2669 644 2600.5 718 c 128,-1,67
 2532 792 2532 792 2435 792 c 0,68,69
 2334 792 2334 792 2262.5 718 c 128,-1,60
 2191 644 2191 644 2191 540 c 128,-1,61
2047 540 m 128,-1,71
 2047 377 2047 377 2161 260.5 c 128,-1,72
 2275 144 2275 144 2435 144 c 0,73,74
 2591 144 2591 144 2702 260.5 c 128,-1,75
 2813 377 2813 377 2813 540 c 128,-1,76
 2813 703 2813 703 2702 819.5 c 128,-1,77
 2591 936 2591 936 2435 936 c 0,78,79
 2275 936 2275 936 2161 819.5 c 128,-1,70
 2047 703 2047 703 2047 540 c 128,-1,71
1903 540 m 128,-1,81
 1903 394 1903 394 1974.5 269.5 c 128,-1,82
 2046 145 2046 145 2168.5 72.5 c 128,-1,83
 2291 0 2291 0 2435 0 c 0,84,85
 2576 0 2576 0 2696.5 72.5 c 128,-1,86
 2817 145 2817 145 2887 269.5 c 128,-1,87
 2957 394 2957 394 2957 540 c 128,-1,88
 2957 686 2957 686 2887 810.5 c 128,-1,89
 2817 935 2817 935 2696.5 1007.5 c 128,-1,90
 2576 1080 2576 1080 2435 1080 c 0,91,92
 2291 1080 2291 1080 2168.5 1007.5 c 128,-1,93
 2046 935 2046 935 1974.5 810.5 c 128,-1,80
 1903 686 1903 686 1903 540 c 128,-1,81
57 1116 m 128,-1,95
 57 1240 57 1240 105 1353.5 c 128,-1,96
 153 1467 153 1467 234 1549 c 128,-1,97
 315 1631 315 1631 427 1679.5 c 128,-1,98
 539 1728 539 1728 661 1728 c 0,99,100
 781 1728 781 1728 891 1679.5 c 128,-1,101
 1001 1631 1001 1631 1081 1549 c 128,-1,102
 1161 1467 1161 1467 1208 1353.5 c 128,-1,103
 1255 1240 1255 1240 1255 1116 c 128,-1,104
 1255 992 1255 992 1208 878.5 c 128,-1,105
 1161 765 1161 765 1081 683 c 128,-1,106
 1001 601 1001 601 891 552.5 c 128,-1,107
 781 504 781 504 661 504 c 0,108,109
 539 504 539 504 427 552.5 c 128,-1,110
 315 601 315 601 234 683 c 128,-1,111
 153 765 153 765 105 878.5 c 128,-1,94
 57 992 57 992 57 1116 c 128,-1,95
823 1116 m 128,-1,113
 823 1042 823 1042 775.5 989 c 128,-1,114
 728 936 728 936 661 936 c 0,115,116
 590 936 590 936 539.5 989 c 128,-1,117
 489 1042 489 1042 489 1116 c 128,-1,118
 489 1190 489 1190 539.5 1243 c 128,-1,119
 590 1296 590 1296 661 1296 c 0,120,121
 728 1296 728 1296 775.5 1243 c 128,-1,112
 823 1190 823 1190 823 1116 c 128,-1,113
967 1116 m 128,-1,123
 967 983 967 983 877 887.5 c 128,-1,124
 787 792 787 792 661 792 c 0,125,126
 531 792 531 792 438 887 c 128,-1,127
 345 982 345 982 345 1116 c 128,-1,128
 345 1250 345 1250 438 1345 c 128,-1,129
 531 1440 531 1440 661 1440 c 0,130,131
 787 1440 787 1440 877 1344.5 c 128,-1,122
 967 1249 967 1249 967 1116 c 128,-1,123
1111 1116 m 128,-1,133
 1111 923 1111 923 978.5 785.5 c 128,-1,134
 846 648 846 648 661 648 c 0,135,136
 537 648 537 648 431 711 c 128,-1,137
 325 774 325 774 263 882 c 128,-1,138
 201 990 201 990 201 1116 c 128,-1,139
 201 1242 201 1242 263 1350 c 128,-1,140
 325 1458 325 1458 431 1521 c 128,-1,141
 537 1584 537 1584 661 1584 c 0,142,143
 846 1584 846 1584 978.5 1446.5 c 128,-1,132
 1111 1309 1111 1309 1111 1116 c 128,-1,133
561 1116 m 128,-1,145
 561 1072 561 1072 590.5 1040 c 128,-1,146
 620 1008 620 1008 661 1008 c 0,147,148
 698 1008 698 1008 724.5 1040 c 128,-1,149
 751 1072 751 1072 751 1116 c 128,-1,150
 751 1160 751 1160 724.5 1192 c 128,-1,151
 698 1224 698 1224 661 1224 c 0,152,153
 620 1224 620 1224 590.5 1192 c 128,-1,144
 561 1160 561 1160 561 1116 c 128,-1,145
417 1116 m 128,-1,155
 417 1012 417 1012 488.5 938 c 128,-1,156
 560 864 560 864 661 864 c 0,157,158
 758 864 758 864 826.5 938 c 128,-1,159
 895 1012 895 1012 895 1116 c 128,-1,160
 895 1220 895 1220 826.5 1294 c 128,-1,161
 758 1368 758 1368 661 1368 c 0,162,163
 560 1368 560 1368 488.5 1294 c 128,-1,154
 417 1220 417 1220 417 1116 c 128,-1,155
273 1116 m 128,-1,165
 273 953 273 953 387 836.5 c 128,-1,166
 501 720 501 720 661 720 c 0,167,168
 817 720 817 720 928 836.5 c 128,-1,169
 1039 953 1039 953 1039 1116 c 128,-1,170
 1039 1279 1039 1279 928 1395.5 c 128,-1,171
 817 1512 817 1512 661 1512 c 0,172,173
 501 1512 501 1512 387 1395.5 c 128,-1,164
 273 1279 273 1279 273 1116 c 128,-1,165
129 1116 m 128,-1,175
 129 970 129 970 200.5 845.5 c 128,-1,176
 272 721 272 721 394.5 648.5 c 128,-1,177
 517 576 517 576 661 576 c 0,178,179
 802 576 802 576 922.5 648.5 c 128,-1,180
 1043 721 1043 721 1113 845.5 c 128,-1,181
 1183 970 1183 970 1183 1116 c 128,-1,182
 1183 1262 1183 1262 1113 1386.5 c 128,-1,183
 1043 1511 1043 1511 922.5 1583.5 c 128,-1,184
 802 1656 802 1656 661 1656 c 0,185,186
 517 1656 517 1656 394.5 1583.5 c 128,-1,187
 272 1511 272 1511 200.5 1386.5 c 128,-1,174
 129 1262 129 1262 129 1116 c 128,-1,175
1873 1655 m 1,188,-1
 1947 1655 l 1,189,-1
 1483 -144 l 1,190,-1
 1409 -144 l 1,191,-1
 1873 1655 l 1,188,-1
1723 1655 m 1,192,-1
 1798 1655 l 1,193,-1
 1334 -144 l 1,194,-1
 1260 -144 l 1,195,-1
 1723 1655 l 1,192,-1
1573 1655 m 1,196,-1
 1648 1655 l 1,197,-1
 1185 -144 l 1,198,-1
 1110 -144 l 1,199,-1
 1573 1655 l 1,196,-1
EndSplineSet
EndChar

StartChar: ampersand
Encoding: 38 38 12
Width: 2109
Flags: W
LayerCount: 2
Fore
SplineSet
1835 781 m 1,0,-1
 1835 853 l 1,1,-1
 2052 853 l 1,2,-1
 2052 781 l 1,3,-1
 1835 781 l 1,0,-1
1835 643 m 1,4,-1
 1835 715 l 1,5,-1
 2052 715 l 1,6,-1
 2052 643 l 1,7,-1
 1835 643 l 1,4,-1
1725 580 m 2,8,-1
 1725 1656 l 1,9,-1
 1797 1656 l 1,10,-1
 1797 580 l 2,11,12
 1797 535 1797 535 1812.5 519.5 c 128,-1,13
 1828 504 1828 504 1857 504 c 2,14,-1
 1991 504 l 1,15,-1
 1991 432 l 1,16,-1
 1854 432 l 2,17,18
 1798 432 1798 432 1761.5 469 c 128,-1,19
 1725 506 1725 506 1725 580 c 2,8,-1
1581 580 m 2,20,-1
 1581 1656 l 1,21,-1
 1653 1656 l 1,22,-1
 1653 580 l 2,23,24
 1653 474 1653 474 1708 417 c 128,-1,25
 1763 360 1763 360 1848 360 c 2,26,-1
 1991 360 l 1,27,-1
 1991 288 l 1,28,-1
 1851 288 l 2,29,30
 1739 288 1739 288 1660 366 c 128,-1,31
 1581 444 1581 444 1581 580 c 2,20,-1
1437 580 m 2,32,-1
 1437 1656 l 1,33,-1
 1509 1656 l 1,34,-1
 1509 580 l 2,35,36
 1509 468 1509 468 1557.5 383.5 c 128,-1,37
 1606 299 1606 299 1683 257.5 c 128,-1,38
 1760 216 1760 216 1851 216 c 2,39,-1
 1991 216 l 1,40,-1
 1991 144 l 1,41,-1
 1853 144 l 2,42,43
 1743 144 1743 144 1649 195 c 128,-1,44
 1555 246 1555 246 1496 347 c 128,-1,45
 1437 448 1437 448 1437 580 c 2,32,-1
1293 580 m 2,46,-1
 1293 1656 l 1,47,-1
 1365 1656 l 1,48,-1
 1365 580 l 2,49,50
 1365 465 1365 465 1405 368 c 128,-1,51
 1445 271 1445 271 1512.5 207 c 128,-1,52
 1580 143 1580 143 1667.5 107.5 c 128,-1,53
 1755 72 1755 72 1850 72 c 2,54,-1
 1991 72 l 1,55,-1
 1991 0 l 1,56,-1
 1851 0 l 2,57,58
 1742 0 1742 0 1641 41 c 128,-1,59
 1540 82 1540 82 1462.5 155.5 c 128,-1,60
 1385 229 1385 229 1339 339.5 c 128,-1,61
 1293 450 1293 450 1293 580 c 2,46,-1
573 577 m 0,62,63
 573 504 573 504 665 504 c 2,64,-1
 1221 504 l 1,65,-1
 1221 432 l 1,66,-1
 665 432 l 2,67,68
 591 432 591 432 546 466 c 128,-1,69
 501 500 501 500 501 577 c 0,70,71
 501 714 501 714 665 714 c 2,72,-1
 1260 714 l 1,73,-1
 1260 642 l 1,74,-1
 665 642 l 2,75,76
 620 642 620 642 596.5 629 c 128,-1,77
 573 616 573 616 573 577 c 0,62,63
1149 1224 m 1,78,-1
 1149 1152 l 1,79,-1
 665 1152 l 2,80,81
 625 1152 625 1152 599 1132.5 c 128,-1,82
 573 1113 573 1113 573 1079 c 0,83,84
 573 996 573 996 665 996 c 2,85,-1
 1260 996 l 1,86,-1
 1260 924 l 1,87,-1
 665 924 l 2,88,89
 591 924 591 924 546 960.5 c 128,-1,90
 501 997 501 997 501 1079 c 0,91,92
 501 1141 501 1141 549 1182.5 c 128,-1,93
 597 1224 597 1224 665 1224 c 2,94,-1
 1149 1224 l 1,78,-1
1149 1368 m 1,95,-1
 1149 1296 l 1,96,-1
 665 1296 l 2,97,98
 572 1296 572 1296 500.5 1231 c 128,-1,99
 429 1166 429 1166 429 1079 c 0,100,101
 429 971 429 971 497.5 911.5 c 128,-1,102
 566 852 566 852 665 852 c 2,103,-1
 1260 852 l 1,104,-1
 1260 780 l 1,105,-1
 665 780 l 2,106,107
 644 780 644 780 634 781 c 1,108,109
 533 772 533 772 481 716 c 128,-1,110
 429 660 429 660 429 587 c 0,111,112
 429 479 429 479 497.5 419.5 c 128,-1,113
 566 360 566 360 665 360 c 2,114,-1
 1221 360 l 1,115,-1
 1221 288 l 1,116,-1
 665 288 l 2,117,118
 537 288 537 288 447 369.5 c 128,-1,119
 357 451 357 451 357 587 c 0,120,121
 357 759 357 759 514 815 c 1,122,123
 442 852 442 852 399.5 920 c 128,-1,124
 357 988 357 988 357 1079 c 0,125,126
 357 1195 357 1195 449.5 1281.5 c 128,-1,127
 542 1368 542 1368 665 1368 c 2,128,-1
 1149 1368 l 1,95,-1
1149 1512 m 1,129,-1
 1149 1440 l 1,130,-1
 665 1440 l 2,131,132
 513 1440 513 1440 399 1332.5 c 128,-1,133
 285 1225 285 1225 285 1079 c 0,134,135
 285 927 285 927 396 823 c 1,136,137
 344 786 344 786 314.5 715.5 c 128,-1,138
 285 645 285 645 285 587 c 0,139,140
 285 425 285 425 397 320.5 c 128,-1,141
 509 216 509 216 665 216 c 2,142,-1
 1221 216 l 1,143,-1
 1221 144 l 1,144,-1
 665 144 l 2,145,146
 545 144 545 144 441.5 200.5 c 128,-1,147
 338 257 338 257 275.5 359.5 c 128,-1,148
 213 462 213 462 213 587 c 0,149,150
 213 716 213 716 312 826 c 1,151,152
 213 939 213 939 213 1079 c 0,153,154
 213 1194 213 1194 275 1294.5 c 128,-1,155
 337 1395 337 1395 441.5 1453.5 c 128,-1,156
 546 1512 546 1512 665 1512 c 2,157,-1
 1149 1512 l 1,129,-1
1149 1656 m 1,158,-1
 1149 1584 l 1,159,-1
 665 1584 l 2,160,161
 526 1584 526 1584 405 1515.5 c 128,-1,162
 284 1447 284 1447 212.5 1330.5 c 128,-1,163
 141 1214 141 1214 141 1079 c 0,164,165
 141 941 141 941 230 822 c 1,166,167
 186 770 186 770 163.5 702.5 c 128,-1,168
 141 635 141 635 141 587 c 0,169,170
 141 479 141 479 183.5 383 c 128,-1,171
 226 287 226 287 297 219 c 128,-1,172
 368 151 368 151 464 111.5 c 128,-1,173
 560 72 560 72 665 72 c 2,174,-1
 1221 72 l 1,175,-1
 1221 0 l 1,176,-1
 665 0 l 2,177,178
 544 0 544 0 436 41 c 128,-1,179
 328 82 328 82 246.5 156 c 128,-1,180
 165 230 165 230 117 341.5 c 128,-1,181
 69 453 69 453 69 587 c 0,182,183
 69 706 69 706 152 821 c 1,184,185
 69 932 69 932 69 1079 c 0,186,187
 69 1233 69 1233 150.5 1366.5 c 128,-1,188
 232 1500 232 1500 369.5 1578 c 128,-1,189
 507 1656 507 1656 665 1656 c 2,190,-1
 1149 1656 l 1,158,-1
2052 924 m 1,191,-1
 1835 924 l 1,192,-1
 1835 996 l 1,193,-1
 2052 996 l 1,194,-1
 2052 924 l 1,191,-1
EndSplineSet
EndChar

StartChar: quotesingle
Encoding: 39 39 13
Width: 528
Flags: W
LayerCount: 2
Fore
SplineSet
372 1007 m 1,0,-1
 372 1656 l 1,1,-1
 444 1656 l 1,2,-1
 444 1007 l 1,3,-1
 372 1007 l 1,0,-1
228 1007 m 1,4,-1
 228 1656 l 1,5,-1
 300 1656 l 1,6,-1
 300 1007 l 1,7,-1
 228 1007 l 1,4,-1
84 1007 m 1,8,-1
 84 1656 l 1,9,-1
 156 1656 l 1,10,-1
 156 1007 l 1,11,-1
 84 1007 l 1,8,-1
EndSplineSet
EndChar

StartChar: parenleft
Encoding: 40 40 14
Width: 841
Flags: W
LayerCount: 2
Fore
SplineSet
508 496 m 2,0,-1
 508 1089 l 2,1,2
 508 1193 508 1193 562.5 1245 c 128,-1,3
 617 1297 617 1297 697 1297 c 2,4,-1
 774 1297 l 1,5,-1
 774 1225 l 1,6,-1
 700 1225 l 2,7,8
 645 1225 645 1225 612.5 1196 c 128,-1,9
 580 1167 580 1167 580 1089 c 2,10,-1
 580 496 l 2,11,12
 580 418 580 418 612.5 389 c 128,-1,13
 645 360 645 360 700 360 c 2,14,-1
 774 360 l 1,15,-1
 774 288 l 1,16,-1
 697 288 l 2,17,18
 617 288 617 288 562.5 340 c 128,-1,19
 508 392 508 392 508 496 c 2,0,-1
364 496 m 2,20,-1
 364 1089 l 2,21,22
 364 1251 364 1251 461 1346 c 128,-1,23
 558 1441 558 1441 694 1441 c 2,24,-1
 774 1441 l 1,25,-1
 774 1369 l 1,26,-1
 691 1369 l 2,27,28
 578 1369 578 1369 507 1297.5 c 128,-1,29
 436 1226 436 1226 436 1089 c 2,30,-1
 436 496 l 2,31,32
 436 359 436 359 507 287.5 c 128,-1,33
 578 216 578 216 691 216 c 2,34,-1
 774 216 l 1,35,-1
 774 144 l 1,36,-1
 694 144 l 2,37,38
 558 144 558 144 461 239 c 128,-1,39
 364 334 364 334 364 496 c 2,20,-1
220 496 m 2,40,-1
 220 1089 l 2,41,42
 220 1238 220 1238 288 1353 c 128,-1,43
 356 1468 356 1468 463.5 1526.5 c 128,-1,44
 571 1585 571 1585 696 1585 c 2,45,-1
 774 1585 l 1,46,-1
 774 1513 l 1,47,-1
 694 1513 l 2,48,49
 615 1513 615 1513 543 1484 c 128,-1,50
 471 1455 471 1455 415 1402.5 c 128,-1,51
 359 1350 359 1350 325.5 1268.5 c 128,-1,52
 292 1187 292 1187 292 1089 c 2,53,-1
 292 496 l 2,54,55
 292 398 292 398 325.5 316.5 c 128,-1,56
 359 235 359 235 415 182.5 c 128,-1,57
 471 130 471 130 543 101 c 128,-1,58
 615 72 615 72 694 72 c 2,59,-1
 774 72 l 1,60,-1
 774 0 l 1,61,-1
 696 0 l 2,62,63
 571 0 571 0 463.5 58.5 c 128,-1,64
 356 117 356 117 288 232 c 128,-1,65
 220 347 220 347 220 496 c 2,40,-1
76 496 m 2,66,-1
 76 1089 l 2,67,68
 76 1232 76 1232 127.5 1354 c 128,-1,69
 179 1476 179 1476 265 1557 c 128,-1,70
 351 1638 351 1638 462 1683.5 c 128,-1,71
 573 1729 573 1729 694 1729 c 2,72,-1
 774 1729 l 1,73,-1
 774 1657 l 1,74,-1
 693 1657 l 2,75,76
 587 1657 587 1657 488.5 1617 c 128,-1,77
 390 1577 390 1577 314.5 1505.5 c 128,-1,78
 239 1434 239 1434 193.5 1325.5 c 128,-1,79
 148 1217 148 1217 148 1089 c 2,80,-1
 148 496 l 2,81,82
 148 368 148 368 193.5 259.5 c 128,-1,83
 239 151 239 151 314.5 79.5 c 128,-1,84
 390 8 390 8 488.5 -32 c 128,-1,85
 587 -72 587 -72 693 -72 c 2,86,-1
 774 -72 l 1,87,-1
 774 -144 l 1,88,-1
 694 -144 l 2,89,90
 573 -144 573 -144 462 -98.5 c 128,-1,91
 351 -53 351 -53 265 28 c 128,-1,92
 179 109 179 109 127.5 231 c 128,-1,93
 76 353 76 353 76 496 c 2,66,-1
EndSplineSet
EndChar

StartChar: parenright
Encoding: 41 41 15
Width: 837
Flags: W
LayerCount: 2
Fore
SplineSet
765 1089 m 2,0,-1
 765 496 l 2,1,2
 765 353 765 353 713.5 231 c 128,-1,3
 662 109 662 109 576 28 c 128,-1,4
 490 -53 490 -53 379 -98.5 c 128,-1,5
 268 -144 268 -144 147 -144 c 2,6,-1
 67 -144 l 1,7,-1
 67 -72 l 1,8,-1
 148 -72 l 2,9,10
 254 -72 254 -72 352.5 -32 c 128,-1,11
 451 8 451 8 526.5 79.5 c 128,-1,12
 602 151 602 151 647.5 259.5 c 128,-1,13
 693 368 693 368 693 496 c 2,14,-1
 693 1089 l 2,15,16
 693 1217 693 1217 647.5 1325.5 c 128,-1,17
 602 1434 602 1434 526.5 1505.5 c 128,-1,18
 451 1577 451 1577 352.5 1617 c 128,-1,19
 254 1657 254 1657 148 1657 c 2,20,-1
 67 1657 l 1,21,-1
 67 1729 l 1,22,-1
 147 1729 l 2,23,24
 268 1729 268 1729 379 1683.5 c 128,-1,25
 490 1638 490 1638 576 1557 c 128,-1,26
 662 1476 662 1476 713.5 1354 c 128,-1,27
 765 1232 765 1232 765 1089 c 2,0,-1
621 1089 m 2,28,-1
 621 496 l 2,29,30
 621 347 621 347 553 232 c 128,-1,31
 485 117 485 117 377.5 58.5 c 128,-1,32
 270 0 270 0 145 0 c 2,33,-1
 67 0 l 1,34,-1
 67 72 l 1,35,-1
 147 72 l 2,36,37
 226 72 226 72 298 101 c 128,-1,38
 370 130 370 130 426 182.5 c 128,-1,39
 482 235 482 235 515.5 316.5 c 128,-1,40
 549 398 549 398 549 496 c 2,41,-1
 549 1089 l 2,42,43
 549 1187 549 1187 515.5 1268.5 c 128,-1,44
 482 1350 482 1350 426 1402.5 c 128,-1,45
 370 1455 370 1455 298 1484 c 128,-1,46
 226 1513 226 1513 147 1513 c 2,47,-1
 67 1513 l 1,48,-1
 67 1585 l 1,49,-1
 145 1585 l 2,50,51
 270 1585 270 1585 377.5 1526.5 c 128,-1,52
 485 1468 485 1468 553 1353 c 128,-1,53
 621 1238 621 1238 621 1089 c 2,28,-1
477 1089 m 2,54,-1
 477 496 l 2,55,56
 477 334 477 334 380 239 c 128,-1,57
 283 144 283 144 147 144 c 2,58,-1
 67 144 l 1,59,-1
 67 216 l 1,60,-1
 150 216 l 2,61,62
 263 216 263 216 334 287.5 c 128,-1,63
 405 359 405 359 405 496 c 2,64,-1
 405 1089 l 2,65,66
 405 1226 405 1226 334 1297.5 c 128,-1,67
 263 1369 263 1369 150 1369 c 2,68,-1
 67 1369 l 1,69,-1
 67 1441 l 1,70,-1
 147 1441 l 2,71,72
 283 1441 283 1441 380 1346 c 128,-1,73
 477 1251 477 1251 477 1089 c 2,54,-1
333 1089 m 2,74,-1
 333 496 l 2,75,76
 333 392 333 392 278.5 340 c 128,-1,77
 224 288 224 288 144 288 c 2,78,-1
 67 288 l 1,79,-1
 67 360 l 1,80,-1
 141 360 l 2,81,82
 196 360 196 360 228.5 389 c 128,-1,83
 261 418 261 418 261 496 c 2,84,-1
 261 1089 l 2,85,86
 261 1167 261 1167 228.5 1196 c 128,-1,87
 196 1225 196 1225 141 1225 c 2,88,-1
 67 1225 l 1,89,-1
 67 1297 l 1,90,-1
 144 1297 l 2,91,92
 224 1297 224 1297 278.5 1245 c 128,-1,93
 333 1193 333 1193 333 1089 c 2,74,-1
EndSplineSet
EndChar

StartChar: asterisk
Encoding: 42 42 16
Width: 1361
Flags: W
LayerCount: 2
Fore
SplineSet
573 1015 m 1,0,-1
 205 1228 l 1,1,-1
 241 1290 l 1,2,-1
 501 1139 l 1,3,-1
 501 1440 l 1,4,-1
 573 1440 l 1,5,-1
 573 1015 l 1,0,-1
789 1015 m 1,6,-1
 789 1440 l 1,7,-1
 861 1440 l 1,8,-1
 861 1139 l 1,9,-1
 1121 1290 l 1,10,-1
 1157 1228 l 1,11,-1
 789 1015 l 1,6,-1
896 828 m 1,12,-1
 1265 1041 l 1,13,-1
 1301 979 l 1,14,-1
 1040 828 l 1,15,-1
 1301 677 l 1,16,-1
 1265 615 l 1,17,-1
 896 828 l 1,12,-1
789 641 m 1,18,-1
 1157 428 l 1,19,-1
 1121 366 l 1,20,-1
 861 516 l 1,21,-1
 861 216 l 1,22,-1
 789 216 l 1,23,-1
 789 641 l 1,18,-1
573 641 m 1,24,-1
 573 216 l 1,25,-1
 501 216 l 1,26,-1
 501 516 l 1,27,-1
 241 366 l 1,28,-1
 205 428 l 1,29,-1
 573 641 l 1,24,-1
465 828 m 1,30,-1
 97 615 l 1,31,-1
 61 677 l 1,32,-1
 322 828 l 1,33,-1
 61 979 l 1,34,-1
 97 1041 l 1,35,-1
 465 828 l 1,30,-1
132 553 m 1,36,-1
 607 827 l 1,37,-1
 132 1102 l 1,38,-1
 168 1165 l 1,39,-1
 645 889 l 1,40,-1
 645 1440 l 1,41,-1
 717 1440 l 1,42,-1
 717 890 l 1,43,-1
 1193 1165 l 1,44,-1
 1229 1103 l 1,45,-1
 751 827 l 1,46,-1
 1229 552 l 1,47,-1
 1193 490 l 1,48,-1
 717 764 l 1,49,-1
 717 215 l 1,50,-1
 645 215 l 1,51,-1
 645 765 l 1,52,-1
 168 490 l 1,53,-1
 132 553 l 1,36,-1
EndSplineSet
EndChar

StartChar: plus
Encoding: 43 43 17
Width: 1231
Flags: W
LayerCount: 2
Fore
SplineSet
77 937 m 1,0,-1
 77 1009 l 1,1,-1
 374 1009 l 1,2,-1
 374 1297 l 1,3,-1
 446 1297 l 1,4,-1
 446 361 l 1,5,-1
 374 361 l 1,6,-1
 374 649 l 1,7,-1
 76 649 l 1,8,-1
 76 721 l 1,9,-1
 374 721 l 1,10,-1
 374 793 l 1,11,-1
 77 793 l 1,12,-1
 77 865 l 1,13,-1
 374 865 l 1,14,-1
 374 937 l 1,15,-1
 77 937 l 1,0,-1
806 1297 m 1,16,-1
 878 1297 l 1,17,-1
 878 1009 l 1,18,-1
 1156 1009 l 1,19,-1
 1156 937 l 1,20,-1
 878 937 l 1,21,-1
 878 865 l 1,22,-1
 1156 865 l 1,23,-1
 1156 793 l 1,24,-1
 878 793 l 1,25,-1
 878 721 l 1,26,-1
 1156 721 l 1,27,-1
 1156 649 l 1,28,-1
 878 649 l 1,29,-1
 878 361 l 1,30,-1
 806 361 l 1,31,-1
 806 1297 l 1,16,-1
662 1297 m 1,32,-1
 734 1297 l 1,33,-1
 734 361 l 1,34,-1
 662 361 l 1,35,-1
 662 1297 l 1,32,-1
518 1297 m 1,36,-1
 590 1297 l 1,37,-1
 590 361 l 1,38,-1
 518 361 l 1,39,-1
 518 1297 l 1,36,-1
EndSplineSet
EndChar

StartChar: comma
Encoding: 44 44 18
Width: 518
Flags: W
LayerCount: 2
Fore
SplineSet
79 73 m 1,0,-1
 79 361 l 1,1,-1
 151 361 l 1,2,-1
 151 73 l 1,3,-1
 79 73 l 1,0,-1
79 -143 m 1,4,-1
 79 -71 l 1,5,6
 121 -71 121 -71 149.5 -62 c 128,-1,7
 178 -53 178 -53 192 -42 c 128,-1,8
 206 -31 206 -31 213.5 -8 c 128,-1,9
 221 15 221 15 222 29.5 c 128,-1,10
 223 44 223 44 223 73 c 2,11,-1
 223 361 l 1,12,-1
 295 361 l 1,13,-1
 295 73 l 2,14,15
 295 51 295 51 294.5 38 c 128,-1,16
 294 25 294 25 290 -0.5 c 128,-1,17
 286 -26 286 -26 278 -42.5 c 128,-1,18
 270 -59 270 -59 254.5 -80 c 128,-1,19
 239 -101 239 -101 216.5 -113.5 c 128,-1,20
 194 -126 194 -126 159 -134.5 c 128,-1,21
 124 -143 124 -143 79 -143 c 1,4,-1
79 -287 m 1,22,-1
 79 -215 l 1,23,24
 126 -215 126 -215 164.5 -209.5 c 128,-1,25
 203 -204 203 -204 231 -196 c 128,-1,26
 259 -188 259 -188 281 -172 c 128,-1,27
 303 -156 303 -156 317 -142.5 c 128,-1,28
 331 -129 331 -129 341 -105.5 c 128,-1,29
 351 -82 351 -82 356 -66 c 128,-1,30
 361 -50 361 -50 363.5 -21 c 128,-1,31
 366 8 366 8 366.5 24.5 c 128,-1,32
 367 41 367 41 367 73 c 2,33,-1
 367 361 l 1,34,-1
 439 361 l 1,35,-1
 439 73 l 2,36,37
 439 41 439 41 438.5 22.5 c 128,-1,38
 438 4 438 4 434.5 -30 c 128,-1,39
 431 -64 431 -64 425 -85 c 128,-1,40
 419 -106 419 -106 406.5 -136 c 128,-1,41
 394 -166 394 -166 376.5 -185 c 128,-1,42
 359 -204 359 -204 331.5 -225.5 c 128,-1,43
 304 -247 304 -247 269 -259 c 128,-1,44
 234 -271 234 -271 185.5 -279 c 128,-1,45
 137 -287 137 -287 79 -287 c 1,22,-1
EndSplineSet
EndChar

StartChar: hyphen
Encoding: 45 45 19
Width: 970
Flags: W
LayerCount: 2
Fore
SplineSet
90 936 m 1,0,-1
 90 1008 l 1,1,-1
 882 1008 l 1,2,-1
 882 936 l 1,3,-1
 90 936 l 1,0,-1
90 792 m 1,4,-1
 90 864 l 1,5,-1
 882 864 l 1,6,-1
 882 792 l 1,7,-1
 90 792 l 1,4,-1
90 648 m 1,8,-1
 90 720 l 1,9,-1
 882 720 l 1,10,-1
 882 648 l 1,11,-1
 90 648 l 1,8,-1
EndSplineSet
EndChar

StartChar: period
Encoding: 46 46 20
Width: 523
Flags: W
LayerCount: 2
Fore
SplineSet
81 288 m 1,0,-1
 81 360 l 1,1,-1
 441 360 l 1,2,-1
 441 288 l 1,3,-1
 81 288 l 1,0,-1
81 144 m 1,4,-1
 81 216 l 1,5,-1
 441 216 l 1,6,-1
 441 144 l 1,7,-1
 81 144 l 1,4,-1
81 0 m 1,8,-1
 81 72 l 1,9,-1
 441 72 l 1,10,-1
 441 0 l 1,11,-1
 81 0 l 1,8,-1
EndSplineSet
EndChar

StartChar: slash
Encoding: 47 47 21
Width: 917
Flags: W
LayerCount: 2
Fore
SplineSet
801 1655 m 1,0,-1
 875 1655 l 1,1,-1
 411 -194 l 1,2,-1
 337 -194 l 1,3,-1
 801 1655 l 1,0,-1
651 1655 m 1,4,-1
 726 1655 l 1,5,-1
 262 -194 l 1,6,-1
 188 -194 l 1,7,-1
 651 1655 l 1,4,-1
501 1655 m 1,8,-1
 576 1655 l 1,9,-1
 113 -194 l 1,10,-1
 38 -194 l 1,11,-1
 501 1655 l 1,8,-1
EndSplineSet
EndChar

StartChar: zero
Encoding: 48 48 22
Width: 1727
Flags: W
LayerCount: 2
Fore
SplineSet
65 828 m 128,-1,1
 65 1092 65 1092 169 1298 c 128,-1,2
 273 1504 273 1504 455 1616 c 128,-1,3
 637 1728 637 1728 865 1728 c 128,-1,4
 1093 1728 1093 1728 1275 1616 c 128,-1,5
 1457 1504 1457 1504 1561 1298 c 128,-1,6
 1665 1092 1665 1092 1665 828 c 128,-1,7
 1665 564 1665 564 1561 358 c 128,-1,8
 1457 152 1457 152 1275 40 c 128,-1,9
 1093 -72 1093 -72 865 -72 c 128,-1,10
 637 -72 637 -72 455 40 c 128,-1,11
 273 152 273 152 169 358 c 128,-1,0
 65 564 65 564 65 828 c 128,-1,1
1233 828 m 128,-1,13
 1233 607 1233 607 1133.5 483.5 c 128,-1,14
 1034 360 1034 360 865 360 c 128,-1,15
 696 360 696 360 596.5 483.5 c 128,-1,16
 497 607 497 607 497 828 c 128,-1,17
 497 1049 497 1049 596.5 1172.5 c 128,-1,18
 696 1296 696 1296 865 1296 c 128,-1,19
 1034 1296 1034 1296 1133.5 1172.5 c 128,-1,12
 1233 1049 1233 1049 1233 828 c 128,-1,13
1377 828 m 128,-1,21
 1377 548 1377 548 1235.5 382 c 128,-1,22
 1094 216 1094 216 865 216 c 128,-1,23
 636 216 636 216 494.5 382 c 128,-1,24
 353 548 353 548 353 828 c 128,-1,25
 353 1108 353 1108 494.5 1274 c 128,-1,26
 636 1440 636 1440 865 1440 c 128,-1,27
 1094 1440 1094 1440 1235.5 1274 c 128,-1,20
 1377 1108 1377 1108 1377 828 c 128,-1,21
1521 828 m 128,-1,29
 1521 603 1521 603 1436.5 430.5 c 128,-1,30
 1352 258 1352 258 1203 165 c 128,-1,31
 1054 72 1054 72 865 72 c 128,-1,32
 676 72 676 72 527 165 c 128,-1,33
 378 258 378 258 293.5 430.5 c 128,-1,34
 209 603 209 603 209 828 c 128,-1,35
 209 1053 209 1053 293.5 1225.5 c 128,-1,36
 378 1398 378 1398 527 1491 c 128,-1,37
 676 1584 676 1584 865 1584 c 128,-1,38
 1054 1584 1054 1584 1203 1491 c 128,-1,39
 1352 1398 1352 1398 1436.5 1225.5 c 128,-1,28
 1521 1053 1521 1053 1521 828 c 128,-1,29
569 828 m 128,-1,41
 569 636 569 636 647.5 534 c 128,-1,42
 726 432 726 432 865 432 c 128,-1,43
 1004 432 1004 432 1082.5 534 c 128,-1,44
 1161 636 1161 636 1161 828 c 128,-1,45
 1161 1020 1161 1020 1082.5 1122 c 128,-1,46
 1004 1224 1004 1224 865 1224 c 128,-1,47
 726 1224 726 1224 647.5 1122 c 128,-1,40
 569 1020 569 1020 569 828 c 128,-1,41
425 828 m 128,-1,49
 425 577 425 577 545.5 432.5 c 128,-1,50
 666 288 666 288 865 288 c 128,-1,51
 1064 288 1064 288 1184.5 432.5 c 128,-1,52
 1305 577 1305 577 1305 828 c 128,-1,53
 1305 1079 1305 1079 1184.5 1223.5 c 128,-1,54
 1064 1368 1064 1368 865 1368 c 128,-1,55
 666 1368 666 1368 545.5 1223.5 c 128,-1,48
 425 1079 425 1079 425 828 c 128,-1,49
281 828 m 128,-1,57
 281 518 281 518 443.5 331 c 128,-1,58
 606 144 606 144 865 144 c 128,-1,59
 1124 144 1124 144 1286.5 331 c 128,-1,60
 1449 518 1449 518 1449 828 c 128,-1,61
 1449 1138 1449 1138 1286.5 1325 c 128,-1,62
 1124 1512 1124 1512 865 1512 c 128,-1,63
 606 1512 606 1512 443.5 1325 c 128,-1,56
 281 1138 281 1138 281 828 c 128,-1,57
137 828 m 128,-1,65
 137 645 137 645 192 489.5 c 128,-1,66
 247 334 247 334 343.5 227 c 128,-1,67
 440 120 440 120 574.5 60 c 128,-1,68
 709 0 709 0 865 0 c 128,-1,69
 1021 0 1021 0 1155.5 60 c 128,-1,70
 1290 120 1290 120 1386.5 227 c 128,-1,71
 1483 334 1483 334 1538 489.5 c 128,-1,72
 1593 645 1593 645 1593 828 c 128,-1,73
 1593 1011 1593 1011 1538 1166.5 c 128,-1,74
 1483 1322 1483 1322 1386.5 1429 c 128,-1,75
 1290 1536 1290 1536 1155.5 1596 c 128,-1,76
 1021 1656 1021 1656 865 1656 c 128,-1,77
 709 1656 709 1656 574.5 1596 c 128,-1,78
 440 1536 440 1536 343.5 1429 c 128,-1,79
 247 1322 247 1322 192 1166.5 c 128,-1,64
 137 1011 137 1011 137 828 c 128,-1,65
EndSplineSet
EndChar

StartChar: one
Encoding: 49 49 23
Width: 873
Flags: W
LayerCount: 2
Fore
SplineSet
57 1296 m 1,0,-1
 57 1368 l 1,1,-1
 783 1368 l 1,2,-1
 783 0 l 1,3,-1
 711 0 l 1,4,-1
 711 1296 l 1,5,-1
 639 1296 l 1,6,-1
 639 0 l 1,7,-1
 567 0 l 1,8,-1
 567 1296 l 1,9,-1
 495 1296 l 1,10,-1
 495 0 l 1,11,-1
 423 0 l 1,12,-1
 423 1296 l 1,13,-1
 351 1296 l 1,14,-1
 351 0 l 1,15,-1
 279 0 l 1,16,-1
 279 1296 l 1,17,-1
 57 1296 l 1,0,-1
57 1440 m 1,18,-1
 57 1512 l 1,19,-1
 783 1512 l 1,20,-1
 783 1440 l 1,21,-1
 57 1440 l 1,18,-1
57 1584 m 1,22,-1
 57 1656 l 1,23,-1
 783 1656 l 1,24,-1
 783 1584 l 1,25,-1
 57 1584 l 1,22,-1
EndSplineSet
EndChar

StartChar: two
Encoding: 50 50 24
Width: 1194
Flags: W
LayerCount: 2
Fore
SplineSet
77 288 m 1,0,-1
 77 360 l 1,1,-1
 1053 360 l 1,2,-1
 1053 288 l 1,3,-1
 77 288 l 1,0,-1
77 144 m 1,4,-1
 77 216 l 1,5,-1
 1053 216 l 1,6,-1
 1053 144 l 1,7,-1
 77 144 l 1,4,-1
77 0 m 1,8,-1
 77 72 l 1,9,-1
 1053 72 l 1,10,-1
 1053 0 l 1,11,-1
 77 0 l 1,8,-1
188 400 m 1,12,-1
 104 400 l 1,13,14
 174 495 174 495 242 586 c 128,-1,15
 310 677 310 677 355.5 737.5 c 128,-1,16
 401 798 401 798 444 856 c 128,-1,17
 487 914 487 914 513.5 949 c 128,-1,18
 540 984 540 984 564 1017 c 128,-1,19
 588 1050 588 1050 600 1068.5 c 128,-1,20
 612 1087 612 1087 621.5 1104 c 128,-1,21
 631 1121 631 1121 634 1131.5 c 128,-1,22
 637 1142 637 1142 637 1152 c 0,23,24
 637 1198 637 1198 599 1211 c 128,-1,25
 561 1224 561 1224 465 1224 c 0,26,27
 309 1224 309 1224 153 1183 c 1,28,-1
 138 1252 l 1,29,30
 163 1263 163 1263 264.5 1280.5 c 128,-1,31
 366 1298 366 1298 460 1298 c 0,32,33
 517 1298 517 1298 559 1291.5 c 128,-1,34
 601 1285 601 1285 635.5 1269.5 c 128,-1,35
 670 1254 670 1254 688 1224.5 c 128,-1,36
 706 1195 706 1195 706 1152 c 128,-1,37
 706 1109 706 1109 662 1042 c 128,-1,38
 618 975 618 975 436 732 c 0,39,40
 288 535 288 535 188 400 c 1,12,-1
351 400 m 1,41,-1
 267 400 l 1,42,43
 640 902 640 902 681 961 c 0,44,45
 765 1081 765 1081 775 1132 c 0,46,47
 778 1146 778 1146 778 1162 c 0,48,49
 778 1369 778 1369 464 1369 c 0,50,51
 368 1369 368 1369 269 1352 c 128,-1,52
 170 1335 170 1335 124 1318 c 1,53,-1
 110 1387 l 1,54,55
 281 1440 281 1440 465 1440 c 0,56,57
 529 1440 529 1440 583.5 1431.5 c 128,-1,58
 638 1423 638 1423 688 1403 c 128,-1,59
 738 1383 738 1383 773 1351.5 c 128,-1,60
 808 1320 808 1320 828.5 1272 c 128,-1,61
 849 1224 849 1224 849 1162 c 0,62,63
 849 1098 849 1098 786 1001 c 128,-1,64
 723 904 723 904 409 479 c 0,65,66
 371 428 371 428 351 400 c 1,41,-1
518 400 m 1,67,-1
 434 400 l 1,68,69
 775 866 775 866 848 980.5 c 128,-1,70
 921 1095 921 1095 921 1172 c 0,71,72
 921 1266 921 1266 884.5 1334 c 128,-1,73
 848 1402 848 1402 782.5 1440 c 128,-1,74
 717 1478 717 1478 638.5 1495 c 128,-1,75
 560 1512 560 1512 464 1512 c 0,76,77
 279 1512 279 1512 95 1456 c 1,78,-1
 80 1529 l 1,79,80
 277 1587 277 1587 461 1587 c 0,81,82
 551 1587 551 1587 628 1574 c 128,-1,83
 705 1561 705 1561 773.5 1530.5 c 128,-1,84
 842 1500 842 1500 889.5 1453 c 128,-1,85
 937 1406 937 1406 965 1334.5 c 128,-1,86
 993 1263 993 1263 993 1172 c 0,87,88
 993 1107 993 1107 962.5 1039.5 c 128,-1,89
 932 972 932 972 836.5 834 c 128,-1,90
 741 696 741 696 518 400 c 1,67,-1
691 400 m 1,91,-1
 607 400 l 1,92,93
 818 679 818 679 912.5 819.5 c 128,-1,94
 1007 960 1007 960 1036 1032.5 c 128,-1,95
 1065 1105 1065 1105 1065 1182 c 0,96,97
 1065 1280 1065 1280 1035.5 1359.5 c 128,-1,98
 1006 1439 1006 1439 952.5 1493.5 c 128,-1,99
 899 1548 899 1548 824 1585 c 128,-1,100
 749 1622 749 1622 659.5 1639 c 128,-1,101
 570 1656 570 1656 466 1656 c 0,102,103
 274 1656 274 1656 66 1596 c 1,104,-1
 51 1667 l 1,105,106
 262 1728 262 1728 464 1728 c 0,107,108
 614 1728 614 1728 735.5 1695.5 c 128,-1,109
 857 1663 857 1663 947.5 1598 c 128,-1,110
 1038 1533 1038 1533 1087.5 1427 c 128,-1,111
 1137 1321 1137 1321 1137 1182 c 0,112,113
 1137 1094 1137 1094 1108.5 1016 c 128,-1,114
 1080 938 1080 938 984.5 795 c 128,-1,115
 889 652 889 652 691 400 c 1,91,-1
EndSplineSet
EndChar

StartChar: three
Encoding: 51 51 25
Width: 1254
Flags: W
LayerCount: 2
Fore
SplineSet
537 361 m 0,0,1
 305 361 305 361 136 409 c 1,2,-1
 150 476 l 1,3,4
 288 433 288 433 537 433 c 0,5,6
 685 433 685 433 685 511 c 0,7,8
 685 573 685 573 542 573 c 2,9,-1
 324 573 l 1,10,-1
 324 645 l 1,11,-1
 543 645 l 2,12,13
 635 645 635 645 696 613 c 128,-1,14
 757 581 757 581 757 511 c 0,15,16
 757 436 757 436 695.5 398.5 c 128,-1,17
 634 361 634 361 537 361 c 0,0,1
745 1071 m 1,18,-1
 676 1086 l 1,19,20
 685 1101 685 1101 685 1136 c 0,21,22
 685 1224 685 1224 537 1224 c 0,23,24
 288 1224 288 1224 150 1181 c 1,25,-1
 136 1248 l 1,26,27
 305 1296 305 1296 537 1296 c 0,28,29
 634 1296 634 1296 695.5 1256 c 128,-1,30
 757 1216 757 1216 757 1136 c 0,31,32
 757 1093 757 1093 745 1071 c 1,18,-1
122 1316 m 1,33,-1
 108 1386 l 1,34,35
 295 1440 295 1440 537 1440 c 0,36,37
 693 1440 693 1440 797 1358.5 c 128,-1,38
 901 1277 901 1277 901 1136 c 0,39,40
 901 1079 901 1079 879 1023 c 1,41,-1
 812 1050 l 1,42,43
 829 1088 829 1088 829 1136 c 0,44,45
 829 1246 829 1246 746 1307 c 128,-1,46
 663 1368 663 1368 537 1368 c 0,47,48
 305 1368 305 1368 122 1316 c 1,33,-1
1003 955 m 1,49,-1
 944 991 l 1,50,51
 973 1060 973 1060 973 1136 c 0,52,53
 973 1307 973 1307 848 1409.5 c 128,-1,54
 723 1512 723 1512 537 1512 c 0,55,56
 308 1512 308 1512 94 1454 c 1,57,-1
 79 1526 l 1,58,59
 286 1584 286 1584 537 1584 c 0,60,61
 677 1584 677 1584 792 1530 c 128,-1,62
 907 1476 907 1476 976 1372.5 c 128,-1,63
 1045 1269 1045 1269 1045 1136 c 0,64,65
 1045 1039 1045 1039 1003 955 c 1,49,-1
1110 851 m 1,66,-1
 1058 905 l 1,67,68
 1117 1012 1117 1012 1117 1136 c 0,69,70
 1117 1289 1117 1289 1038.5 1409 c 128,-1,71
 960 1529 960 1529 828.5 1592.5 c 128,-1,72
 697 1656 697 1656 537 1656 c 0,73,74
 292 1656 292 1656 65 1596 c 1,75,-1
 50 1668 l 1,76,77
 268 1728 268 1728 537 1728 c 0,78,79
 671 1728 671 1728 790.5 1685 c 128,-1,80
 910 1642 910 1642 998 1565.5 c 128,-1,81
 1086 1489 1086 1489 1137.5 1377.5 c 128,-1,82
 1189 1266 1189 1266 1189 1136 c 0,83,84
 1189 979 1189 979 1110 851 c 1,66,-1
537 289 m 0,85,86
 663 289 663 289 746 347.5 c 128,-1,87
 829 406 829 406 829 511 c 0,88,89
 829 608 829 608 747.5 662.5 c 128,-1,90
 666 717 666 717 551 717 c 2,91,-1
 324 717 l 1,92,-1
 324 789 l 1,93,-1
 552 789 l 2,94,95
 697 789 697 789 799 713.5 c 128,-1,96
 901 638 901 638 901 511 c 0,97,98
 901 374 901 374 797 295.5 c 128,-1,99
 693 217 693 217 537 217 c 0,100,101
 295 217 295 217 108 271 c 1,102,-1
 122 341 l 1,103,104
 305 289 305 289 537 289 c 0,85,86
537 145 m 0,105,106
 723 145 723 145 848 244.5 c 128,-1,107
 973 344 973 344 973 511 c 0,108,109
 973 670 973 670 850.5 765.5 c 128,-1,110
 728 861 728 861 556 861 c 2,111,-1
 324 861 l 1,112,-1
 324 933 l 1,113,-1
 558 933 l 2,114,115
 690 933 690 933 802 877.5 c 128,-1,116
 914 822 914 822 979.5 724.5 c 128,-1,117
 1045 627 1045 627 1045 511 c 0,118,119
 1045 381 1045 381 976 280 c 128,-1,120
 907 179 907 179 792 126 c 128,-1,121
 677 73 677 73 537 73 c 0,122,123
 286 73 286 73 79 131 c 1,124,-1
 94 203 l 1,125,126
 308 145 308 145 537 145 c 0,105,106
537 1 m 0,127,128
 697 1 697 1 828.5 63.5 c 128,-1,129
 960 126 960 126 1038.5 243.5 c 128,-1,130
 1117 361 1117 361 1117 511 c 0,131,132
 1117 621 1117 621 1069 715.5 c 128,-1,133
 1021 810 1021 810 942.5 872.5 c 128,-1,134
 864 935 864 935 764 970 c 128,-1,135
 664 1005 664 1005 558 1005 c 2,136,-1
 324 1005 l 1,137,-1
 324 1077 l 1,138,-1
 562 1077 l 2,139,140
 685 1077 685 1077 798.5 1036 c 128,-1,141
 912 995 912 995 998.5 923 c 128,-1,142
 1085 851 1085 851 1137 743.5 c 128,-1,143
 1189 636 1189 636 1189 511 c 0,144,145
 1189 341 1189 341 1101 207 c 128,-1,146
 1013 73 1013 73 864.5 1 c 128,-1,147
 716 -71 716 -71 537 -71 c 0,148,149
 268 -71 268 -71 50 -11 c 1,150,-1
 65 61 l 1,151,152
 292 1 292 1 537 1 c 0,127,128
EndSplineSet
EndChar

StartChar: four
Encoding: 52 52 26
Width: 1274
Flags: W
LayerCount: 2
Fore
SplineSet
966 0 m 1,0,-1
 894 0 l 1,1,-1
 894 251 l 1,2,-1
 966 251 l 1,3,-1
 966 0 l 1,0,-1
1110 0 m 1,4,-1
 1038 0 l 1,5,-1
 1038 251 l 1,6,-1
 1110 251 l 1,7,-1
 1110 0 l 1,4,-1
966 683 m 1,8,-1
 894 683 l 1,9,-1
 894 970 l 1,10,-1
 966 970 l 1,11,-1
 966 683 l 1,8,-1
1110 683 m 1,12,-1
 1038 683 l 1,13,-1
 1038 970 l 1,14,-1
 1110 970 l 1,15,-1
 1110 683 l 1,12,-1
67 576 m 1,16,-1
 67 648 l 1,17,-1
 1219 648 l 1,18,-1
 1219 576 l 1,19,-1
 67 576 l 1,16,-1
67 432 m 1,20,-1
 67 504 l 1,21,-1
 1219 504 l 1,22,-1
 1219 432 l 1,23,-1
 67 432 l 1,20,-1
67 288 m 1,24,-1
 67 360 l 1,25,-1
 1219 360 l 1,26,-1
 1219 288 l 1,27,-1
 67 288 l 1,24,-1
514 1655 m 1,28,-1
 597 1656 l 1,29,-1
 149 684 l 1,30,-1
 65 684 l 1,31,-1
 514 1655 l 1,28,-1
678 1655 m 1,32,-1
 758 1655 l 1,33,-1
 312 684 l 1,34,-1
 228 684 l 1,35,-1
 678 1655 l 1,32,-1
839 1655 m 1,36,-1
 921 1655 l 1,37,-1
 479 684 l 1,38,-1
 395 684 l 1,39,-1
 839 1655 l 1,36,-1
1003 1655 m 1,40,-1
 1086 1656 l 1,41,-1
 652 684 l 1,42,-1
 568 684 l 1,43,-1
 1003 1655 l 1,40,-1
EndSplineSet
EndChar

StartChar: five
Encoding: 53 53 27
Width: 1417
Flags: W
LayerCount: 2
Fore
SplineSet
1207 1368 m 1,0,-1
 1207 1296 l 1,1,-1
 472 1296 l 1,2,-1
 472 598 l 1,3,-1
 400 598 l 1,4,-1
 400 1296 l 1,5,-1
 328 1296 l 1,6,-1
 328 598 l 1,7,-1
 256 598 l 1,8,-1
 256 1296 l 1,9,-1
 184 1296 l 1,10,-1
 184 598 l 1,11,-1
 112 598 l 1,12,-1
 112 1368 l 1,13,-1
 1207 1368 l 1,0,-1
1207 1512 m 1,14,-1
 1207 1440 l 1,15,-1
 112 1440 l 1,16,-1
 112 1512 l 1,17,-1
 1207 1512 l 1,14,-1
1207 1656 m 1,18,-1
 1207 1584 l 1,19,-1
 112 1584 l 1,20,-1
 112 1656 l 1,21,-1
 1207 1656 l 1,18,-1
660 433 m 0,22,23
 858 433 858 433 858 521 c 0,24,25
 858 572 858 572 812 595 c 128,-1,26
 766 618 766 618 695 618 c 0,27,28
 585 618 585 618 520 592 c 1,29,-1
 520 664 l 1,30,31
 607 685 607 685 696 685 c 0,32,33
 760 685 760 685 810.5 670 c 128,-1,34
 861 655 861 655 895.5 617 c 128,-1,35
 930 579 930 579 930 521 c 0,36,37
 930 441 930 441 854.5 401 c 128,-1,38
 779 361 779 361 660 361 c 0,39,40
 475 361 475 361 378 421 c 1,41,-1
 436 465 l 1,42,43
 501 433 501 433 660 433 c 0,22,23
660 289 m 0,44,45
 808 289 808 289 905 350 c 128,-1,46
 1002 411 1002 411 1002 521 c 0,47,48
 1002 633 1002 633 918 693.5 c 128,-1,49
 834 754 834 754 714 754 c 0,50,51
 622 754 622 754 520 731 c 1,52,-1
 520 807 l 1,53,54
 643 822 643 822 715 822 c 0,55,56
 865 822 865 822 969.5 741.5 c 128,-1,57
 1074 661 1074 661 1074 521 c 0,58,59
 1074 380 1074 380 956 298.5 c 128,-1,60
 838 217 838 217 660 217 c 0,61,62
 406 217 406 217 266 331 c 1,63,-1
 323 375 l 1,64,65
 442 289 442 289 660 289 c 0,44,45
660 145 m 0,66,67
 867 145 867 145 1006.5 247.5 c 128,-1,68
 1146 350 1146 350 1146 521 c 0,69,70
 1146 637 1146 637 1086.5 723 c 128,-1,71
 1027 809 1027 809 934 850 c 128,-1,72
 841 891 841 891 729 891 c 0,73,74
 618 891 618 891 520 874 c 1,75,-1
 520 947 l 1,76,77
 636 960 636 960 731 960 c 0,78,79
 864 960 864 960 975.5 904 c 128,-1,80
 1087 848 1087 848 1152.5 747 c 128,-1,81
 1218 646 1218 646 1218 521 c 0,82,83
 1218 388 1218 388 1142.5 284.5 c 128,-1,84
 1067 181 1067 181 940.5 127 c 128,-1,85
 814 73 814 73 660 73 c 128,-1,86
 506 73 506 73 374 117 c 128,-1,87
 242 161 242 161 153 241 c 1,88,-1
 209 286 l 1,89,90
 289 218 289 218 406.5 181.5 c 128,-1,91
 524 145 524 145 660 145 c 0,66,67
660 1 m 0,92,93
 789 1 789 1 904.5 38.5 c 128,-1,94
 1020 76 1020 76 1105 143 c 128,-1,95
 1190 210 1190 210 1240 308 c 128,-1,96
 1290 406 1290 406 1290 521 c 0,97,98
 1290 635 1290 635 1244 733 c 128,-1,99
 1198 831 1198 831 1122 895.5 c 128,-1,100
 1046 960 1046 960 949.5 996 c 128,-1,101
 853 1032 853 1032 751 1032 c 0,102,103
 699 1032 699 1032 664 1029.5 c 128,-1,104
 629 1027 629 1027 585 1020.5 c 128,-1,105
 541 1014 541 1014 520 1012 c 1,106,-1
 520 1086 l 1,107,108
 618 1100 618 1100 755 1100 c 0,109,110
 874 1100 874 1100 984 1058.5 c 128,-1,111
 1094 1017 1094 1017 1178 943.5 c 128,-1,112
 1262 870 1262 870 1312 760 c 128,-1,113
 1362 650 1362 650 1362 521 c 0,114,115
 1362 391 1362 391 1306.5 279.5 c 128,-1,116
 1251 168 1251 168 1156 91.5 c 128,-1,117
 1061 15 1061 15 932.5 -28 c 128,-1,118
 804 -71 804 -71 660 -71 c 0,119,120
 473 -71 473 -71 311.5 -12.5 c 128,-1,121
 150 46 150 46 41 151 c 1,122,-1
 99 194 l 1,123,124
 198 102 198 102 344.5 51.5 c 128,-1,125
 491 1 491 1 660 1 c 0,92,93
EndSplineSet
EndChar

StartChar: six
Encoding: 54 54 28
Width: 1601
Flags: W
LayerCount: 2
Fore
SplineSet
505 1035 m 2,0,1
 505 1165 505 1165 594.5 1230.5 c 128,-1,2
 684 1296 684 1296 825 1296 c 0,3,4
 1010 1296 1010 1296 1107 1236 c 1,5,-1
 1049 1192 l 1,6,7
 984 1224 984 1224 825 1224 c 0,8,9
 713 1224 713 1224 645 1179.5 c 128,-1,10
 577 1135 577 1135 577 1035 c 2,11,-1
 577 601 l 2,12,13
 577 557 577 557 591.5 525.5 c 128,-1,14
 606 494 606 494 628.5 476 c 128,-1,15
 651 458 651 458 688.5 448.5 c 128,-1,16
 726 439 726 439 760.5 436 c 128,-1,17
 795 433 795 433 845 433 c 0,18,19
 1043 433 1043 433 1043 521 c 0,20,21
 1043 572 1043 572 1003 595 c 128,-1,22
 963 618 963 618 900 618 c 0,23,24
 756 618 756 618 632 562 c 1,25,-1
 632 634 l 1,26,27
 757 685 757 685 901 685 c 0,28,29
 993 685 993 685 1054 645.5 c 128,-1,30
 1115 606 1115 606 1115 521 c 0,31,32
 1115 441 1115 441 1039.5 401 c 128,-1,33
 964 361 964 361 845 361 c 0,34,35
 786 361 786 361 738 367.5 c 128,-1,36
 690 374 690 374 645.5 390.5 c 128,-1,37
 601 407 601 407 571 433.5 c 128,-1,38
 541 460 541 460 523 502.5 c 128,-1,39
 505 545 505 545 505 601 c 2,40,-1
 505 1035 l 2,0,1
361 1035 m 2,41,42
 361 1166 361 1166 424.5 1259.5 c 128,-1,43
 488 1353 488 1353 591 1396.5 c 128,-1,44
 694 1440 694 1440 825 1440 c 0,45,46
 1079 1440 1079 1440 1219 1326 c 1,47,-1
 1162 1282 l 1,48,49
 1043 1368 1043 1368 825 1368 c 0,50,51
 654 1368 654 1368 543.5 1281.5 c 128,-1,52
 433 1195 433 1195 433 1035 c 2,53,-1
 433 601 l 2,54,55
 433 517 433 517 464.5 455 c 128,-1,56
 496 393 496 393 554 357.5 c 128,-1,57
 612 322 612 322 684 305.5 c 128,-1,58
 756 289 756 289 845 289 c 0,59,60
 993 289 993 289 1090 350 c 128,-1,61
 1187 411 1187 411 1187 521 c 0,62,63
 1187 633 1187 633 1106 693.5 c 128,-1,64
 1025 754 1025 754 909 754 c 0,65,66
 762 754 762 754 632 701 c 1,67,-1
 632 777 l 1,68,69
 767 822 767 822 910 822 c 0,70,71
 1056 822 1056 822 1157.5 741.5 c 128,-1,72
 1259 661 1259 661 1259 521 c 0,73,74
 1259 380 1259 380 1141 298.5 c 128,-1,75
 1023 217 1023 217 845 217 c 0,76,77
 743 217 743 217 657 239.5 c 128,-1,78
 571 262 571 262 504 307 c 128,-1,79
 437 352 437 352 399 427 c 128,-1,80
 361 502 361 502 361 601 c 2,81,-1
 361 1035 l 2,41,42
217 1035 m 2,82,83
 217 1165 217 1165 265 1270.5 c 128,-1,84
 313 1376 313 1376 396 1443.5 c 128,-1,85
 479 1511 479 1511 589 1547.5 c 128,-1,86
 699 1584 699 1584 825 1584 c 0,87,88
 979 1584 979 1584 1111 1540 c 128,-1,89
 1243 1496 1243 1496 1332 1416 c 1,90,-1
 1276 1371 l 1,91,92
 1196 1439 1196 1439 1078.5 1475.5 c 128,-1,93
 961 1512 961 1512 825 1512 c 0,94,95
 714 1512 714 1512 617 1480.5 c 128,-1,96
 520 1449 520 1449 446.5 1390 c 128,-1,97
 373 1331 373 1331 331 1239.5 c 128,-1,98
 289 1148 289 1148 289 1035 c 2,99,-1
 289 601 l 2,100,101
 289 488 289 488 332.5 399.5 c 128,-1,102
 376 311 376 311 452.5 256 c 128,-1,103
 529 201 529 201 628.5 173 c 128,-1,104
 728 145 728 145 845 145 c 0,105,106
 1052 145 1052 145 1191.5 247.5 c 128,-1,107
 1331 350 1331 350 1331 521 c 0,108,109
 1331 637 1331 637 1271.5 723 c 128,-1,110
 1212 809 1212 809 1119 850 c 128,-1,111
 1026 891 1026 891 914 891 c 0,112,113
 767 891 767 891 632 844 c 1,114,-1
 632 917 l 1,115,116
 773 960 773 960 916 960 c 0,117,118
 1049 960 1049 960 1160.5 904 c 128,-1,119
 1272 848 1272 848 1337.5 747 c 128,-1,120
 1403 646 1403 646 1403 521 c 0,121,122
 1403 388 1403 388 1327.5 284.5 c 128,-1,123
 1252 181 1252 181 1125.5 127 c 128,-1,124
 999 73 999 73 845 73 c 0,125,126
 714 73 714 73 601.5 107 c 128,-1,127
 489 141 489 141 402.5 205.5 c 128,-1,128
 316 270 316 270 266.5 371.5 c 128,-1,129
 217 473 217 473 217 601 c 2,130,-1
 217 1035 l 2,82,83
73 1035 m 2,131,132
 73 1193 73 1193 132.5 1324.5 c 128,-1,133
 192 1456 192 1456 294 1543.5 c 128,-1,134
 396 1631 396 1631 533 1679.5 c 128,-1,135
 670 1728 670 1728 825 1728 c 0,136,137
 1012 1728 1012 1728 1173.5 1669.5 c 128,-1,138
 1335 1611 1335 1611 1444 1506 c 1,139,-1
 1386 1463 l 1,140,141
 1287 1555 1287 1555 1140.5 1605.5 c 128,-1,142
 994 1656 994 1656 825 1656 c 0,143,144
 684 1656 684 1656 561 1614.5 c 128,-1,145
 438 1573 438 1573 345 1496.5 c 128,-1,146
 252 1420 252 1420 198.5 1301 c 128,-1,147
 145 1182 145 1182 145 1035 c 2,148,-1
 145 601 l 2,149,150
 145 487 145 487 181 389.5 c 128,-1,151
 217 292 217 292 281 221 c 128,-1,152
 345 150 345 150 432.5 100 c 128,-1,153
 520 50 520 50 624.5 25.5 c 128,-1,154
 729 1 729 1 845 1 c 0,155,156
 974 1 974 1 1089.5 38.5 c 128,-1,157
 1205 76 1205 76 1290 143 c 128,-1,158
 1375 210 1375 210 1425 308 c 128,-1,159
 1475 406 1475 406 1475 521 c 0,160,161
 1475 635 1475 635 1427 733 c 128,-1,162
 1379 831 1379 831 1300.5 895.5 c 128,-1,163
 1222 960 1222 960 1122 996 c 128,-1,164
 1022 1032 1022 1032 916 1032 c 0,165,166
 764 1032 764 1032 632 987 c 1,167,-1
 632 1061 l 1,168,169
 769 1100 769 1100 920 1100 c 0,170,171
 1043 1100 1043 1100 1156.5 1058.5 c 128,-1,172
 1270 1017 1270 1017 1356.5 943.5 c 128,-1,173
 1443 870 1443 870 1495 760 c 128,-1,174
 1547 650 1547 650 1547 521 c 0,175,176
 1547 391 1547 391 1491.5 279.5 c 128,-1,177
 1436 168 1436 168 1341 91.5 c 128,-1,178
 1246 15 1246 15 1117.5 -28 c 128,-1,179
 989 -71 989 -71 845 -71 c 0,180,181
 684 -71 684 -71 544.5 -26 c 128,-1,182
 405 19 405 19 299.5 103 c 128,-1,183
 194 187 194 187 133.5 315.5 c 128,-1,184
 73 444 73 444 73 601 c 2,185,-1
 73 1035 l 2,131,132
EndSplineSet
EndChar

StartChar: seven
Encoding: 55 55 29
Width: 1294
Flags: W
LayerCount: 2
Fore
SplineSet
1174 1656 m 1,0,-1
 1249 1656 l 1,1,-1
 841 0 l 1,2,-1
 766 0 l 1,3,-1
 1174 1656 l 1,0,-1
612 1368 m 1,4,-1
 595 1296 l 1,5,-1
 57 1296 l 1,6,-1
 57 1368 l 1,7,-1
 612 1368 l 1,4,-1
646 1512 m 1,8,-1
 629 1440 l 1,9,-1
 57 1440 l 1,10,-1
 57 1512 l 1,11,-1
 646 1512 l 1,8,-1
678 1656 m 1,12,-1
 664 1584 l 1,13,-1
 57 1584 l 1,14,-1
 57 1656 l 1,15,-1
 678 1656 l 1,12,-1
729 1656 m 1,16,-1
 803 1656 l 1,17,-1
 395 0 l 1,18,-1
 321 0 l 1,19,-1
 729 1656 l 1,16,-1
877 1656 m 1,20,-1
 952 1656 l 1,21,-1
 544 0 l 1,22,-1
 469 0 l 1,23,-1
 877 1656 l 1,20,-1
1026 1656 m 1,24,-1
 1100 1656 l 1,25,-1
 692 0 l 1,26,-1
 618 0 l 1,27,-1
 1026 1656 l 1,24,-1
EndSplineSet
EndChar

StartChar: eight
Encoding: 56 56 30
Width: 1656
Flags: W
LayerCount: 2
Fore
SplineSet
707 1080 m 2,0,-1
 974 1080 l 2,1,2
 1095 1080 1095 1080 1206.5 1038.5 c 128,-1,3
 1318 997 1318 997 1403.5 924 c 128,-1,4
 1489 851 1489 851 1540 743 c 128,-1,5
 1591 635 1591 635 1591 510 c 0,6,7
 1591 340 1591 340 1505.5 206 c 128,-1,8
 1420 72 1420 72 1276.5 0 c 128,-1,9
 1133 -72 1133 -72 959 -72 c 2,10,-1
 722 -72 l 2,11,12
 588 -72 588 -72 469 -29.5 c 128,-1,13
 350 13 350 13 261.5 88 c 128,-1,14
 173 163 173 163 121.5 273.5 c 128,-1,15
 70 384 70 384 70 514 c 0,16,17
 70 671 70 671 149 799 c 1,18,-1
 201 745 l 1,19,20
 142 638 142 638 142 514 c 0,21,22
 142 361 142 361 220.5 242.5 c 128,-1,23
 299 124 299 124 430.5 62 c 128,-1,24
 562 0 562 0 722 0 c 2,25,-1
 959 0 l 2,26,27
 1113 0 1113 0 1240 62.5 c 128,-1,28
 1367 125 1367 125 1443 242.5 c 128,-1,29
 1519 360 1519 360 1519 510 c 0,30,31
 1519 620 1519 620 1472 715 c 128,-1,32
 1425 810 1425 810 1348 873 c 128,-1,33
 1271 936 1271 936 1172.5 972 c 128,-1,34
 1074 1008 1074 1008 970 1008 c 2,35,-1
 706 1008 l 2,36,37
 502 1008 502 1008 502 1155 c 0,38,39
 502 1221 502 1221 559 1258.5 c 128,-1,40
 616 1296 616 1296 702 1296 c 2,41,-1
 939 1296 l 2,42,43
 1036 1296 1036 1296 1097.5 1256 c 128,-1,44
 1159 1216 1159 1216 1159 1136 c 0,45,46
 1159 1101 1159 1101 1147 1082 c 1,47,-1
 1080 1096 l 1,48,49
 1087 1106 1087 1106 1087 1136 c 0,50,51
 1087 1224 1087 1224 939 1224 c 2,52,-1
 702 1224 l 2,53,54
 647 1224 647 1224 610.5 1206 c 128,-1,55
 574 1188 574 1188 574 1155 c 0,56,57
 574 1110 574 1110 609 1095 c 128,-1,58
 644 1080 644 1080 707 1080 c 2,0,-1
954 576 m 2,59,-1
 687 576 l 2,60,61
 566 576 566 576 454.5 617.5 c 128,-1,62
 343 659 343 659 257.5 732.5 c 128,-1,63
 172 806 172 806 121 916 c 128,-1,64
 70 1026 70 1026 70 1155 c 0,65,66
 70 1319 70 1319 155.5 1451 c 128,-1,67
 241 1583 241 1583 385 1655.5 c 128,-1,68
 529 1728 529 1728 702 1728 c 2,69,-1
 939 1728 l 2,70,71
 1073 1728 1073 1728 1192.5 1685 c 128,-1,72
 1312 1642 1312 1642 1400 1565.5 c 128,-1,73
 1488 1489 1488 1489 1539.5 1377.5 c 128,-1,74
 1591 1266 1591 1266 1591 1136 c 0,75,76
 1591 979 1591 979 1512 851 c 1,77,-1
 1460 905 l 1,78,79
 1519 1012 1519 1012 1519 1136 c 0,80,81
 1519 1289 1519 1289 1440.5 1409 c 128,-1,82
 1362 1529 1362 1529 1230.5 1592.5 c 128,-1,83
 1099 1656 1099 1656 939 1656 c 2,84,-1
 702 1656 l 2,85,86
 587 1656 587 1656 484.5 1619 c 128,-1,87
 382 1582 382 1582 306.5 1517 c 128,-1,88
 231 1452 231 1452 186.5 1358 c 128,-1,89
 142 1264 142 1264 142 1155 c 0,90,91
 142 1041 142 1041 189 943.5 c 128,-1,92
 236 846 236 846 313 782.5 c 128,-1,93
 390 719 390 719 488.5 683.5 c 128,-1,94
 587 648 587 648 691 648 c 2,95,-1
 955 648 l 2,96,97
 1042 648 1042 648 1100.5 614 c 128,-1,98
 1159 580 1159 580 1159 510 c 0,99,100
 1159 435 1159 435 1103 397.5 c 128,-1,101
 1047 360 1047 360 959 360 c 2,102,-1
 722 360 l 2,103,104
 624 360 624 360 563 397.5 c 128,-1,105
 502 435 502 435 502 514 c 0,106,107
 502 556 502 556 513 576 c 1,108,-1
 582 561 l 1,109,110
 574 547 574 547 574 514 c 0,111,112
 574 467 574 467 613 449.5 c 128,-1,113
 652 432 652 432 722 432 c 2,114,-1
 959 432 l 2,115,116
 1087 432 1087 432 1087 510 c 0,117,118
 1087 576 1087 576 954 576 c 2,59,-1
963 720 m 2,119,-1
 691 720 l 2,120,121
 493 720 493 720 353.5 845 c 128,-1,122
 214 970 214 970 214 1155 c 0,123,124
 214 1343 214 1343 355.5 1463.5 c 128,-1,125
 497 1584 497 1584 702 1584 c 2,126,-1
 939 1584 l 2,127,128
 1079 1584 1079 1584 1194 1530 c 128,-1,129
 1309 1476 1309 1476 1378 1372.5 c 128,-1,130
 1447 1269 1447 1269 1447 1136 c 0,131,132
 1447 1039 1447 1039 1405 955 c 1,133,-1
 1346 991 l 1,134,135
 1375 1060 1375 1060 1375 1136 c 0,136,137
 1375 1307 1375 1307 1250 1409.5 c 128,-1,138
 1125 1512 1125 1512 939 1512 c 2,139,-1
 702 1512 l 2,140,141
 526 1512 526 1512 406 1413 c 128,-1,142
 286 1314 286 1314 286 1155 c 0,143,144
 286 1070 286 1070 319.5 1000.5 c 128,-1,145
 353 931 353 931 409.5 886 c 128,-1,146
 466 841 466 841 539 816.5 c 128,-1,147
 612 792 612 792 693 792 c 2,148,-1
 964 792 l 2,149,150
 1055 792 1055 792 1131.5 759 c 128,-1,151
 1208 726 1208 726 1255.5 660.5 c 128,-1,152
 1303 595 1303 595 1303 510 c 0,153,154
 1303 373 1303 373 1205 294.5 c 128,-1,155
 1107 216 1107 216 959 216 c 2,156,-1
 722 216 l 2,157,158
 565 216 565 216 461.5 294.5 c 128,-1,159
 358 373 358 373 358 514 c 0,160,161
 358 571 358 571 379 624 c 1,162,-1
 446 597 l 1,163,164
 430 561 430 561 430 514 c 0,165,166
 430 405 430 405 512.5 346.5 c 128,-1,167
 595 288 595 288 722 288 c 2,168,-1
 959 288 l 2,169,170
 1077 288 1077 288 1154 346.5 c 128,-1,171
 1231 405 1231 405 1231 510 c 0,172,173
 1231 607 1231 607 1152.5 663.5 c 128,-1,174
 1074 720 1074 720 963 720 c 2,119,-1
968 864 m 2,175,-1
 697 864 l 2,176,177
 555 864 555 864 456.5 942 c 128,-1,178
 358 1020 358 1020 358 1155 c 0,179,180
 358 1284 358 1284 457 1362 c 128,-1,181
 556 1440 556 1440 702 1440 c 2,182,-1
 939 1440 l 2,183,184
 1095 1440 1095 1440 1199 1358.5 c 128,-1,185
 1303 1277 1303 1277 1303 1136 c 0,186,187
 1303 1079 1303 1079 1283 1033 c 1,188,-1
 1216 1060 l 1,189,190
 1231 1090 1231 1090 1231 1136 c 0,191,192
 1231 1246 1231 1246 1148 1307 c 128,-1,193
 1065 1368 1065 1368 939 1368 c 2,194,-1
 702 1368 l 2,195,196
 586 1368 586 1368 508 1310 c 128,-1,197
 430 1252 430 1252 430 1155 c 0,198,199
 430 1049 430 1049 507.5 992.5 c 128,-1,200
 585 936 585 936 698 936 c 2,201,-1
 970 936 l 2,202,203
 1167 936 1167 936 1307 811.5 c 128,-1,204
 1447 687 1447 687 1447 510 c 0,205,206
 1447 380 1447 380 1380.5 279 c 128,-1,207
 1314 178 1314 178 1203.5 125 c 128,-1,208
 1093 72 1093 72 959 72 c 2,209,-1
 722 72 l 2,210,211
 582 72 582 72 467 124.5 c 128,-1,212
 352 177 352 177 283 279 c 128,-1,213
 214 381 214 381 214 514 c 0,214,215
 214 611 214 611 256 695 c 1,216,-1
 315 659 l 1,217,218
 286 590 286 590 286 514 c 0,219,220
 286 400 286 400 345.5 314.5 c 128,-1,221
 405 229 405 229 503 186.5 c 128,-1,222
 601 144 601 144 722 144 c 2,223,-1
 959 144 l 2,224,225
 1136 144 1136 144 1255.5 243.5 c 128,-1,226
 1375 343 1375 343 1375 510 c 0,227,228
 1375 617 1375 617 1317.5 699 c 128,-1,229
 1260 781 1260 781 1168 822.5 c 128,-1,230
 1076 864 1076 864 968 864 c 2,175,-1
EndSplineSet
EndChar

StartChar: nine
Encoding: 57 57 31
Width: 1602
Flags: W
LayerCount: 2
Fore
SplineSet
1099 622 m 2,0,1
 1099 492 1099 492 1009.5 426.5 c 128,-1,2
 920 361 920 361 779 361 c 0,3,4
 594 361 594 361 497 421 c 1,5,-1
 555 465 l 1,6,7
 620 433 620 433 779 433 c 0,8,9
 891 433 891 433 959 477.5 c 128,-1,10
 1027 522 1027 522 1027 622 c 2,11,-1
 1027 1056 l 2,12,13
 1027 1100 1027 1100 1012.5 1131.5 c 128,-1,14
 998 1163 998 1163 975.5 1181 c 128,-1,15
 953 1199 953 1199 915.5 1208.5 c 128,-1,16
 878 1218 878 1218 843.5 1221 c 128,-1,17
 809 1224 809 1224 759 1224 c 0,18,19
 561 1224 561 1224 561 1136 c 0,20,21
 561 1085 561 1085 612.5 1062 c 128,-1,22
 664 1039 664 1039 744 1039 c 0,23,24
 868 1039 868 1039 972 1095 c 1,25,-1
 972 1023 l 1,26,27
 865 972 865 972 743 972 c 0,28,29
 674 972 674 972 619 987 c 128,-1,30
 564 1002 564 1002 526.5 1040 c 128,-1,31
 489 1078 489 1078 489 1136 c 0,32,33
 489 1216 489 1216 564.5 1256 c 128,-1,34
 640 1296 640 1296 759 1296 c 0,35,36
 818 1296 818 1296 866 1289.5 c 128,-1,37
 914 1283 914 1283 958.5 1266.5 c 128,-1,38
 1003 1250 1003 1250 1033 1223.5 c 128,-1,39
 1063 1197 1063 1197 1081 1154.5 c 128,-1,40
 1099 1112 1099 1112 1099 1056 c 2,41,-1
 1099 622 l 2,0,1
1243 622 m 2,42,43
 1243 491 1243 491 1179.5 397.5 c 128,-1,44
 1116 304 1116 304 1013 260.5 c 128,-1,45
 910 217 910 217 779 217 c 0,46,47
 525 217 525 217 385 331 c 1,48,-1
 442 375 l 1,49,50
 561 289 561 289 779 289 c 0,51,52
 950 289 950 289 1060.5 375.5 c 128,-1,53
 1171 462 1171 462 1171 622 c 2,54,-1
 1171 1056 l 2,55,56
 1171 1140 1171 1140 1139.5 1202 c 128,-1,57
 1108 1264 1108 1264 1050 1299.5 c 128,-1,58
 992 1335 992 1335 920 1351.5 c 128,-1,59
 848 1368 848 1368 759 1368 c 0,60,61
 611 1368 611 1368 514 1307 c 128,-1,62
 417 1246 417 1246 417 1136 c 0,63,64
 417 1061 417 1061 463 1006.5 c 128,-1,65
 509 952 509 952 579.5 927.5 c 128,-1,66
 650 903 650 903 735 903 c 0,67,68
 860 903 860 903 972 956 c 1,69,-1
 972 880 l 1,70,71
 855 835 855 835 734 835 c 0,72,73
 572 835 572 835 458.5 915.5 c 128,-1,74
 345 996 345 996 345 1136 c 0,75,76
 345 1277 345 1277 463 1358.5 c 128,-1,77
 581 1440 581 1440 759 1440 c 0,78,79
 861 1440 861 1440 947 1417.5 c 128,-1,80
 1033 1395 1033 1395 1100 1350 c 128,-1,81
 1167 1305 1167 1305 1205 1230 c 128,-1,82
 1243 1155 1243 1155 1243 1056 c 2,83,-1
 1243 622 l 2,42,43
1387 622 m 2,84,85
 1387 492 1387 492 1339 386.5 c 128,-1,86
 1291 281 1291 281 1208 213.5 c 128,-1,87
 1125 146 1125 146 1015 109.5 c 128,-1,88
 905 73 905 73 779 73 c 0,89,90
 625 73 625 73 493 117 c 128,-1,91
 361 161 361 161 272 241 c 1,92,-1
 328 286 l 1,93,94
 408 218 408 218 525.5 181.5 c 128,-1,95
 643 145 643 145 779 145 c 0,96,97
 890 145 890 145 987 176.5 c 128,-1,98
 1084 208 1084 208 1157.5 267 c 128,-1,99
 1231 326 1231 326 1273 417.5 c 128,-1,100
 1315 509 1315 509 1315 622 c 2,101,-1
 1315 1056 l 2,102,103
 1315 1169 1315 1169 1271.5 1257.5 c 128,-1,104
 1228 1346 1228 1346 1151.5 1401 c 128,-1,105
 1075 1456 1075 1456 975.5 1484 c 128,-1,106
 876 1512 876 1512 759 1512 c 0,107,108
 552 1512 552 1512 412.5 1409.5 c 128,-1,109
 273 1307 273 1307 273 1136 c 0,110,111
 273 1048 273 1048 310.5 977 c 128,-1,112
 348 906 348 906 412 860.5 c 128,-1,113
 476 815 476 815 557.5 790.5 c 128,-1,114
 639 766 639 766 730 766 c 0,115,116
 854 766 854 766 972 813 c 1,117,-1
 972 740 l 1,118,119
 849 697 849 697 728 697 c 0,120,121
 584 697 584 697 463.5 753 c 128,-1,122
 343 809 343 809 272 910 c 128,-1,123
 201 1011 201 1011 201 1136 c 0,124,125
 201 1269 201 1269 276.5 1372.5 c 128,-1,126
 352 1476 352 1476 478.5 1530 c 128,-1,127
 605 1584 605 1584 759 1584 c 0,128,129
 890 1584 890 1584 1002.5 1550 c 128,-1,130
 1115 1516 1115 1516 1201.5 1451.5 c 128,-1,131
 1288 1387 1288 1387 1337.5 1285.5 c 128,-1,132
 1387 1184 1387 1184 1387 1056 c 2,133,-1
 1387 622 l 2,84,85
1531 622 m 2,134,135
 1531 464 1531 464 1471.5 332.5 c 128,-1,136
 1412 201 1412 201 1310 113.5 c 128,-1,137
 1208 26 1208 26 1071 -22.5 c 128,-1,138
 934 -71 934 -71 779 -71 c 0,139,140
 592 -71 592 -71 430.5 -12.5 c 128,-1,141
 269 46 269 46 160 151 c 1,142,-1
 218 194 l 1,143,144
 317 102 317 102 463.5 51.5 c 128,-1,145
 610 1 610 1 779 1 c 0,146,147
 920 1 920 1 1043 42.5 c 128,-1,148
 1166 84 1166 84 1259 160.5 c 128,-1,149
 1352 237 1352 237 1405.5 356 c 128,-1,150
 1459 475 1459 475 1459 622 c 2,151,-1
 1459 1056 l 2,152,153
 1459 1170 1459 1170 1423 1267.5 c 128,-1,154
 1387 1365 1387 1365 1323 1436 c 128,-1,155
 1259 1507 1259 1507 1171.5 1557 c 128,-1,156
 1084 1607 1084 1607 979.5 1631.5 c 128,-1,157
 875 1656 875 1656 759 1656 c 0,158,159
 630 1656 630 1656 514.5 1618.5 c 128,-1,160
 399 1581 399 1581 314 1514 c 128,-1,161
 229 1447 229 1447 179 1349 c 128,-1,162
 129 1251 129 1251 129 1136 c 0,163,164
 129 1044 129 1044 162.5 962 c 128,-1,165
 196 880 196 880 253.5 819.5 c 128,-1,166
 311 759 311 759 387 714.5 c 128,-1,167
 463 670 463 670 550.5 647.5 c 128,-1,168
 638 625 638 625 728 625 c 0,169,170
 857 625 857 625 972 670 c 1,171,-1
 972 596 l 1,172,173
 852 557 852 557 724 557 c 0,174,175
 593 557 593 557 472.5 598.5 c 128,-1,176
 352 640 352 640 260 713.5 c 128,-1,177
 168 787 168 787 112.5 897 c 128,-1,178
 57 1007 57 1007 57 1136 c 0,179,180
 57 1266 57 1266 112.5 1377.5 c 128,-1,181
 168 1489 168 1489 263 1565.5 c 128,-1,182
 358 1642 358 1642 486.5 1685 c 128,-1,183
 615 1728 615 1728 759 1728 c 0,184,185
 920 1728 920 1728 1059.5 1683 c 128,-1,186
 1199 1638 1199 1638 1304.5 1554 c 128,-1,187
 1410 1470 1410 1470 1470.5 1341.5 c 128,-1,188
 1531 1213 1531 1213 1531 1056 c 2,189,-1
 1531 622 l 2,134,135
EndSplineSet
EndChar

StartChar: colon
Encoding: 58 58 32
Width: 538
Flags: W
LayerCount: 2
Fore
SplineSet
90 576 m 1,0,-1
 90 648 l 1,1,-1
 450 648 l 1,2,-1
 450 576 l 1,3,-1
 90 576 l 1,0,-1
90 432 m 1,4,-1
 90 504 l 1,5,-1
 450 504 l 1,6,-1
 450 432 l 1,7,-1
 90 432 l 1,4,-1
90 288 m 1,8,-1
 90 360 l 1,9,-1
 450 360 l 1,10,-1
 450 288 l 1,11,-1
 90 288 l 1,8,-1
90 1152 m 1,12,-1
 90 1224 l 1,13,-1
 450 1224 l 1,14,-1
 450 1152 l 1,15,-1
 90 1152 l 1,12,-1
90 1008 m 1,16,-1
 90 1080 l 1,17,-1
 450 1080 l 1,18,-1
 450 1008 l 1,19,-1
 90 1008 l 1,16,-1
90 864 m 1,20,-1
 90 936 l 1,21,-1
 450 936 l 1,22,-1
 450 864 l 1,23,-1
 90 864 l 1,20,-1
EndSplineSet
EndChar

StartChar: semicolon
Encoding: 59 59 33
Width: 536
Flags: W
LayerCount: 2
Fore
SplineSet
90 360 m 1,0,-1
 90 648 l 1,1,-1
 162 648 l 1,2,-1
 162 360 l 1,3,-1
 90 360 l 1,0,-1
90 144 m 1,4,-1
 90 216 l 1,5,6
 132 216 132 216 160.5 225 c 128,-1,7
 189 234 189 234 203 245 c 128,-1,8
 217 256 217 256 224.5 279 c 128,-1,9
 232 302 232 302 233 316.5 c 128,-1,10
 234 331 234 331 234 360 c 2,11,-1
 234 648 l 1,12,-1
 306 648 l 1,13,-1
 306 360 l 2,14,15
 306 338 306 338 305.5 325 c 128,-1,16
 305 312 305 312 301 286.5 c 128,-1,17
 297 261 297 261 289 244.5 c 128,-1,18
 281 228 281 228 265.5 207 c 128,-1,19
 250 186 250 186 227.5 173.5 c 128,-1,20
 205 161 205 161 170 152.5 c 128,-1,21
 135 144 135 144 90 144 c 1,4,-1
90 0 m 1,22,-1
 90 72 l 1,23,24
 137 72 137 72 175.5 77.5 c 128,-1,25
 214 83 214 83 242 91 c 128,-1,26
 270 99 270 99 292 115 c 128,-1,27
 314 131 314 131 328 144.5 c 128,-1,28
 342 158 342 158 352 181.5 c 128,-1,29
 362 205 362 205 367 221 c 128,-1,30
 372 237 372 237 374.5 266 c 128,-1,31
 377 295 377 295 377.5 311.5 c 128,-1,32
 378 328 378 328 378 360 c 2,33,-1
 378 648 l 1,34,-1
 450 648 l 1,35,-1
 450 360 l 2,36,37
 450 328 450 328 449.5 309.5 c 128,-1,38
 449 291 449 291 445.5 257 c 128,-1,39
 442 223 442 223 436 202 c 128,-1,40
 430 181 430 181 417.5 151 c 128,-1,41
 405 121 405 121 387.5 102 c 128,-1,42
 370 83 370 83 342.5 61.5 c 128,-1,43
 315 40 315 40 280 28 c 128,-1,44
 245 16 245 16 196.5 8 c 128,-1,45
 148 0 148 0 90 0 c 1,22,-1
90 1152 m 1,46,-1
 90 1224 l 1,47,-1
 450 1224 l 1,48,-1
 450 1152 l 1,49,-1
 90 1152 l 1,46,-1
90 1008 m 1,50,-1
 90 1080 l 1,51,-1
 450 1080 l 1,52,-1
 450 1008 l 1,53,-1
 90 1008 l 1,50,-1
90 864 m 1,54,-1
 90 936 l 1,55,-1
 450 936 l 1,56,-1
 450 864 l 1,57,-1
 90 864 l 1,54,-1
EndSplineSet
EndChar

StartChar: less
Encoding: 60 60 34
Width: 1373
Flags: W
LayerCount: 2
Fore
SplineSet
1296 613 m 1,0,-1
 1296 536 l 1,1,-1
 728 760 l 1,2,-1
 829 798 l 1,3,-1
 1296 613 l 1,0,-1
1296 459 m 1,4,-1
 1296 381 l 1,5,-1
 530 684 l 1,6,-1
 629 722 l 1,7,-1
 1296 459 l 1,4,-1
1296 303 m 1,8,-1
 1296 226 l 1,9,-1
 340 604 l 1,10,-1
 432 645 l 1,11,-1
 1296 303 l 1,8,-1
1296 1428 m 1,12,-1
 1296 1351 l 1,13,-1
 72 866 l 1,14,-1
 72 943 l 1,15,-1
 1296 1428 l 1,12,-1
1296 1583 m 1,16,-1
 1296 1505 l 1,17,-1
 72 1021 l 1,18,-1
 72 1098 l 1,19,-1
 1296 1583 l 1,16,-1
1296 1273 m 1,20,-1
 1296 1195 l 1,21,-1
 72 711 l 1,22,-1
 72 788 l 1,23,-1
 1296 1273 l 1,20,-1
1296 1118 m 1,24,-1
 1296 1041 l 1,25,-1
 169 595 l 1,26,-1
 1296 149 l 1,27,-1
 1296 72 l 1,28,-1
 72 556 l 1,29,-1
 72 634 l 1,30,-1
 1296 1118 l 1,24,-1
EndSplineSet
EndChar

StartChar: equal
Encoding: 61 61 35
Width: 970
Flags: W
LayerCount: 2
Fore
SplineSet
90 577 m 1,0,-1
 90 649 l 1,1,-1
 882 649 l 1,2,-1
 882 577 l 1,3,-1
 90 577 l 1,0,-1
90 433 m 1,4,-1
 90 505 l 1,5,-1
 882 505 l 1,6,-1
 882 433 l 1,7,-1
 90 433 l 1,4,-1
90 289 m 1,8,-1
 90 361 l 1,9,-1
 882 361 l 1,10,-1
 882 289 l 1,11,-1
 90 289 l 1,8,-1
90 1153 m 1,12,-1
 90 1225 l 1,13,-1
 882 1225 l 1,14,-1
 882 1153 l 1,15,-1
 90 1153 l 1,12,-1
90 1009 m 1,16,-1
 90 1081 l 1,17,-1
 882 1081 l 1,18,-1
 882 1009 l 1,19,-1
 90 1009 l 1,16,-1
90 865 m 1,20,-1
 90 937 l 1,21,-1
 882 937 l 1,22,-1
 882 865 l 1,23,-1
 90 865 l 1,20,-1
EndSplineSet
EndChar

StartChar: greater
Encoding: 62 62 36
Width: 1373
Flags: W
LayerCount: 2
Fore
SplineSet
80 537 m 1,0,-1
 80 614 l 1,1,-1
 1207 1060 l 1,2,-1
 80 1506 l 1,3,-1
 80 1583 l 1,4,-1
 1304 1099 l 1,5,-1
 1304 1021 l 1,6,-1
 80 537 l 1,0,-1
80 382 m 1,7,-1
 80 460 l 1,8,-1
 1304 944 l 1,9,-1
 1304 867 l 1,10,-1
 80 382 l 1,7,-1
80 72 m 1,11,-1
 80 150 l 1,12,-1
 1304 634 l 1,13,-1
 1304 557 l 1,14,-1
 80 72 l 1,11,-1
80 227 m 1,15,-1
 80 304 l 1,16,-1
 1304 789 l 1,17,-1
 1304 712 l 1,18,-1
 80 227 l 1,15,-1
80 1352 m 1,19,-1
 80 1429 l 1,20,-1
 1036 1051 l 1,21,-1
 944 1010 l 1,22,-1
 80 1352 l 1,19,-1
80 1196 m 1,23,-1
 80 1274 l 1,24,-1
 846 971 l 1,25,-1
 747 933 l 1,26,-1
 80 1196 l 1,23,-1
80 1042 m 1,27,-1
 80 1119 l 1,28,-1
 648 895 l 1,29,-1
 547 857 l 1,30,-1
 80 1042 l 1,27,-1
EndSplineSet
EndChar

StartChar: question
Encoding: 63 63 37
Width: 1421
Flags: W
LayerCount: 2
Fore
SplineSet
660 1656 m 0,0,1
 491 1656 491 1656 344.5 1605.5 c 128,-1,2
 198 1555 198 1555 99 1463 c 1,3,-1
 41 1506 l 1,4,5
 150 1611 150 1611 311.5 1669.5 c 128,-1,6
 473 1728 473 1728 660 1728 c 0,7,8
 804 1728 804 1728 932.5 1685 c 128,-1,9
 1061 1642 1061 1642 1156 1565.5 c 128,-1,10
 1251 1489 1251 1489 1306.5 1377.5 c 128,-1,11
 1362 1266 1362 1266 1362 1136 c 0,12,13
 1362 1007 1362 1007 1314.5 897 c 128,-1,14
 1267 787 1267 787 1187 713.5 c 128,-1,15
 1107 640 1107 640 1003 598.5 c 128,-1,16
 899 557 899 557 785 557 c 0,17,18
 773 557 773 557 740.5 558 c 128,-1,19
 708 559 708 559 679 559 c 128,-1,20
 650 559 650 559 630 557 c 1,21,-1
 630 625 l 1,22,-1
 781 625 l 2,23,24
 877 625 877 625 968.5 661 c 128,-1,25
 1060 697 1060 697 1131.5 761.5 c 128,-1,26
 1203 826 1203 826 1246.5 924 c 128,-1,27
 1290 1022 1290 1022 1290 1136 c 0,28,29
 1290 1251 1290 1251 1240 1349 c 128,-1,30
 1190 1447 1190 1447 1105 1514 c 128,-1,31
 1020 1581 1020 1581 904.5 1618.5 c 128,-1,32
 789 1656 789 1656 660 1656 c 0,0,1
660 1512 m 0,33,34
 524 1512 524 1512 406.5 1475.5 c 128,-1,35
 289 1439 289 1439 209 1371 c 1,36,-1
 153 1416 l 1,37,38
 242 1496 242 1496 374 1540 c 128,-1,39
 506 1584 506 1584 660 1584 c 128,-1,40
 814 1584 814 1584 940.5 1530 c 128,-1,41
 1067 1476 1067 1476 1142.5 1372.5 c 128,-1,42
 1218 1269 1218 1269 1218 1136 c 0,43,44
 1218 1011 1218 1011 1156.5 910 c 128,-1,45
 1095 809 1095 809 990.5 753 c 128,-1,46
 886 697 886 697 761 697 c 0,47,48
 697 697 697 697 630 690 c 1,49,-1
 630 763 l 1,50,51
 699 766 699 766 759 766 c 0,52,53
 863 766 863 766 949.5 807 c 128,-1,54
 1036 848 1036 848 1091 934 c 128,-1,55
 1146 1020 1146 1020 1146 1136 c 0,56,57
 1146 1307 1146 1307 1006.5 1409.5 c 128,-1,58
 867 1512 867 1512 660 1512 c 0,33,34
660 1368 m 0,59,60
 442 1368 442 1368 323 1282 c 1,61,-1
 266 1326 l 1,62,63
 406 1440 406 1440 660 1440 c 0,64,65
 838 1440 838 1440 956 1358.5 c 128,-1,66
 1074 1277 1074 1277 1074 1136 c 0,67,68
 1074 996 1074 996 978.5 915.5 c 128,-1,69
 883 835 883 835 745 835 c 0,70,71
 700 835 700 835 630 830 c 1,72,-1
 630 906 l 1,73,74
 687 903 687 903 744 903 c 0,75,76
 852 903 852 903 927 963.5 c 128,-1,77
 1002 1024 1002 1024 1002 1136 c 0,78,79
 1002 1246 1002 1246 905 1307 c 128,-1,80
 808 1368 808 1368 660 1368 c 0,59,60
660 1224 m 0,81,82
 501 1224 501 1224 436 1192 c 1,83,-1
 378 1236 l 1,84,85
 475 1296 475 1296 660 1296 c 0,86,87
 779 1296 779 1296 854.5 1256 c 128,-1,88
 930 1216 930 1216 930 1136 c 0,89,90
 930 1051 930 1051 872 1011.5 c 128,-1,91
 814 972 814 972 726 972 c 0,92,93
 660 972 660 972 630 973 c 1,94,-1
 630 1045 l 1,95,96
 664 1039 664 1039 725 1039 c 0,97,98
 784 1039 784 1039 821 1062 c 128,-1,99
 858 1085 858 1085 858 1136 c 0,100,101
 858 1224 858 1224 660 1224 c 0,81,82
621 73 m 1,102,-1
 621 1 l 1,103,-1
 182 1 l 1,104,-1
 182 73 l 1,105,-1
 621 73 l 1,102,-1
621 217 m 1,106,-1
 621 145 l 1,107,-1
 182 145 l 1,108,-1
 182 217 l 1,109,-1
 621 217 l 1,106,-1
621 361 m 1,110,-1
 621 289 l 1,111,-1
 182 289 l 1,112,-1
 182 361 l 1,113,-1
 621 361 l 1,110,-1
294 432 m 1,114,-1
 222 432 l 1,115,-1
 222 1039 l 1,116,-1
 294 1039 l 1,117,-1
 294 432 l 1,114,-1
438 432 m 1,118,-1
 366 432 l 1,119,-1
 366 1039 l 1,120,-1
 438 1039 l 1,121,-1
 438 432 l 1,118,-1
582 432 m 1,122,-1
 510 432 l 1,123,-1
 510 1039 l 1,124,-1
 582 1039 l 1,125,-1
 582 432 l 1,122,-1
EndSplineSet
EndChar

StartChar: at
Encoding: 64 64 38
Width: 2204
Flags: W
LayerCount: 2
Fore
SplineSet
1335 227 m 1,0,-1
 1341 157 l 1,1,2
 1194 144 1194 144 1027 144 c 0,3,4
 891 144 891 144 768 197 c 128,-1,5
 645 250 645 250 555.5 340 c 128,-1,6
 466 430 466 430 413.5 555.5 c 128,-1,7
 361 681 361 681 361 820 c 0,8,9
 361 962 361 962 419 1090 c 128,-1,10
 477 1218 477 1218 575.5 1310.5 c 128,-1,11
 674 1403 674 1403 810.5 1457.5 c 128,-1,12
 947 1512 947 1512 1097 1512 c 0,13,14
 1249 1512 1249 1512 1388.5 1459.5 c 128,-1,15
 1528 1407 1528 1407 1629.5 1318.5 c 128,-1,16
 1731 1230 1731 1230 1792 1107.5 c 128,-1,17
 1853 985 1853 985 1853 850 c 2,18,-1
 1853 633 l 2,19,20
 1853 562 1853 562 1810 522.5 c 128,-1,21
 1767 483 1767 483 1702 483 c 0,22,23
 1634 483 1634 483 1589 517.5 c 128,-1,24
 1544 552 1544 552 1544 613 c 2,25,-1
 1544 855 l 2,26,27
 1544 1026 1544 1026 1417.5 1125 c 128,-1,28
 1291 1224 1291 1224 1092 1224 c 0,29,30
 1001 1224 1001 1224 920 1190.5 c 128,-1,31
 839 1157 839 1157 782.5 1100 c 128,-1,32
 726 1043 726 1043 693 966 c 128,-1,33
 660 889 660 889 660 805 c 0,34,35
 660 631 660 631 782 521.5 c 128,-1,36
 904 412 904 412 1089 412 c 1,37,-1
 1215 415 l 1,38,-1
 1215 349 l 1,39,40
 1149 346 1149 346 1088 346 c 0,41,42
 955 346 955 346 842.5 400 c 128,-1,43
 730 454 730 454 659 560.5 c 128,-1,44
 588 667 588 667 588 805 c 0,45,46
 588 1013 588 1013 732.5 1154.5 c 128,-1,47
 877 1296 877 1296 1092 1296 c 0,48,49
 1242 1296 1242 1296 1360.5 1243 c 128,-1,50
 1479 1190 1479 1190 1547.5 1089 c 128,-1,51
 1616 988 1616 988 1616 855 c 2,52,-1
 1616 613 l 2,53,54
 1616 586 1616 586 1640.5 570.5 c 128,-1,55
 1665 555 1665 555 1702 555 c 0,56,57
 1736 555 1736 555 1758.5 576 c 128,-1,58
 1781 597 1781 597 1781 633 c 2,59,-1
 1781 850 l 2,60,61
 1781 1011 1781 1011 1690 1146.5 c 128,-1,62
 1599 1282 1599 1282 1441.5 1361 c 128,-1,63
 1284 1440 1284 1440 1097 1440 c 0,64,65
 918 1440 918 1440 765.5 1357.5 c 128,-1,66
 613 1275 613 1275 523 1132 c 128,-1,67
 433 989 433 989 433 820 c 0,68,69
 433 700 433 700 480.5 588.5 c 128,-1,70
 528 477 528 477 607.5 395.5 c 128,-1,71
 687 314 687 314 797.5 265 c 128,-1,72
 908 216 908 216 1027 216 c 0,73,74
 1235 216 1235 216 1335 227 c 1,0,-1
1351 86 m 1,75,-1
 1357 15 l 1,76,77
 1220 1 1220 1 1027 1 c 0,78,79
 862 1 862 1 712 65.5 c 128,-1,80
 562 130 562 130 453.5 239 c 128,-1,81
 345 348 345 348 281 500 c 128,-1,82
 217 652 217 652 217 820 c 0,83,84
 217 990 217 990 286.5 1144.5 c 128,-1,85
 356 1299 356 1299 474 1411 c 128,-1,86
 592 1523 592 1523 755 1589.5 c 128,-1,87
 918 1656 918 1656 1097 1656 c 0,88,89
 1338 1656 1338 1656 1545.5 1548 c 128,-1,90
 1753 1440 1753 1440 1875 1254 c 128,-1,91
 1997 1068 1997 1068 1997 850 c 2,92,-1
 1997 633 l 2,93,94
 1997 500 1997 500 1912 419.5 c 128,-1,95
 1827 339 1827 339 1702 339 c 0,96,97
 1574 339 1574 339 1487 416.5 c 128,-1,98
 1400 494 1400 494 1400 623 c 2,99,-1
 1400 855 l 2,100,101
 1400 962 1400 962 1315.5 1021 c 128,-1,102
 1231 1080 1231 1080 1092 1080 c 0,103,104
 975 1080 975 1080 889.5 1000.5 c 128,-1,105
 804 921 804 921 804 805 c 0,106,107
 804 683 804 683 887.5 613.5 c 128,-1,108
 971 544 971 544 1106 544 c 1,109,-1
 1215 547 l 1,110,-1
 1215 482 l 1,111,112
 1156 481 1156 481 1100 481 c 0,113,114
 945 481 945 481 838.5 565.5 c 128,-1,115
 732 650 732 650 732 805 c 0,116,117
 732 948 732 948 835 1050 c 128,-1,118
 938 1152 938 1152 1092 1152 c 0,119,120
 1263 1152 1263 1152 1367.5 1074 c 128,-1,121
 1472 996 1472 996 1472 855 c 2,122,-1
 1472 613 l 2,123,124
 1472 519 1472 519 1537.5 465 c 128,-1,125
 1603 411 1603 411 1702 411 c 0,126,127
 1798 411 1798 411 1861.5 470.5 c 128,-1,128
 1925 530 1925 530 1925 633 c 2,129,-1
 1925 850 l 2,130,131
 1925 999 1925 999 1860 1135 c 128,-1,132
 1795 1271 1795 1271 1684 1369.5 c 128,-1,133
 1573 1468 1573 1468 1419.5 1526 c 128,-1,134
 1266 1584 1266 1584 1097 1584 c 0,135,136
 934 1584 934 1584 785 1523.5 c 128,-1,137
 636 1463 636 1463 527 1361.5 c 128,-1,138
 418 1260 418 1260 353.5 1118 c 128,-1,139
 289 976 289 976 289 820 c 0,140,141
 289 620 289 620 388.5 448 c 128,-1,142
 488 276 488 276 658.5 174.5 c 128,-1,143
 829 73 829 73 1027 73 c 0,144,145
 1198 73 1198 73 1351 86 c 1,75,-1
1368 -56 m 1,146,-1
 1376 -128 l 1,147,148
 1222 -143 1222 -143 1021 -143 c 0,149,150
 823 -143 823 -143 645 -68.5 c 128,-1,151
 467 6 467 6 339 133 c 128,-1,152
 211 260 211 260 136 436.5 c 128,-1,153
 61 613 61 613 61 810 c 0,154,155
 61 1008 61 1008 141.5 1190 c 128,-1,156
 222 1372 222 1372 359 1506 c 128,-1,157
 496 1640 496 1640 687.5 1720 c 128,-1,158
 879 1800 879 1800 1091 1800 c 0,159,160
 1230 1800 1230 1800 1364.5 1765 c 128,-1,161
 1499 1730 1499 1730 1614.5 1668 c 128,-1,162
 1730 1606 1730 1606 1828 1517.5 c 128,-1,163
 1926 1429 1926 1429 1994.5 1325 c 128,-1,164
 2063 1221 2063 1221 2102 1099 c 128,-1,165
 2141 977 2141 977 2141 850 c 2,166,-1
 2141 633 l 2,167,168
 2141 433 2141 433 2017.5 312 c 128,-1,169
 1894 191 1894 191 1706 191 c 0,170,171
 1514 191 1514 191 1386.5 306.5 c 128,-1,172
 1259 422 1259 422 1259 613 c 2,173,-1
 1259 855 l 2,174,175
 1259 894 1259 894 1215 915 c 128,-1,176
 1171 936 1171 936 1096 936 c 0,177,178
 1039 936 1039 936 993.5 895 c 128,-1,179
 948 854 948 854 948 805 c 0,180,181
 948 746 948 746 987 710 c 128,-1,182
 1026 674 1026 674 1080 674 c 2,183,-1
 1215 676 l 1,184,-1
 1215 612 l 1,185,186
 1145 611 1145 611 1094 611 c 0,187,188
 1004 611 1004 611 940 663.5 c 128,-1,189
 876 716 876 716 876 805 c 0,190,191
 876 886 876 886 940 947 c 128,-1,192
 1004 1008 1004 1008 1096 1008 c 0,193,194
 1200 1008 1200 1008 1265.5 966.5 c 128,-1,195
 1331 925 1331 925 1331 855 c 2,196,-1
 1331 613 l 2,197,198
 1331 452 1331 452 1437.5 357.5 c 128,-1,199
 1544 263 1544 263 1706 263 c 0,200,201
 1865 263 1865 263 1967 363 c 128,-1,202
 2069 463 2069 463 2069 633 c 2,203,-1
 2069 850 l 2,204,205
 2069 1026 2069 1026 1993 1187.5 c 128,-1,206
 1917 1349 1917 1349 1787 1467.5 c 128,-1,207
 1657 1586 1657 1586 1475 1657 c 128,-1,208
 1293 1728 1293 1728 1091 1728 c 0,209,210
 900 1728 900 1728 724 1656 c 128,-1,211
 548 1584 548 1584 418 1462.5 c 128,-1,212
 288 1341 288 1341 210.5 1170 c 128,-1,213
 133 999 133 999 133 810 c 0,214,215
 133 637 133 637 205 474.5 c 128,-1,216
 277 312 277 312 397 192.5 c 128,-1,217
 517 73 517 73 681 1 c 128,-1,218
 845 -71 845 -71 1021 -71 c 0,219,220
 1181 -71 1181 -71 1368 -56 c 1,146,-1
EndSplineSet
EndChar

StartChar: A
Encoding: 65 65 39
Width: 1918
Flags: W
LayerCount: 2
Fore
SplineSet
808 486 m 1,0,-1
 837 558 l 1,1,-1
 1083 558 l 1,2,-1
 1112 486 l 1,3,-1
 808 486 l 1,0,-1
752 342 m 1,4,-1
 780 414 l 1,5,-1
 1139 414 l 1,6,-1
 1170 342 l 1,7,-1
 752 342 l 1,4,-1
696 198 m 1,8,-1
 724 270 l 1,9,-1
 1196 270 l 1,10,-1
 1226 198 l 1,11,-1
 696 198 l 1,8,-1
111 0 m 1,12,-1
 33 0 l 1,13,-1
 688 1656 l 1,14,-1
 766 1656 l 1,15,-1
 1420 0 l 1,16,-1
 1343 0 l 1,17,-1
 727 1559 l 1,18,-1
 111 0 l 1,12,-1
736 1388 m 1,19,-1
 777 1296 l 1,20,-1
 265 0 l 1,21,-1
 188 0 l 1,22,-1
 736 1388 l 1,19,-1
816 1198 m 1,23,-1
 854 1099 l 1,24,-1
 421 0 l 1,25,-1
 343 0 l 1,26,-1
 816 1198 l 1,23,-1
892 1000 m 1,27,-1
 930 899 l 1,28,-1
 575 0 l 1,29,-1
 498 0 l 1,30,-1
 892 1000 l 1,27,-1
1885 0 m 1,31,-1
 1807 0 l 1,32,-1
 1153 1656 l 1,33,-1
 1230 1656 l 1,34,-1
 1885 0 l 1,31,-1
1075 1656 m 1,35,-1
 1730 0 l 1,36,-1
 1653 0 l 1,37,-1
 998 1656 l 1,38,-1
 1075 1656 l 1,35,-1
920 1656 m 1,39,-1
 1575 0 l 1,40,-1
 1497 0 l 1,41,-1
 843 1656 l 1,42,-1
 920 1656 l 1,39,-1
EndSplineSet
EndChar

StartChar: B
Encoding: 66 66 40
Width: 1766
Flags: W
LayerCount: 2
Fore
SplineSet
1193 577 m 0,0,1
 1193 616 1193 616 1169.5 629 c 128,-1,2
 1146 642 1146 642 1101 642 c 2,3,-1
 637 642 l 1,4,-1
 637 714 l 1,5,-1
 1101 714 l 2,6,7
 1265 714 1265 714 1265 577 c 0,8,9
 1265 500 1265 500 1220 466 c 128,-1,10
 1175 432 1175 432 1101 432 c 2,11,-1
 637 432 l 1,12,-1
 637 504 l 1,13,-1
 1101 504 l 2,14,15
 1193 504 1193 504 1193 577 c 0,0,1
597 0 m 1,16,-1
 525 0 l 1,17,-1
 525 1224 l 1,18,-1
 1101 1224 l 2,19,20
 1169 1224 1169 1224 1217 1182.5 c 128,-1,21
 1265 1141 1265 1141 1265 1079 c 0,22,23
 1265 997 1265 997 1220 960.5 c 128,-1,24
 1175 924 1175 924 1101 924 c 2,25,-1
 637 924 l 1,26,-1
 637 996 l 1,27,-1
 1101 996 l 2,28,29
 1193 996 1193 996 1193 1079 c 0,30,31
 1193 1113 1193 1113 1167 1132.5 c 128,-1,32
 1141 1152 1141 1152 1101 1152 c 2,33,-1
 597 1152 l 1,34,-1
 597 0 l 1,16,-1
637 852 m 1,35,-1
 1101 852 l 2,36,37
 1200 852 1200 852 1268.5 911.5 c 128,-1,38
 1337 971 1337 971 1337 1079 c 0,39,40
 1337 1166 1337 1166 1265.5 1231 c 128,-1,41
 1194 1296 1194 1296 1101 1296 c 2,42,-1
 453 1296 l 1,43,-1
 453 0 l 1,44,-1
 381 0 l 1,45,-1
 381 1368 l 1,46,-1
 1101 1368 l 2,47,48
 1224 1368 1224 1368 1316.5 1281.5 c 128,-1,49
 1409 1195 1409 1195 1409 1079 c 0,50,51
 1409 988 1409 988 1366.5 920 c 128,-1,52
 1324 852 1324 852 1252 815 c 1,53,54
 1409 759 1409 759 1409 587 c 0,55,56
 1409 451 1409 451 1319 369.5 c 128,-1,57
 1229 288 1229 288 1101 288 c 2,58,-1
 637 288 l 1,59,-1
 637 360 l 1,60,-1
 1101 360 l 2,61,62
 1200 360 1200 360 1268.5 419.5 c 128,-1,63
 1337 479 1337 479 1337 587 c 0,64,65
 1337 660 1337 660 1285 716 c 128,-1,66
 1233 772 1233 772 1132 781 c 1,67,68
 1122 780 1122 780 1101 780 c 2,69,-1
 637 780 l 1,70,-1
 637 852 l 1,35,-1
1553 1079 m 0,71,72
 1553 939 1553 939 1454 826 c 1,73,74
 1553 716 1553 716 1553 587 c 0,75,76
 1553 462 1553 462 1490.5 359.5 c 128,-1,77
 1428 257 1428 257 1324.5 200.5 c 128,-1,78
 1221 144 1221 144 1101 144 c 2,79,-1
 637 144 l 1,80,-1
 637 216 l 1,81,-1
 1101 216 l 2,82,83
 1257 216 1257 216 1369 320.5 c 128,-1,84
 1481 425 1481 425 1481 587 c 0,85,86
 1481 645 1481 645 1451.5 715.5 c 128,-1,87
 1422 786 1422 786 1370 823 c 1,88,89
 1481 927 1481 927 1481 1079 c 0,90,91
 1481 1225 1481 1225 1367 1332.5 c 128,-1,92
 1253 1440 1253 1440 1101 1440 c 2,93,-1
 309 1440 l 1,94,-1
 309 0 l 1,95,-1
 237 0 l 1,96,-1
 237 1512 l 1,97,-1
 1101 1512 l 2,98,99
 1220 1512 1220 1512 1324.5 1453.5 c 128,-1,100
 1429 1395 1429 1395 1491 1294.5 c 128,-1,101
 1553 1194 1553 1194 1553 1079 c 0,71,72
1536 822 m 1,102,103
 1625 941 1625 941 1625 1079 c 0,104,105
 1625 1214 1625 1214 1553.5 1330.5 c 128,-1,106
 1482 1447 1482 1447 1361 1515.5 c 128,-1,107
 1240 1584 1240 1584 1101 1584 c 2,108,-1
 165 1584 l 1,109,-1
 165 0 l 1,110,-1
 93 0 l 1,111,-1
 93 1656 l 1,112,-1
 1101 1656 l 2,113,114
 1259 1656 1259 1656 1396.5 1578 c 128,-1,115
 1534 1500 1534 1500 1615.5 1366.5 c 128,-1,116
 1697 1233 1697 1233 1697 1079 c 0,117,118
 1697 932 1697 932 1614 821 c 1,119,120
 1697 706 1697 706 1697 587 c 0,121,122
 1697 453 1697 453 1649 341.5 c 128,-1,123
 1601 230 1601 230 1519.5 156 c 128,-1,124
 1438 82 1438 82 1330 41 c 128,-1,125
 1222 0 1222 0 1101 0 c 2,126,-1
 637 0 l 1,127,-1
 637 72 l 1,128,-1
 1101 72 l 2,129,130
 1206 72 1206 72 1302 111.5 c 128,-1,131
 1398 151 1398 151 1469 219 c 128,-1,132
 1540 287 1540 287 1582.5 383 c 128,-1,133
 1625 479 1625 479 1625 587 c 0,134,135
 1625 635 1625 635 1602.5 702.5 c 128,-1,136
 1580 770 1580 770 1536 822 c 1,102,103
EndSplineSet
EndChar

StartChar: C
Encoding: 67 67 41
Width: 1745
Flags: W
LayerCount: 2
Fore
SplineSet
1343 1090 m 1,0,-1
 1284 1051 l 1,1,2
 1230 1131 1230 1131 1143.5 1177.5 c 128,-1,3
 1057 1224 1057 1224 956 1224 c 0,4,5
 792 1224 792 1224 676 1108 c 128,-1,6
 560 992 560 992 560 828 c 128,-1,7
 560 664 560 664 676 548 c 128,-1,8
 792 432 792 432 956 432 c 0,9,10
 1057 432 1057 432 1143.5 479 c 128,-1,11
 1230 526 1230 526 1284 606 c 1,12,-1
 1342 564 l 1,13,14
 1278 470 1278 470 1176 415 c 128,-1,15
 1074 360 1074 360 956 360 c 0,16,17
 861 360 861 360 774.5 397 c 128,-1,18
 688 434 688 434 625 497 c 128,-1,19
 562 560 562 560 525 646.5 c 128,-1,20
 488 733 488 733 488 828 c 128,-1,21
 488 923 488 923 525 1009.5 c 128,-1,22
 562 1096 562 1096 625 1159 c 128,-1,23
 688 1222 688 1222 774.5 1259 c 128,-1,24
 861 1296 861 1296 956 1296 c 0,25,26
 1075 1296 1075 1296 1177 1240.5 c 128,-1,27
 1279 1185 1279 1185 1343 1090 c 1,0,-1
1462 1172 m 1,28,-1
 1402 1133 l 1,29,30
 1328 1241 1328 1241 1210.5 1304.5 c 128,-1,31
 1093 1368 1093 1368 956 1368 c 0,32,33
 809 1368 809 1368 685 1295.5 c 128,-1,34
 561 1223 561 1223 488.5 1099 c 128,-1,35
 416 975 416 975 416 828 c 128,-1,36
 416 681 416 681 488.5 557 c 128,-1,37
 561 433 561 433 685 360.5 c 128,-1,38
 809 288 809 288 956 288 c 0,39,40
 1093 288 1093 288 1211 352 c 128,-1,41
 1329 416 1329 416 1403 525 c 1,42,-1
 1462 484 l 1,43,44
 1378 360 1378 360 1244.5 288 c 128,-1,45
 1111 216 1111 216 956 216 c 0,46,47
 790 216 790 216 649 298 c 128,-1,48
 508 380 508 380 426 521 c 128,-1,49
 344 662 344 662 344 828 c 128,-1,50
 344 994 344 994 426 1135 c 128,-1,51
 508 1276 508 1276 649 1358 c 128,-1,52
 790 1440 790 1440 956 1440 c 0,53,54
 1111 1440 1111 1440 1244.5 1368 c 128,-1,55
 1378 1296 1378 1296 1462 1172 c 1,28,-1
1582 1252 m 1,56,-1
 1522 1213 l 1,57,58
 1428 1351 1428 1351 1278.5 1431.5 c 128,-1,59
 1129 1512 1129 1512 956 1512 c 0,60,61
 817 1512 817 1512 690 1458 c 128,-1,62
 563 1404 563 1404 471.5 1312.5 c 128,-1,63
 380 1221 380 1221 326 1094 c 128,-1,64
 272 967 272 967 272 828 c 128,-1,65
 272 689 272 689 326 562 c 128,-1,66
 380 435 380 435 471.5 343.5 c 128,-1,67
 563 252 563 252 690 198 c 128,-1,68
 817 144 817 144 956 144 c 0,69,70
 1130 144 1130 144 1279 225 c 128,-1,71
 1428 306 1428 306 1522 444 c 1,72,-1
 1580 401 l 1,73,74
 1476 249 1476 249 1311.5 160.5 c 128,-1,75
 1147 72 1147 72 956 72 c 0,76,77
 751 72 751 72 577 173.5 c 128,-1,78
 403 275 403 275 301.5 449 c 128,-1,79
 200 623 200 623 200 828 c 128,-1,80
 200 1033 200 1033 301.5 1207 c 128,-1,81
 403 1381 403 1381 577 1482.5 c 128,-1,82
 751 1584 751 1584 956 1584 c 0,83,84
 1148 1584 1148 1584 1313 1494.5 c 128,-1,85
 1478 1405 1478 1405 1582 1252 c 1,56,-1
1700 1334 m 1,86,-1
 1640 1295 l 1,87,88
 1526 1462 1526 1462 1345.5 1559 c 128,-1,89
 1165 1656 1165 1656 956 1656 c 0,90,91
 788 1656 788 1656 634.5 1590.5 c 128,-1,92
 481 1525 481 1525 370 1414 c 128,-1,93
 259 1303 259 1303 193.5 1149.5 c 128,-1,94
 128 996 128 996 128 828 c 128,-1,95
 128 660 128 660 193.5 506.5 c 128,-1,96
 259 353 259 353 370 242 c 128,-1,97
 481 131 481 131 634.5 65.5 c 128,-1,98
 788 0 788 0 956 0 c 0,99,100
 1165 0 1165 0 1346 98 c 128,-1,101
 1527 196 1527 196 1641 363 c 1,102,-1
 1699 319 l 1,103,104
 1575 139 1575 139 1379 33.5 c 128,-1,105
 1183 -72 1183 -72 956 -72 c 0,106,107
 773 -72 773 -72 606.5 -0.5 c 128,-1,108
 440 71 440 71 319.5 191.5 c 128,-1,109
 199 312 199 312 127.5 478.5 c 128,-1,110
 56 645 56 645 56 828 c 128,-1,111
 56 1011 56 1011 127.5 1177.5 c 128,-1,112
 199 1344 199 1344 319.5 1464.5 c 128,-1,113
 440 1585 440 1585 606.5 1656.5 c 128,-1,114
 773 1728 773 1728 956 1728 c 0,115,116
 1184 1728 1184 1728 1380 1622 c 128,-1,117
 1576 1516 1576 1516 1700 1334 c 1,86,-1
EndSplineSet
EndChar

StartChar: D
Encoding: 68 68 42
Width: 1815
Flags: W
LayerCount: 2
Fore
SplineSet
525 432 m 1,0,-1
 525 1224 l 1,1,2
 525 1224 525 1224 1016 1224 c 0,3,4
 1135 1224 1135 1224 1220.5 1107.5 c 128,-1,5
 1306 991 1306 991 1306 828 c 0,6,7
 1306 664 1306 664 1220.5 548 c 128,-1,8
 1135 432 1135 432 1016 432 c 2,9,-1
 525 432 l 1,0,-1
597 504 m 1,10,-1
 1016 504 l 2,11,12
 1105 504 1105 504 1168.5 599 c 128,-1,13
 1232 694 1232 694 1232 828 c 0,14,15
 1232 963 1232 963 1168.5 1057.5 c 128,-1,16
 1105 1152 1105 1152 1016 1152 c 2,17,-1
 597 1152 l 1,18,-1
 597 504 l 1,10,-1
453 360 m 1,19,-1
 1016 360 l 2,20,21
 1165 360 1165 360 1272.5 497.5 c 128,-1,22
 1380 635 1380 635 1380 828 c 0,23,24
 1380 955 1380 955 1330.5 1063 c 128,-1,25
 1281 1171 1281 1171 1197.5 1233.5 c 128,-1,26
 1114 1296 1114 1296 1016 1296 c 2,27,-1
 453 1296 l 1,28,-1
 453 360 l 1,19,-1
381 288 m 1,29,-1
 381 1368 l 1,30,-1
 1016 1368 l 2,31,32
 1133 1368 1133 1368 1234 1296 c 128,-1,33
 1335 1224 1335 1224 1394.5 1099.5 c 128,-1,34
 1454 975 1454 975 1454 828 c 0,35,36
 1454 682 1454 682 1394.5 557 c 128,-1,37
 1335 432 1335 432 1234 360 c 128,-1,38
 1133 288 1133 288 1016 288 c 2,39,-1
 381 288 l 1,29,-1
309 216 m 1,40,-1
 1016 216 l 2,41,42
 1153 216 1153 216 1270.5 298 c 128,-1,43
 1388 380 1388 380 1458 521 c 128,-1,44
 1528 662 1528 662 1528 828 c 0,45,46
 1528 993 1528 993 1458 1134.5 c 128,-1,47
 1388 1276 1388 1276 1270 1358 c 128,-1,48
 1152 1440 1152 1440 1016 1440 c 2,49,-1
 309 1440 l 1,50,-1
 309 216 l 1,40,-1
237 144 m 1,51,-1
 237 1512 l 1,52,-1
 1016 1512 l 2,53,54
 1172 1512 1172 1512 1307 1420.5 c 128,-1,55
 1442 1329 1442 1329 1522 1171 c 128,-1,56
 1602 1013 1602 1013 1602 828 c 128,-1,57
 1602 643 1602 643 1522 485 c 128,-1,58
 1442 327 1442 327 1307 235.5 c 128,-1,59
 1172 144 1172 144 1016 144 c 2,60,-1
 237 144 l 1,51,-1
165 72 m 1,61,-1
 1016 72 l 2,62,63
 1147 72 1147 72 1269 132 c 128,-1,64
 1391 192 1391 192 1480 293 c 128,-1,65
 1569 394 1569 394 1622.5 534.5 c 128,-1,66
 1676 675 1676 675 1676 828 c 128,-1,67
 1676 981 1676 981 1622.5 1121 c 128,-1,68
 1569 1261 1569 1261 1480 1362.5 c 128,-1,69
 1391 1464 1391 1464 1269 1524 c 128,-1,70
 1147 1584 1147 1584 1016 1584 c 2,71,-1
 165 1584 l 1,72,-1
 165 72 l 1,61,-1
1016 0 m 2,73,-1
 93 0 l 1,74,-1
 93 1656 l 1,75,-1
 1016 1656 l 2,76,77
 1211 1656 1211 1656 1380 1545 c 128,-1,78
 1549 1434 1549 1434 1649.5 1243 c 128,-1,79
 1750 1052 1750 1052 1750 828 c 0,80,81
 1750 660 1750 660 1690.5 506.5 c 128,-1,82
 1631 353 1631 353 1532 242 c 128,-1,83
 1433 131 1433 131 1297.5 65.5 c 128,-1,84
 1162 0 1162 0 1016 0 c 2,73,-1
EndSplineSet
EndChar

StartChar: E
Encoding: 69 69 43
Width: 1447
Flags: W
LayerCount: 2
Fore
SplineSet
453 0 m 1,0,-1
 381 0 l 1,1,-1
 381 1656 l 1,2,-1
 453 1656 l 1,3,-1
 453 0 l 1,0,-1
309 0 m 1,4,-1
 237 0 l 1,5,-1
 237 1656 l 1,6,-1
 309 1656 l 1,7,-1
 309 0 l 1,4,-1
165 0 m 1,8,-1
 93 0 l 1,9,-1
 93 1656 l 1,10,-1
 165 1656 l 1,11,-1
 165 0 l 1,8,-1
597 360 m 1,12,-1
 1363 360 l 1,13,-1
 1363 288 l 1,14,-1
 597 288 l 1,15,-1
 597 216 l 1,16,-1
 1363 216 l 1,17,-1
 1363 144 l 1,18,-1
 597 144 l 1,19,-1
 597 72 l 1,20,-1
 1363 72 l 1,21,-1
 1363 0 l 1,22,-1
 525 0 l 1,23,-1
 525 1656 l 1,24,-1
 1363 1656 l 1,25,-1
 1363 1584 l 1,26,-1
 597 1584 l 1,27,-1
 597 1512 l 1,28,-1
 1363 1512 l 1,29,-1
 1363 1440 l 1,30,-1
 597 1440 l 1,31,-1
 597 1368 l 1,32,-1
 1363 1368 l 1,33,-1
 1363 1296 l 1,34,-1
 597 1296 l 1,35,-1
 597 1008 l 1,36,-1
 990 1008 l 1,37,-1
 990 936 l 1,38,-1
 597 936 l 1,39,-1
 597 864 l 1,40,-1
 990 864 l 1,41,-1
 990 792 l 1,42,-1
 597 792 l 1,43,-1
 597 720 l 1,44,-1
 990 720 l 1,45,-1
 990 648 l 1,46,-1
 597 648 l 1,47,-1
 597 360 l 1,12,-1
EndSplineSet
EndChar

StartChar: F
Encoding: 70 70 44
Width: 1399
Flags: W
LayerCount: 2
Fore
SplineSet
597 0 m 1,0,-1
 525 0 l 1,1,-1
 525 1656 l 1,2,-1
 1322 1656 l 1,3,-1
 1322 1584 l 1,4,-1
 597 1584 l 1,5,-1
 597 1512 l 1,6,-1
 1322 1512 l 1,7,-1
 1322 1440 l 1,8,-1
 597 1440 l 1,9,-1
 597 1368 l 1,10,-1
 1322 1368 l 1,11,-1
 1322 1296 l 1,12,-1
 597 1296 l 1,13,-1
 597 936 l 1,14,-1
 1288 936 l 1,15,-1
 1288 864 l 1,16,-1
 597 864 l 1,17,-1
 597 792 l 1,18,-1
 1288 792 l 1,19,-1
 1288 720 l 1,20,-1
 597 720 l 1,21,-1
 597 648 l 1,22,-1
 1288 648 l 1,23,-1
 1288 576 l 1,24,-1
 597 576 l 1,25,-1
 597 0 l 1,0,-1
453 0 m 1,26,-1
 381 0 l 1,27,-1
 381 1656 l 1,28,-1
 453 1656 l 1,29,-1
 453 0 l 1,26,-1
309 0 m 1,30,-1
 237 0 l 1,31,-1
 237 1656 l 1,32,-1
 309 1656 l 1,33,-1
 309 0 l 1,30,-1
165 0 m 1,34,-1
 93 0 l 1,35,-1
 93 1656 l 1,36,-1
 165 1656 l 1,37,-1
 165 0 l 1,34,-1
EndSplineSet
EndChar

StartChar: G
Encoding: 71 71 45
Width: 1860
Flags: W
LayerCount: 2
Fore
SplineSet
1416 865 m 1,0,-1
 1488 865 l 1,1,-1
 1488 0 l 1,2,-1
 1416 0 l 1,3,-1
 1416 865 l 1,0,-1
1704 865 m 1,4,-1
 1776 865 l 1,5,-1
 1776 0 l 1,6,-1
 1704 0 l 1,7,-1
 1704 865 l 1,4,-1
1560 865 m 1,8,-1
 1632 865 l 1,9,-1
 1632 0 l 1,10,-1
 1560 0 l 1,11,-1
 1560 865 l 1,8,-1
1344 865 m 1,12,-1
 1344 0 l 1,13,14
 1154 -72 1154 -72 950 -72 c 0,15,16
 773 -72 773 -72 611 -7 c 128,-1,17
 449 58 449 58 326 173.5 c 128,-1,18
 203 289 203 289 129.5 459.5 c 128,-1,19
 56 630 56 630 56 828 c 0,20,21
 56 1011 56 1011 127.5 1177.5 c 128,-1,22
 199 1344 199 1344 319.5 1464.5 c 128,-1,23
 440 1585 440 1585 606.5 1656.5 c 128,-1,24
 773 1728 773 1728 956 1728 c 0,25,26
 1184 1728 1184 1728 1380 1622 c 128,-1,27
 1576 1516 1576 1516 1700 1334 c 1,28,-1
 1640 1295 l 1,29,30
 1526 1462 1526 1462 1345.5 1559 c 128,-1,31
 1165 1656 1165 1656 956 1656 c 0,32,33
 788 1656 788 1656 634.5 1590.5 c 128,-1,34
 481 1525 481 1525 370 1414 c 128,-1,35
 259 1303 259 1303 193.5 1149.5 c 128,-1,36
 128 996 128 996 128 828 c 0,37,38
 128 647 128 647 195.5 490 c 128,-1,39
 263 333 263 333 375.5 227 c 128,-1,40
 488 121 488 121 637 60.5 c 128,-1,41
 786 0 786 0 947 0 c 0,42,43
 1116 0 1116 0 1272 53 c 1,44,-1
 1272 122 l 1,45,46
 1123 72 1123 72 959 72 c 0,47,48
 840 72 840 72 727.5 105.5 c 128,-1,49
 615 139 615 139 519.5 204.5 c 128,-1,50
 424 270 424 270 352.5 360.5 c 128,-1,51
 281 451 281 451 240.5 571.5 c 128,-1,52
 200 692 200 692 200 828 c 0,53,54
 200 1033 200 1033 301.5 1207 c 128,-1,55
 403 1381 403 1381 577 1482.5 c 128,-1,56
 751 1584 751 1584 956 1584 c 0,57,58
 1148 1584 1148 1584 1313 1494.5 c 128,-1,59
 1478 1405 1478 1405 1582 1252 c 1,60,-1
 1522 1213 l 1,61,62
 1428 1351 1428 1351 1278.5 1431.5 c 128,-1,63
 1129 1512 1129 1512 956 1512 c 0,64,65
 817 1512 817 1512 690 1458 c 128,-1,66
 563 1404 563 1404 471.5 1312.5 c 128,-1,67
 380 1221 380 1221 326 1094 c 128,-1,68
 272 967 272 967 272 828 c 0,69,70
 272 703 272 703 308.5 593.5 c 128,-1,71
 345 484 345 484 409.5 402.5 c 128,-1,72
 474 321 474 321 560 262.5 c 128,-1,73
 646 204 646 204 747.5 174 c 128,-1,74
 849 144 849 144 956 144 c 0,75,76
 1122 144 1122 144 1272 200 c 1,77,-1
 1272 272 l 1,78,79
 1124 215 1124 215 963 215 c 0,80,81
 841 215 841 215 730 256.5 c 128,-1,82
 619 298 619 298 532.5 374 c 128,-1,83
 446 450 446 450 395 568 c 128,-1,84
 344 686 344 686 344 828 c 0,85,86
 344 994 344 994 426 1135 c 128,-1,87
 508 1276 508 1276 649 1358 c 128,-1,88
 790 1440 790 1440 956 1440 c 0,89,90
 1111 1440 1111 1440 1244.5 1368 c 128,-1,91
 1378 1296 1378 1296 1462 1172 c 1,92,-1
 1402 1133 l 1,93,94
 1328 1241 1328 1241 1210.5 1304.5 c 128,-1,95
 1093 1368 1093 1368 956 1368 c 0,96,97
 809 1368 809 1368 685 1295.5 c 128,-1,98
 561 1223 561 1223 488.5 1099 c 128,-1,99
 416 975 416 975 416 828 c 0,100,101
 416 726 416 726 445 638 c 128,-1,102
 474 550 474 550 525 486 c 128,-1,103
 576 422 576 422 644.5 377 c 128,-1,104
 713 332 713 332 792 309.5 c 128,-1,105
 871 287 871 287 956 287 c 0,106,107
 1125 287 1125 287 1272 354 c 1,108,-1
 1272 423 l 1,109,110
 1130 360 1130 360 965 360 c 0,111,112
 870 360 870 360 786 389 c 128,-1,113
 702 418 702 418 634.5 474 c 128,-1,114
 567 530 567 530 527.5 621.5 c 128,-1,115
 488 713 488 713 488 828 c 0,116,117
 488 923 488 923 525 1009.5 c 128,-1,118
 562 1096 562 1096 625 1159 c 128,-1,119
 688 1222 688 1222 774.5 1259 c 128,-1,120
 861 1296 861 1296 956 1296 c 0,121,122
 1075 1296 1075 1296 1177 1240.5 c 128,-1,123
 1279 1185 1279 1185 1343 1090 c 1,124,-1
 1284 1051 l 1,125,126
 1230 1131 1230 1131 1143.5 1177.5 c 128,-1,127
 1057 1224 1057 1224 956 1224 c 0,128,129
 792 1224 792 1224 676 1108 c 128,-1,130
 560 992 560 992 560 828 c 0,131,132
 560 727 560 727 593 649.5 c 128,-1,133
 626 572 626 572 683.5 525.5 c 128,-1,134
 741 479 741 479 811.5 455.5 c 128,-1,135
 882 432 882 432 963 432 c 0,136,137
 1129 432 1129 432 1272 501 c 1,138,-1
 1272 865 l 1,139,-1
 1344 865 l 1,12,-1
EndSplineSet
EndChar

StartChar: H
Encoding: 72 72 46
Width: 1846
Flags: W
LayerCount: 2
Fore
SplineSet
1677 1656 m 1,0,-1
 1749 1656 l 1,1,-1
 1749 0 l 1,2,-1
 1677 0 l 1,3,-1
 1677 1656 l 1,0,-1
93 1656 m 1,4,-1
 165 1656 l 1,5,-1
 165 0 l 1,6,-1
 93 0 l 1,7,-1
 93 1656 l 1,4,-1
1533 1656 m 1,8,-1
 1605 1656 l 1,9,-1
 1605 0 l 1,10,-1
 1533 0 l 1,11,-1
 1533 1656 l 1,8,-1
1389 1656 m 1,12,-1
 1461 1656 l 1,13,-1
 1461 0 l 1,14,-1
 1389 0 l 1,15,-1
 1389 1656 l 1,12,-1
1245 1656 m 1,16,-1
 1317 1656 l 1,17,-1
 1317 0 l 1,18,-1
 1245 0 l 1,19,-1
 1245 649 l 1,20,-1
 597 649 l 1,21,-1
 597 0 l 1,22,-1
 525 0 l 1,23,-1
 525 1656 l 1,24,-1
 597 1656 l 1,25,-1
 597 1009 l 1,26,-1
 1245 1009 l 1,27,-1
 1245 1656 l 1,16,-1
381 1656 m 1,28,-1
 453 1656 l 1,29,-1
 453 0 l 1,30,-1
 381 0 l 1,31,-1
 381 1656 l 1,28,-1
237 1656 m 1,32,-1
 309 1656 l 1,33,-1
 309 0 l 1,34,-1
 237 0 l 1,35,-1
 237 1656 l 1,32,-1
1245 721 m 1,36,-1
 1245 793 l 1,37,-1
 597 793 l 1,38,-1
 597 721 l 1,39,-1
 1245 721 l 1,36,-1
1245 865 m 1,40,-1
 1245 937 l 1,41,-1
 597 937 l 1,42,-1
 597 865 l 1,43,-1
 1245 865 l 1,40,-1
EndSplineSet
EndChar

StartChar: I
Encoding: 73 73 47
Width: 694
Flags: W
LayerCount: 2
Fore
SplineSet
525 1656 m 1,0,-1
 597 1656 l 1,1,-1
 597 0 l 1,2,-1
 525 0 l 1,3,-1
 525 1656 l 1,0,-1
381 1656 m 1,4,-1
 453 1656 l 1,5,-1
 453 0 l 1,6,-1
 381 0 l 1,7,-1
 381 1656 l 1,4,-1
237 1656 m 1,8,-1
 309 1656 l 1,9,-1
 309 0 l 1,10,-1
 237 0 l 1,11,-1
 237 1656 l 1,8,-1
93 1656 m 1,12,-1
 165 1656 l 1,13,-1
 165 0 l 1,14,-1
 93 0 l 1,15,-1
 93 1656 l 1,12,-1
EndSplineSet
EndChar

StartChar: J
Encoding: 74 74 48
Width: 890
Flags: W
LayerCount: 2
Fore
SplineSet
170 360 m 2,0,-1
 47 360 l 1,1,-1
 47 432 l 1,2,-1
 170 432 l 2,3,4
 223 432 223 432 259 472 c 128,-1,5
 295 512 295 512 295 578 c 2,6,-1
 295 1656 l 1,7,-1
 367 1656 l 1,8,-1
 367 578 l 2,9,10
 367 483 367 483 310 421.5 c 128,-1,11
 253 360 253 360 170 360 c 2,0,-1
170 216 m 2,12,-1
 47 216 l 1,13,-1
 47 288 l 1,14,-1
 170 288 l 2,15,16
 282 288 282 288 360.5 373 c 128,-1,17
 439 458 439 458 439 578 c 2,18,-1
 439 1656 l 1,19,-1
 511 1656 l 1,20,-1
 511 578 l 2,21,22
 511 428 511 428 411.5 322 c 128,-1,23
 312 216 312 216 170 216 c 2,12,-1
170 72 m 2,24,-1
 47 72 l 1,25,-1
 47 144 l 1,26,-1
 170 144 l 2,27,28
 342 144 342 144 462.5 271 c 128,-1,29
 583 398 583 398 583 578 c 2,30,-1
 583 1656 l 1,31,-1
 655 1656 l 1,32,-1
 655 578 l 2,33,34
 655 441 655 441 590.5 324.5 c 128,-1,35
 526 208 526 208 414 140 c 128,-1,36
 302 72 302 72 170 72 c 2,24,-1
170 -72 m 2,37,-1
 47 -72 l 1,38,-1
 47 0 l 1,39,-1
 170 0 l 2,40,41
 284 0 284 0 387 46 c 128,-1,42
 490 92 490 92 564.5 169.5 c 128,-1,43
 639 247 639 247 683 354 c 128,-1,44
 727 461 727 461 727 578 c 2,45,-1
 727 1656 l 1,46,-1
 799 1656 l 1,47,-1
 799 578 l 2,48,49
 799 446 799 446 749.5 326 c 128,-1,50
 700 206 700 206 615.5 118.5 c 128,-1,51
 531 31 531 31 414.5 -20.5 c 128,-1,52
 298 -72 298 -72 170 -72 c 2,37,-1
EndSplineSet
EndChar

StartChar: K
Encoding: 75 75 49
Width: 1671
Flags: W
LayerCount: 2
Fore
SplineSet
597 0 m 1,0,-1
 525 0 l 1,1,-1
 525 1656 l 1,2,-1
 597 1656 l 1,3,-1
 597 0 l 1,0,-1
453 0 m 1,4,-1
 381 0 l 1,5,-1
 381 1656 l 1,6,-1
 453 1656 l 1,7,-1
 453 0 l 1,4,-1
309 0 m 1,8,-1
 237 0 l 1,9,-1
 237 1656 l 1,10,-1
 309 1656 l 1,11,-1
 309 0 l 1,8,-1
165 0 m 1,12,-1
 93 0 l 1,13,-1
 93 1656 l 1,14,-1
 165 1656 l 1,15,-1
 165 0 l 1,12,-1
1123 828 m 1,16,-1
 1546 1656 l 1,17,-1
 1626 1656 l 1,18,-1
 1203 828 l 1,19,-1
 1626 0 l 1,20,-1
 1546 0 l 1,21,-1
 1123 828 l 1,16,-1
962 828 m 1,22,-1
 1385 1656 l 1,23,-1
 1465 1656 l 1,24,-1
 1042 828 l 1,25,-1
 1465 0 l 1,26,-1
 1385 0 l 1,27,-1
 962 828 l 1,22,-1
801 828 m 1,28,-1
 1224 1656 l 1,29,-1
 1304 1656 l 1,30,-1
 881 828 l 1,31,-1
 1304 0 l 1,32,-1
 1224 0 l 1,33,-1
 801 828 l 1,28,-1
639 828 m 1,34,-1
 1063 1656 l 1,35,-1
 1143 1656 l 1,36,-1
 719 828 l 1,37,-1
 1143 0 l 1,38,-1
 1063 0 l 1,39,-1
 639 828 l 1,34,-1
EndSplineSet
EndChar

StartChar: L
Encoding: 76 76 50
Width: 1239
Flags: W
LayerCount: 2
Fore
SplineSet
93 1656 m 1,0,-1
 165 1656 l 1,1,-1
 165 0 l 1,2,-1
 93 0 l 1,3,-1
 93 1656 l 1,0,-1
525 1656 m 1,4,-1
 597 1656 l 1,5,-1
 597 360 l 1,6,-1
 1173 360 l 1,7,-1
 1173 288 l 1,8,-1
 597 288 l 1,9,-1
 597 216 l 1,10,-1
 1173 216 l 1,11,-1
 1173 144 l 1,12,-1
 597 144 l 1,13,-1
 597 72 l 1,14,-1
 1173 72 l 1,15,-1
 1173 0 l 1,16,-1
 525 0 l 1,17,-1
 525 1656 l 1,4,-1
381 1656 m 1,18,-1
 453 1656 l 1,19,-1
 453 0 l 1,20,-1
 381 0 l 1,21,-1
 381 1656 l 1,18,-1
237 1656 m 1,22,-1
 309 1656 l 1,23,-1
 309 0 l 1,24,-1
 237 0 l 1,25,-1
 237 1656 l 1,22,-1
EndSplineSet
EndChar

StartChar: M
Encoding: 77 77 51
Width: 1886
Flags: W
LayerCount: 2
Fore
SplineSet
1285 604 m 1,0,-1
 1357 740 l 1,1,-1
 1357 0 l 1,2,-1
 1285 0 l 1,3,-1
 1285 604 l 1,0,-1
1429 880 m 1,4,-1
 1501 1016 l 1,5,-1
 1501 0 l 1,6,-1
 1429 0 l 1,7,-1
 1429 880 l 1,4,-1
1573 1152 m 1,8,-1
 1645 1289 l 1,9,-1
 1645 0 l 1,10,-1
 1573 0 l 1,11,-1
 1573 1152 l 1,8,-1
1090 638 m 1,12,-1
 1049 713 l 1,13,-1
 1545 1656 l 1,14,-1
 1626 1656 l 1,15,-1
 1090 638 l 1,12,-1
1007 795 m 1,16,-1
 965 871 l 1,17,-1
 1381 1656 l 1,18,-1
 1463 1656 l 1,19,-1
 1007 795 l 1,16,-1
525 732 m 1,20,-1
 597 596 l 1,21,-1
 597 0 l 1,22,-1
 525 0 l 1,23,-1
 525 732 l 1,20,-1
381 1006 m 1,24,-1
 453 870 l 1,25,-1
 453 0 l 1,26,-1
 381 0 l 1,27,-1
 381 1006 l 1,24,-1
237 1280 m 1,28,-1
 309 1143 l 1,29,-1
 309 0 l 1,30,-1
 237 0 l 1,31,-1
 237 1280 l 1,28,-1
819 432 m 1,32,-1
 738 432 l 1,33,-1
 165 1519 l 1,34,-1
 165 0 l 1,35,-1
 93 0 l 1,36,-1
 93 1656 l 1,37,-1
 174 1656 l 1,38,-1
 819 432 l 1,32,-1
982 432 m 1,39,-1
 900 432 l 1,40,-1
 256 1656 l 1,41,-1
 338 1656 l 1,42,-1
 982 432 l 1,39,-1
1717 1519 m 1,43,-1
 1144 432 l 1,44,-1
 1062 432 l 1,45,-1
 419 1656 l 1,46,-1
 500 1656 l 1,47,-1
 1104 508 l 1,48,-1
 1707 1656 l 1,49,-1
 1789 1656 l 1,50,-1
 1789 0 l 1,51,-1
 1717 0 l 1,52,-1
 1717 1519 l 1,43,-1
EndSplineSet
EndChar

StartChar: N
Encoding: 78 78 52
Width: 1798
Flags: W
LayerCount: 2
Fore
SplineSet
1269 797 m 1,0,-1
 1197 916 l 1,1,-1
 1197 1656 l 1,2,-1
 1269 1656 l 1,3,-1
 1269 797 l 1,0,-1
1413 561 m 1,4,-1
 1341 682 l 1,5,-1
 1341 1656 l 1,6,-1
 1413 1656 l 1,7,-1
 1413 561 l 1,4,-1
1557 322 m 1,8,-1
 1485 444 l 1,9,-1
 1485 1656 l 1,10,-1
 1557 1656 l 1,11,-1
 1557 322 l 1,8,-1
525 859 m 1,12,-1
 597 740 l 1,13,-1
 597 0 l 1,14,-1
 525 0 l 1,15,-1
 525 859 l 1,12,-1
381 1095 m 1,16,-1
 453 974 l 1,17,-1
 453 0 l 1,18,-1
 381 0 l 1,19,-1
 381 1095 l 1,16,-1
237 1334 m 1,20,-1
 309 1212 l 1,21,-1
 309 0 l 1,22,-1
 237 0 l 1,23,-1
 237 1334 l 1,20,-1
262 1656 m 1,24,-1
 346 1656 l 1,25,-1
 1364 0 l 1,26,-1
 1280 0 l 1,27,-1
 262 1656 l 1,24,-1
432 1656 m 1,28,-1
 517 1656 l 1,29,-1
 1534 0 l 1,30,-1
 1448 0 l 1,31,-1
 432 1656 l 1,28,-1
601 1656 m 1,32,-1
 685 1656 l 1,33,-1
 1629 117 l 1,34,-1
 1629 1656 l 1,35,-1
 1701 1656 l 1,36,-1
 1701 0 l 1,37,38
 1701 0 1701 0 1616 0 c 1,39,-1
 601 1656 l 1,32,-1
165 1539 m 1,40,-1
 165 0 l 1,41,-1
 93 0 l 1,42,-1
 93 1656 l 1,43,44
 93 1656 93 1656 179 1656 c 1,45,-1
 1194 0 l 1,46,-1
 1111 0 l 1,47,-1
 165 1539 l 1,40,-1
EndSplineSet
EndChar

StartChar: O
Encoding: 79 79 53
Width: 1912
Flags: W
LayerCount: 2
Fore
SplineSet
560 828 m 128,-1,1
 560 664 560 664 676 548 c 128,-1,2
 792 432 792 432 956 432 c 128,-1,3
 1120 432 1120 432 1236 548 c 128,-1,4
 1352 664 1352 664 1352 828 c 128,-1,5
 1352 992 1352 992 1236 1108 c 128,-1,6
 1120 1224 1120 1224 956 1224 c 128,-1,7
 792 1224 792 1224 676 1108 c 128,-1,0
 560 992 560 992 560 828 c 128,-1,1
488 828 m 128,-1,9
 488 923 488 923 525 1009.5 c 128,-1,10
 562 1096 562 1096 625 1159 c 128,-1,11
 688 1222 688 1222 774.5 1259 c 128,-1,12
 861 1296 861 1296 956 1296 c 128,-1,13
 1051 1296 1051 1296 1137.5 1259 c 128,-1,14
 1224 1222 1224 1222 1287 1159 c 128,-1,15
 1350 1096 1350 1096 1387 1009.5 c 128,-1,16
 1424 923 1424 923 1424 828 c 128,-1,17
 1424 733 1424 733 1387 646.5 c 128,-1,18
 1350 560 1350 560 1287 497 c 128,-1,19
 1224 434 1224 434 1137.5 397 c 128,-1,20
 1051 360 1051 360 956 360 c 128,-1,21
 861 360 861 360 774.5 397 c 128,-1,22
 688 434 688 434 625 497 c 128,-1,23
 562 560 562 560 525 646.5 c 128,-1,8
 488 733 488 733 488 828 c 128,-1,9
416 828 m 128,-1,25
 416 681 416 681 488.5 557 c 128,-1,26
 561 433 561 433 685 360.5 c 128,-1,27
 809 288 809 288 956 288 c 128,-1,28
 1103 288 1103 288 1227 360.5 c 128,-1,29
 1351 433 1351 433 1423.5 557 c 128,-1,30
 1496 681 1496 681 1496 828 c 128,-1,31
 1496 975 1496 975 1423.5 1099 c 128,-1,32
 1351 1223 1351 1223 1227 1295.5 c 128,-1,33
 1103 1368 1103 1368 956 1368 c 128,-1,34
 809 1368 809 1368 685 1295.5 c 128,-1,35
 561 1223 561 1223 488.5 1099 c 128,-1,24
 416 975 416 975 416 828 c 128,-1,25
344 828 m 128,-1,37
 344 994 344 994 426 1135 c 128,-1,38
 508 1276 508 1276 649 1358 c 128,-1,39
 790 1440 790 1440 956 1440 c 128,-1,40
 1122 1440 1122 1440 1263 1358 c 128,-1,41
 1404 1276 1404 1276 1486 1135 c 128,-1,42
 1568 994 1568 994 1568 828 c 128,-1,43
 1568 662 1568 662 1486 521 c 128,-1,44
 1404 380 1404 380 1263 298 c 128,-1,45
 1122 216 1122 216 956 216 c 128,-1,46
 790 216 790 216 649 298 c 128,-1,47
 508 380 508 380 426 521 c 128,-1,36
 344 662 344 662 344 828 c 128,-1,37
272 828 m 128,-1,49
 272 689 272 689 326 562 c 128,-1,50
 380 435 380 435 471.5 343.5 c 128,-1,51
 563 252 563 252 690 198 c 128,-1,52
 817 144 817 144 956 144 c 128,-1,53
 1095 144 1095 144 1222 198 c 128,-1,54
 1349 252 1349 252 1440.5 343.5 c 128,-1,55
 1532 435 1532 435 1586 562 c 128,-1,56
 1640 689 1640 689 1640 828 c 128,-1,57
 1640 967 1640 967 1586 1094 c 128,-1,58
 1532 1221 1532 1221 1440.5 1312.5 c 128,-1,59
 1349 1404 1349 1404 1222 1458 c 128,-1,60
 1095 1512 1095 1512 956 1512 c 128,-1,61
 817 1512 817 1512 690 1458 c 128,-1,62
 563 1404 563 1404 471.5 1312.5 c 128,-1,63
 380 1221 380 1221 326 1094 c 128,-1,48
 272 967 272 967 272 828 c 128,-1,49
200 828 m 128,-1,65
 200 1033 200 1033 301.5 1207 c 128,-1,66
 403 1381 403 1381 577 1482.5 c 128,-1,67
 751 1584 751 1584 956 1584 c 128,-1,68
 1161 1584 1161 1584 1335 1482.5 c 128,-1,69
 1509 1381 1509 1381 1610.5 1207 c 128,-1,70
 1712 1033 1712 1033 1712 828 c 128,-1,71
 1712 623 1712 623 1610.5 449 c 128,-1,72
 1509 275 1509 275 1335 173.5 c 128,-1,73
 1161 72 1161 72 956 72 c 128,-1,74
 751 72 751 72 577 173.5 c 128,-1,75
 403 275 403 275 301.5 449 c 128,-1,64
 200 623 200 623 200 828 c 128,-1,65
128 828 m 128,-1,77
 128 660 128 660 193.5 506.5 c 128,-1,78
 259 353 259 353 370 242 c 128,-1,79
 481 131 481 131 634.5 65.5 c 128,-1,80
 788 0 788 0 956 0 c 128,-1,81
 1124 0 1124 0 1277.5 65.5 c 128,-1,82
 1431 131 1431 131 1542 242 c 128,-1,83
 1653 353 1653 353 1718.5 506.5 c 128,-1,84
 1784 660 1784 660 1784 828 c 128,-1,85
 1784 996 1784 996 1718.5 1149.5 c 128,-1,86
 1653 1303 1653 1303 1542 1414 c 128,-1,87
 1431 1525 1431 1525 1277.5 1590.5 c 128,-1,88
 1124 1656 1124 1656 956 1656 c 128,-1,89
 788 1656 788 1656 634.5 1590.5 c 128,-1,90
 481 1525 481 1525 370 1414 c 128,-1,91
 259 1303 259 1303 193.5 1149.5 c 128,-1,76
 128 996 128 996 128 828 c 128,-1,77
56 828 m 128,-1,93
 56 1011 56 1011 127.5 1177.5 c 128,-1,94
 199 1344 199 1344 319.5 1464.5 c 128,-1,95
 440 1585 440 1585 606.5 1656.5 c 128,-1,96
 773 1728 773 1728 956 1728 c 128,-1,97
 1139 1728 1139 1728 1305.5 1656.5 c 128,-1,98
 1472 1585 1472 1585 1592.5 1464.5 c 128,-1,99
 1713 1344 1713 1344 1784.5 1177.5 c 128,-1,100
 1856 1011 1856 1011 1856 828 c 128,-1,101
 1856 645 1856 645 1784.5 478.5 c 128,-1,102
 1713 312 1713 312 1592.5 191.5 c 128,-1,103
 1472 71 1472 71 1305.5 -0.5 c 128,-1,104
 1139 -72 1139 -72 956 -72 c 128,-1,105
 773 -72 773 -72 606.5 -0.5 c 128,-1,106
 440 71 440 71 319.5 191.5 c 128,-1,107
 199 312 199 312 127.5 478.5 c 128,-1,92
 56 645 56 645 56 828 c 128,-1,93
EndSplineSet
EndChar

StartChar: P
Encoding: 80 80 54
Width: 1742
Flags: W
LayerCount: 2
Fore
SplineSet
653 784 m 1,0,-1
 1071 784 l 2,1,2
 1174 784 1174 784 1245.5 853.5 c 128,-1,3
 1317 923 1317 923 1317 1050 c 0,4,5
 1317 1145 1317 1145 1242 1220.5 c 128,-1,6
 1167 1296 1167 1296 1071 1296 c 2,7,-1
 453 1296 l 1,8,-1
 453 0 l 1,9,-1
 381 0 l 1,10,-1
 381 1368 l 1,11,-1
 1071 1368 l 2,12,13
 1197 1368 1197 1368 1293 1271 c 128,-1,14
 1389 1174 1389 1174 1389 1050 c 0,15,16
 1389 897 1389 897 1296 804.5 c 128,-1,17
 1203 712 1203 712 1071 712 c 2,18,-1
 653 712 l 1,19,-1
 653 784 l 1,0,-1
653 640 m 1,20,-1
 1071 640 l 2,21,22
 1175 640 1175 640 1263.5 690.5 c 128,-1,23
 1352 741 1352 741 1406.5 836 c 128,-1,24
 1461 931 1461 931 1461 1050 c 0,25,26
 1461 1204 1461 1204 1343.5 1322 c 128,-1,27
 1226 1440 1226 1440 1071 1440 c 2,28,-1
 309 1440 l 1,29,-1
 309 0 l 1,30,-1
 237 0 l 1,31,-1
 237 1512 l 1,32,-1
 1071 1512 l 2,33,34
 1192 1512 1192 1512 1299 1448 c 128,-1,35
 1406 1384 1406 1384 1469.5 1277 c 128,-1,36
 1533 1170 1533 1170 1533 1050 c 0,37,38
 1533 914 1533 914 1469 802.5 c 128,-1,39
 1405 691 1405 691 1299.5 629.5 c 128,-1,40
 1194 568 1194 568 1071 568 c 2,41,-1
 653 568 l 1,42,-1
 653 640 l 1,20,-1
653 496 m 1,43,-1
 1071 496 l 2,44,45
 1178 496 1178 496 1276 538.5 c 128,-1,46
 1374 581 1374 581 1446.5 653.5 c 128,-1,47
 1519 726 1519 726 1562 829.5 c 128,-1,48
 1605 933 1605 933 1605 1050 c 0,49,50
 1605 1190 1605 1190 1532 1313.5 c 128,-1,51
 1459 1437 1459 1437 1335.5 1510.5 c 128,-1,52
 1212 1584 1212 1584 1071 1584 c 2,53,-1
 165 1584 l 1,54,-1
 165 0 l 1,55,-1
 93 0 l 1,56,-1
 93 1656 l 1,57,-1
 1071 1656 l 2,58,59
 1231 1656 1231 1656 1371 1572.5 c 128,-1,60
 1511 1489 1511 1489 1594 1349 c 128,-1,61
 1677 1209 1677 1209 1677 1050 c 0,62,63
 1677 908 1677 908 1628 788.5 c 128,-1,64
 1579 669 1579 669 1496 590 c 128,-1,65
 1413 511 1413 511 1303 467.5 c 128,-1,66
 1193 424 1193 424 1071 424 c 2,67,-1
 653 424 l 1,68,-1
 653 496 l 1,43,-1
597 0 m 1,69,-1
 525 0 l 1,70,-1
 525 1224 l 1,71,-1
 1071 1224 l 2,72,73
 1142 1224 1142 1224 1193.5 1172 c 128,-1,74
 1245 1120 1245 1120 1245 1050 c 0,75,76
 1245 856 1245 856 1071 856 c 2,77,-1
 653 856 l 1,78,-1
 653 928 l 1,79,-1
 1071 928 l 2,80,81
 1119 928 1119 928 1146 955 c 128,-1,82
 1173 982 1173 982 1173 1050 c 0,83,84
 1173 1094 1173 1094 1143.5 1123 c 128,-1,85
 1114 1152 1114 1152 1071 1152 c 2,86,-1
 597 1152 l 1,87,-1
 597 0 l 1,69,-1
EndSplineSet
EndChar

StartChar: Q
Encoding: 81 81 55
Width: 1921
Flags: W
LayerCount: 2
Fore
SplineSet
1049 489 m 1,0,-1
 975 471 l 1,1,-1
 895 600 l 1,2,-1
 956 638 l 1,3,-1
 1049 489 l 1,0,-1
1298 -48 m 1,4,-1
 1365 -19 l 1,5,-1
 1473 -194 l 1,6,-1
 1412 -233 l 1,7,-1
 1298 -48 l 1,4,-1
1177 556 m 1,8,-1
 1117 518 l 1,9,-1
 1019 675 l 1,10,-1
 1080 713 l 1,11,-1
 1177 556 l 1,8,-1
1429 14 m 1,12,-1
 1490 52 l 1,13,-1
 1594 -117 l 1,14,-1
 1533 -156 l 1,15,-1
 1429 14 l 1,12,-1
1276 670 m 1,16,-1
 1232 604 l 1,17,-1
 1142 749 l 1,18,-1
 1202 790 l 1,19,-1
 1276 670 l 1,16,-1
1549 93 m 1,20,-1
 1604 142 l 1,21,-1
 1716 -39 l 1,22,-1
 1655 -78 l 1,23,-1
 1549 93 l 1,20,-1
560 828 m 128,-1,25
 560 664 560 664 676 548 c 128,-1,26
 792 432 792 432 956 432 c 128,-1,27
 1120 432 1120 432 1236 548 c 128,-1,28
 1352 664 1352 664 1352 828 c 128,-1,29
 1352 992 1352 992 1236 1108 c 128,-1,30
 1120 1224 1120 1224 956 1224 c 128,-1,31
 792 1224 792 1224 676 1108 c 128,-1,24
 560 992 560 992 560 828 c 128,-1,25
488 828 m 128,-1,33
 488 923 488 923 525 1009.5 c 128,-1,34
 562 1096 562 1096 625 1159 c 128,-1,35
 688 1222 688 1222 774.5 1259 c 128,-1,36
 861 1296 861 1296 956 1296 c 128,-1,37
 1051 1296 1051 1296 1137.5 1259 c 128,-1,38
 1224 1222 1224 1222 1287 1159 c 128,-1,39
 1350 1096 1350 1096 1387 1009.5 c 128,-1,40
 1424 923 1424 923 1424 828 c 128,-1,41
 1424 733 1424 733 1387 646.5 c 128,-1,42
 1350 560 1350 560 1287 497 c 128,-1,43
 1224 434 1224 434 1137.5 397 c 128,-1,44
 1051 360 1051 360 956 360 c 128,-1,45
 861 360 861 360 774.5 397 c 128,-1,46
 688 434 688 434 625 497 c 128,-1,47
 562 560 562 560 525 646.5 c 128,-1,32
 488 733 488 733 488 828 c 128,-1,33
416 828 m 128,-1,49
 416 681 416 681 488.5 557 c 128,-1,50
 561 433 561 433 685 360.5 c 128,-1,51
 809 288 809 288 956 288 c 128,-1,52
 1103 288 1103 288 1227 360.5 c 128,-1,53
 1351 433 1351 433 1423.5 557 c 128,-1,54
 1496 681 1496 681 1496 828 c 128,-1,55
 1496 975 1496 975 1423.5 1099 c 128,-1,56
 1351 1223 1351 1223 1227 1295.5 c 128,-1,57
 1103 1368 1103 1368 956 1368 c 128,-1,58
 809 1368 809 1368 685 1295.5 c 128,-1,59
 561 1223 561 1223 488.5 1099 c 128,-1,48
 416 975 416 975 416 828 c 128,-1,49
344 828 m 128,-1,61
 344 994 344 994 426 1135 c 128,-1,62
 508 1276 508 1276 649 1358 c 128,-1,63
 790 1440 790 1440 956 1440 c 128,-1,64
 1122 1440 1122 1440 1263 1358 c 128,-1,65
 1404 1276 1404 1276 1486 1135 c 128,-1,66
 1568 994 1568 994 1568 828 c 128,-1,67
 1568 662 1568 662 1486 521 c 128,-1,68
 1404 380 1404 380 1263 298 c 128,-1,69
 1122 216 1122 216 956 216 c 128,-1,70
 790 216 790 216 649 298 c 128,-1,71
 508 380 508 380 426 521 c 128,-1,60
 344 662 344 662 344 828 c 128,-1,61
272 828 m 128,-1,73
 272 689 272 689 326 562 c 128,-1,74
 380 435 380 435 471.5 343.5 c 128,-1,75
 563 252 563 252 690 198 c 128,-1,76
 817 144 817 144 956 144 c 128,-1,77
 1095 144 1095 144 1222 198 c 128,-1,78
 1349 252 1349 252 1440.5 343.5 c 128,-1,79
 1532 435 1532 435 1586 562 c 128,-1,80
 1640 689 1640 689 1640 828 c 128,-1,81
 1640 967 1640 967 1586 1094 c 128,-1,82
 1532 1221 1532 1221 1440.5 1312.5 c 128,-1,83
 1349 1404 1349 1404 1222 1458 c 128,-1,84
 1095 1512 1095 1512 956 1512 c 128,-1,85
 817 1512 817 1512 690 1458 c 128,-1,86
 563 1404 563 1404 471.5 1312.5 c 128,-1,87
 380 1221 380 1221 326 1094 c 128,-1,72
 272 967 272 967 272 828 c 128,-1,73
200 828 m 128,-1,89
 200 1033 200 1033 301.5 1207 c 128,-1,90
 403 1381 403 1381 577 1482.5 c 128,-1,91
 751 1584 751 1584 956 1584 c 128,-1,92
 1161 1584 1161 1584 1335 1482.5 c 128,-1,93
 1509 1381 1509 1381 1610.5 1207 c 128,-1,94
 1712 1033 1712 1033 1712 828 c 128,-1,95
 1712 623 1712 623 1610.5 449 c 128,-1,96
 1509 275 1509 275 1335 173.5 c 128,-1,97
 1161 72 1161 72 956 72 c 128,-1,98
 751 72 751 72 577 173.5 c 128,-1,99
 403 275 403 275 301.5 449 c 128,-1,88
 200 623 200 623 200 828 c 128,-1,89
128 828 m 128,-1,101
 128 660 128 660 193.5 506.5 c 128,-1,102
 259 353 259 353 370 242 c 128,-1,103
 481 131 481 131 634.5 65.5 c 128,-1,104
 788 0 788 0 956 0 c 128,-1,105
 1124 0 1124 0 1277.5 65.5 c 128,-1,106
 1431 131 1431 131 1542 242 c 128,-1,107
 1653 353 1653 353 1718.5 506.5 c 128,-1,108
 1784 660 1784 660 1784 828 c 128,-1,109
 1784 996 1784 996 1718.5 1149.5 c 128,-1,110
 1653 1303 1653 1303 1542 1414 c 128,-1,111
 1431 1525 1431 1525 1277.5 1590.5 c 128,-1,112
 1124 1656 1124 1656 956 1656 c 128,-1,113
 788 1656 788 1656 634.5 1590.5 c 128,-1,114
 481 1525 481 1525 370 1414 c 128,-1,115
 259 1303 259 1303 193.5 1149.5 c 128,-1,100
 128 996 128 996 128 828 c 128,-1,101
56 828 m 128,-1,117
 56 1011 56 1011 127.5 1177.5 c 128,-1,118
 199 1344 199 1344 319.5 1464.5 c 128,-1,119
 440 1585 440 1585 606.5 1656.5 c 128,-1,120
 773 1728 773 1728 956 1728 c 128,-1,121
 1139 1728 1139 1728 1305.5 1656.5 c 128,-1,122
 1472 1585 1472 1585 1592.5 1464.5 c 128,-1,123
 1713 1344 1713 1344 1784.5 1177.5 c 128,-1,124
 1856 1011 1856 1011 1856 828 c 128,-1,125
 1856 645 1856 645 1784.5 478.5 c 128,-1,126
 1713 312 1713 312 1592.5 191.5 c 128,-1,127
 1472 71 1472 71 1305.5 -0.5 c 128,-1,128
 1139 -72 1139 -72 956 -72 c 128,-1,129
 773 -72 773 -72 606.5 -0.5 c 128,-1,130
 440 71 440 71 319.5 191.5 c 128,-1,131
 199 312 199 312 127.5 478.5 c 128,-1,116
 56 645 56 645 56 828 c 128,-1,117
EndSplineSet
EndChar

StartChar: R
Encoding: 82 82 56
Width: 1728
Flags: W
LayerCount: 2
Fore
SplineSet
637 824 m 1,0,-1
 1071 824 l 2,1,2
 1170 824 1170 824 1238.5 888 c 128,-1,3
 1307 952 1307 952 1307 1070 c 0,4,5
 1307 1157 1307 1157 1235 1226.5 c 128,-1,6
 1163 1296 1163 1296 1071 1296 c 2,7,-1
 453 1296 l 1,8,-1
 453 0 l 1,9,-1
 381 0 l 1,10,-1
 381 1368 l 1,11,-1
 1071 1368 l 2,12,13
 1193 1368 1193 1368 1286 1277.5 c 128,-1,14
 1379 1187 1379 1187 1379 1070 c 0,15,16
 1379 926 1379 926 1289 839 c 128,-1,17
 1199 752 1199 752 1071 752 c 2,18,-1
 637 752 l 1,19,-1
 637 824 l 1,0,-1
637 680 m 1,20,-1
 1071 680 l 2,21,22
 1227 680 1227 680 1339 789.5 c 128,-1,23
 1451 899 1451 899 1451 1070 c 0,24,25
 1451 1217 1451 1217 1336.5 1328.5 c 128,-1,26
 1222 1440 1222 1440 1071 1440 c 2,27,-1
 309 1440 l 1,28,-1
 309 0 l 1,29,-1
 237 0 l 1,30,-1
 237 1512 l 1,31,-1
 1071 1512 l 2,32,33
 1190 1512 1190 1512 1294.5 1451 c 128,-1,34
 1399 1390 1399 1390 1461 1287.5 c 128,-1,35
 1523 1185 1523 1185 1523 1070 c 0,36,37
 1523 873 1523 873 1389.5 740.5 c 128,-1,38
 1256 608 1256 608 1071 608 c 2,39,-1
 637 608 l 1,40,-1
 637 680 l 1,20,-1
637 536 m 1,41,-1
 1071 536 l 2,42,43
 1211 536 1211 536 1331 605 c 128,-1,44
 1451 674 1451 674 1523 797.5 c 128,-1,45
 1595 921 1595 921 1595 1070 c 0,46,47
 1595 1205 1595 1205 1523.5 1323.5 c 128,-1,48
 1452 1442 1452 1442 1331 1513 c 128,-1,49
 1210 1584 1210 1584 1071 1584 c 2,50,-1
 165 1584 l 1,51,-1
 165 0 l 1,52,-1
 93 0 l 1,53,-1
 93 1656 l 1,54,-1
 1071 1656 l 2,55,56
 1228 1656 1228 1656 1366 1575.5 c 128,-1,57
 1504 1495 1504 1495 1585.5 1359.5 c 128,-1,58
 1667 1224 1667 1224 1667 1070 c 0,59,60
 1667 892 1667 892 1590.5 757 c 128,-1,61
 1514 622 1514 622 1383 546 c 1,62,-1
 1569 0 l 1,63,-1
 1493 0 l 1,64,-1
 1315 512 l 1,65,66
 1275 496 1275 496 1254 490 c 1,67,-1
 1421 0 l 1,68,-1
 1345 0 l 1,69,-1
 1182 473 l 1,70,71
 1173 471 1173 471 1118 466 c 1,72,-1
 1273 0 l 1,73,-1
 1197 0 l 1,74,-1
 1044 464 l 1,75,-1
 979 464 l 1,76,-1
 1125 0 l 1,77,-1
 1049 0 l 1,78,-1
 902 464 l 1,79,-1
 637 464 l 1,80,-1
 637 536 l 1,41,-1
597 0 m 1,81,-1
 525 0 l 1,82,-1
 525 1224 l 1,83,-1
 1071 1224 l 2,84,85
 1138 1224 1138 1224 1186.5 1178.5 c 128,-1,86
 1235 1133 1235 1133 1235 1070 c 0,87,88
 1235 896 1235 896 1071 896 c 2,89,-1
 637 896 l 1,90,-1
 637 968 l 1,91,-1
 1071 968 l 2,92,93
 1114 968 1114 968 1138.5 990.5 c 128,-1,94
 1163 1013 1163 1013 1163 1070 c 0,95,96
 1163 1105 1163 1105 1136.5 1128.5 c 128,-1,97
 1110 1152 1110 1152 1071 1152 c 2,98,-1
 597 1152 l 1,99,-1
 597 0 l 1,81,-1
EndSplineSet
EndChar

StartChar: S
Encoding: 83 83 57
Width: 1397
Flags: W
LayerCount: 2
Fore
SplineSet
762 1008 m 2,0,-1
 641 1008 l 2,1,2
 564 1008 564 1008 530 1047.5 c 128,-1,3
 496 1087 496 1087 496 1152 c 0,4,5
 496 1296 496 1296 711 1296 c 0,6,7
 913 1296 913 1296 1015 1236 c 1,8,-1
 957 1192 l 1,9,10
 887 1224 887 1224 711 1224 c 0,11,12
 625 1224 625 1224 595.5 1205 c 128,-1,13
 566 1186 566 1186 566 1152 c 128,-1,14
 566 1118 566 1118 582 1099 c 128,-1,15
 598 1080 598 1080 641 1080 c 2,16,-1
 765 1080 l 2,17,18
 900 1080 900 1080 1008.5 1034 c 128,-1,19
 1117 988 1117 988 1187 908.5 c 128,-1,20
 1257 829 1257 829 1294 725.5 c 128,-1,21
 1331 622 1331 622 1331 504 c 0,22,23
 1331 408 1331 408 1304 322 c 128,-1,24
 1277 236 1277 236 1222.5 164 c 128,-1,25
 1168 92 1168 92 1091.5 39.5 c 128,-1,26
 1015 -13 1015 -13 909.5 -42.5 c 128,-1,27
 804 -72 804 -72 681 -72 c 0,28,29
 488 -72 488 -72 319.5 -13.5 c 128,-1,30
 151 45 151 45 39 150 c 1,31,-1
 97 193 l 1,32,33
 199 101 199 101 352.5 50.5 c 128,-1,34
 506 0 506 0 681 0 c 0,35,36
 818 0 818 0 928.5 39.5 c 128,-1,37
 1039 79 1039 79 1110.5 148 c 128,-1,38
 1182 217 1182 217 1220.5 308 c 128,-1,39
 1259 399 1259 399 1259 504 c 0,40,41
 1259 643 1259 643 1203 755.5 c 128,-1,42
 1147 868 1147 868 1032.5 938 c 128,-1,43
 918 1008 918 1008 762 1008 c 2,0,-1
641 936 m 2,44,-1
 755 936 l 2,45,46
 958 936 958 936 1072.5 812 c 128,-1,47
 1187 688 1187 688 1187 504 c 0,48,49
 1187 317 1187 317 1054 194.5 c 128,-1,50
 921 72 921 72 681 72 c 0,51,52
 521 72 521 72 382 116 c 128,-1,53
 243 160 243 160 151 240 c 1,54,-1
 207 285 l 1,55,56
 289 218 289 218 413.5 181 c 128,-1,57
 538 144 538 144 681 144 c 0,58,59
 892 144 892 144 1003.5 245 c 128,-1,60
 1115 346 1115 346 1115 504 c 0,61,62
 1115 660 1115 660 1021.5 762 c 128,-1,63
 928 864 928 864 754 864 c 2,64,-1
 641 864 l 2,65,66
 495 864 495 864 422 944 c 128,-1,67
 349 1024 349 1024 349 1152 c 128,-1,68
 349 1280 349 1280 439.5 1360 c 128,-1,69
 530 1440 530 1440 711 1440 c 0,70,71
 838 1440 838 1440 947 1410.5 c 128,-1,72
 1056 1381 1056 1381 1127 1326 c 1,73,-1
 1070 1282 l 1,74,75
 945 1368 945 1368 711 1368 c 0,76,77
 560 1368 560 1368 490.5 1308.5 c 128,-1,78
 421 1249 421 1249 421 1152 c 0,79,80
 421 1054 421 1054 472.5 995 c 128,-1,81
 524 936 524 936 641 936 c 2,44,-1
641 792 m 2,82,-1
 751 792 l 2,83,84
 897 792 897 792 970 711 c 128,-1,85
 1043 630 1043 630 1043 504 c 0,86,87
 1043 376 1043 376 952.5 296 c 128,-1,88
 862 216 862 216 681 216 c 0,89,90
 554 216 554 216 444.5 245.5 c 128,-1,91
 335 275 335 275 264 330 c 1,92,-1
 321 374 l 1,93,94
 446 288 446 288 681 288 c 0,95,96
 832 288 832 288 901.5 347.5 c 128,-1,97
 971 407 971 407 971 504 c 128,-1,98
 971 601 971 601 919 660.5 c 128,-1,99
 867 720 867 720 750 720 c 2,100,-1
 641 720 l 2,101,102
 436 720 436 720 320.5 842.5 c 128,-1,103
 205 965 205 965 205 1152 c 128,-1,104
 205 1339 205 1339 338 1461.5 c 128,-1,105
 471 1584 471 1584 711 1584 c 0,106,107
 871 1584 871 1584 1009.5 1540 c 128,-1,108
 1148 1496 1148 1496 1240 1416 c 1,109,-1
 1184 1371 l 1,110,111
 1102 1438 1102 1438 978 1475 c 128,-1,112
 854 1512 854 1512 711 1512 c 0,113,114
 500 1512 500 1512 388.5 1411 c 128,-1,115
 277 1310 277 1310 277 1152 c 0,116,117
 277 995 277 995 371 893.5 c 128,-1,118
 465 792 465 792 641 792 c 2,82,-1
641 648 m 2,119,-1
 751 648 l 2,120,121
 828 648 828 648 862 608 c 128,-1,122
 896 568 896 568 896 504 c 0,123,124
 896 360 896 360 681 360 c 0,125,126
 478 360 478 360 376 420 c 1,127,-1
 434 464 l 1,128,129
 504 432 504 432 681 432 c 0,130,131
 767 432 767 432 796.5 451 c 128,-1,132
 826 470 826 470 826 504 c 0,133,134
 826 537 826 537 809.5 556.5 c 128,-1,135
 793 576 793 576 749 576 c 2,136,-1
 641 576 l 2,137,138
 503 576 503 576 391.5 621 c 128,-1,139
 280 666 280 666 208.5 745 c 128,-1,140
 137 824 137 824 99 928 c 128,-1,141
 61 1032 61 1032 61 1152 c 0,142,143
 61 1248 61 1248 88 1334 c 128,-1,144
 115 1420 115 1420 169.5 1492 c 128,-1,145
 224 1564 224 1564 300.5 1616.5 c 128,-1,146
 377 1669 377 1669 482.5 1698.5 c 128,-1,147
 588 1728 588 1728 711 1728 c 0,148,149
 904 1728 904 1728 1072 1669.5 c 128,-1,150
 1240 1611 1240 1611 1352 1506 c 1,151,-1
 1294 1463 l 1,152,153
 1192 1555 1192 1555 1039 1605.5 c 128,-1,154
 886 1656 886 1656 711 1656 c 0,155,156
 574 1656 574 1656 463.5 1616.5 c 128,-1,157
 353 1577 353 1577 281.5 1508 c 128,-1,158
 210 1439 210 1439 171.5 1348 c 128,-1,159
 133 1257 133 1257 133 1152 c 0,160,161
 133 1011 133 1011 190 898 c 128,-1,162
 247 785 247 785 364 716.5 c 128,-1,163
 481 648 481 648 641 648 c 2,119,-1
EndSplineSet
EndChar

StartChar: T
Encoding: 84 84 58
Width: 1211
Flags: W
LayerCount: 2
Fore
SplineSet
61 1584 m 1,0,-1
 61 1656 l 1,1,-1
 1141 1656 l 1,2,-1
 1141 1584 l 1,3,-1
 61 1584 l 1,0,-1
61 1440 m 1,4,-1
 61 1512 l 1,5,-1
 1141 1512 l 1,6,-1
 1141 1440 l 1,7,-1
 61 1440 l 1,4,-1
61 1296 m 1,8,-1
 61 1368 l 1,9,-1
 1141 1368 l 1,10,-1
 1141 1296 l 1,11,-1
 853 1296 l 1,12,-1
 853 0 l 1,13,-1
 781 0 l 1,14,-1
 781 1296 l 1,15,-1
 709 1296 l 1,16,-1
 709 0 l 1,17,-1
 637 0 l 1,18,-1
 637 1296 l 1,19,-1
 565 1296 l 1,20,-1
 565 0 l 1,21,-1
 493 0 l 1,22,-1
 493 1296 l 1,23,-1
 421 1296 l 1,24,-1
 421 0 l 1,25,-1
 349 0 l 1,26,-1
 349 1296 l 1,27,-1
 61 1296 l 1,8,-1
EndSplineSet
EndChar

StartChar: U
Encoding: 85 85 59
Width: 1854
Flags: W
LayerCount: 2
Fore
SplineSet
1259 728 m 2,0,-1
 1259 1656 l 1,1,-1
 1331 1656 l 1,2,-1
 1331 728 l 2,3,4
 1331 576 1331 576 1211 468 c 128,-1,5
 1091 360 1091 360 923 360 c 128,-1,6
 755 360 755 360 635 468 c 128,-1,7
 515 576 515 576 515 728 c 2,8,-1
 515 1656 l 1,9,-1
 587 1656 l 1,10,-1
 587 728 l 2,11,12
 587 606 587 606 685.5 519 c 128,-1,13
 784 432 784 432 923 432 c 128,-1,14
 1062 432 1062 432 1160.5 519 c 128,-1,15
 1259 606 1259 606 1259 728 c 2,0,-1
1403 728 m 2,16,-1
 1403 1656 l 1,17,-1
 1475 1656 l 1,18,-1
 1475 728 l 2,19,20
 1475 624 1475 624 1431 529.5 c 128,-1,21
 1387 435 1387 435 1313 366 c 128,-1,22
 1239 297 1239 297 1137 256.5 c 128,-1,23
 1035 216 1035 216 923 216 c 128,-1,24
 811 216 811 216 709 256.5 c 128,-1,25
 607 297 607 297 533 366 c 128,-1,26
 459 435 459 435 415 529.5 c 128,-1,27
 371 624 371 624 371 728 c 2,28,-1
 371 1656 l 1,29,-1
 443 1656 l 1,30,-1
 443 728 l 2,31,32
 443 609 443 609 507.5 507.5 c 128,-1,33
 572 406 572 406 682.5 347 c 128,-1,34
 793 288 793 288 923 288 c 128,-1,35
 1053 288 1053 288 1163.5 347 c 128,-1,36
 1274 406 1274 406 1338.5 507.5 c 128,-1,37
 1403 609 1403 609 1403 728 c 2,16,-1
1547 728 m 2,38,-1
 1547 1656 l 1,39,-1
 1619 1656 l 1,40,-1
 1619 728 l 2,41,42
 1619 595 1619 595 1563.5 473.5 c 128,-1,43
 1508 352 1508 352 1415 264 c 128,-1,44
 1322 176 1322 176 1193 124 c 128,-1,45
 1064 72 1064 72 923 72 c 128,-1,46
 782 72 782 72 653 124 c 128,-1,47
 524 176 524 176 431 264 c 128,-1,48
 338 352 338 352 282.5 473.5 c 128,-1,49
 227 595 227 595 227 728 c 2,50,-1
 227 1656 l 1,51,-1
 299 1656 l 1,52,-1
 299 728 l 2,53,54
 299 570 299 570 383 435.5 c 128,-1,55
 467 301 467 301 610.5 222.5 c 128,-1,56
 754 144 754 144 923 144 c 128,-1,57
 1092 144 1092 144 1235.5 222.5 c 128,-1,58
 1379 301 1379 301 1463 435.5 c 128,-1,59
 1547 570 1547 570 1547 728 c 2,38,-1
1691 728 m 2,60,-1
 1691 1656 l 1,61,-1
 1763 1656 l 1,62,-1
 1763 728 l 2,63,64
 1763 512 1763 512 1650 327.5 c 128,-1,65
 1537 143 1537 143 1343.5 35.5 c 128,-1,66
 1150 -72 1150 -72 923 -72 c 128,-1,67
 696 -72 696 -72 502.5 35.5 c 128,-1,68
 309 143 309 143 196 327.5 c 128,-1,69
 83 512 83 512 83 728 c 2,70,-1
 83 1656 l 1,71,-1
 155 1656 l 1,72,-1
 155 728 l 2,73,74
 155 581 155 581 216 446 c 128,-1,75
 277 311 277 311 380 213.5 c 128,-1,76
 483 116 483 116 625.5 58 c 128,-1,77
 768 0 768 0 923 0 c 128,-1,78
 1078 0 1078 0 1220.5 58 c 128,-1,79
 1363 116 1363 116 1466 213.5 c 128,-1,80
 1569 311 1569 311 1630 446 c 128,-1,81
 1691 581 1691 581 1691 728 c 2,60,-1
EndSplineSet
EndChar

StartChar: V
Encoding: 86 86 60
Width: 1927
Flags: W
LayerCount: 2
Fore
SplineSet
37 1656 m 1,0,-1
 115 1656 l 1,1,-1
 731 97 l 1,2,-1
 1347 1656 l 1,3,-1
 1424 1656 l 1,4,-1
 770 0 l 1,5,-1
 692 0 l 1,6,-1
 37 1656 l 1,0,-1
781 360 m 1,7,-1
 740 268 l 1,8,-1
 192 1656 l 1,9,-1
 269 1656 l 1,10,-1
 781 360 l 1,7,-1
858 557 m 1,11,-1
 820 458 l 1,12,-1
 347 1656 l 1,13,-1
 425 1656 l 1,14,-1
 858 557 l 1,11,-1
934 757 m 1,15,-1
 896 656 l 1,16,-1
 502 1656 l 1,17,-1
 579 1656 l 1,18,-1
 934 757 l 1,15,-1
1811 1656 m 1,19,-1
 1889 1656 l 1,20,-1
 1234 0 l 1,21,-1
 1157 0 l 1,22,-1
 1811 1656 l 1,19,-1
1657 1656 m 1,23,-1
 1734 1656 l 1,24,-1
 1079 0 l 1,25,-1
 1002 0 l 1,26,-1
 1657 1656 l 1,23,-1
1501 1656 m 1,27,-1
 1579 1656 l 1,28,-1
 924 0 l 1,29,-1
 847 0 l 1,30,-1
 1501 1656 l 1,27,-1
EndSplineSet
EndChar

StartChar: W
Encoding: 87 87 61
Width: 2379
Flags: W
LayerCount: 2
Fore
SplineSet
567 509 m 1,0,-1
 533 367 l 1,1,-1
 191 1656 l 1,2,-1
 265 1656 l 1,3,-1
 567 509 l 1,0,-1
642 786 m 1,4,-1
 605 648 l 1,5,-1
 340 1656 l 1,6,-1
 413 1656 l 1,7,-1
 642 786 l 1,4,-1
717 1073 m 1,8,-1
 679 933 l 1,9,-1
 488 1656 l 1,10,-1
 563 1656 l 1,11,-1
 717 1073 l 1,8,-1
1002 0 m 1,12,-1
 927 0 l 1,13,-1
 1365 1654 l 1,14,-1
 1364 1656 l 1,15,-1
 1440 1656 l 1,16,-1
 1440 1654 l 1,17,-1
 1635 982 l 1,18,-1
 1814 1656 l 1,19,-1
 1889 1656 l 1,20,-1
 1450 0 l 1,21,-1
 1375 0 l 1,22,-1
 1179 671 l 1,23,-1
 1002 0 l 1,12,-1
852 0 m 1,24,-1
 778 0 l 1,25,-1
 1216 1656 l 1,26,-1
 1290 1656 l 1,27,-1
 852 0 l 1,24,-1
703 0 m 1,28,-1
 629 0 l 1,29,-1
 1068 1656 l 1,30,-1
 1141 1656 l 1,31,-1
 703 0 l 1,28,-1
1898 0 m 1,32,-1
 1823 0 l 1,33,-1
 2261 1656 l 1,34,-1
 2336 1656 l 1,35,-1
 1898 0 l 1,32,-1
1748 0 m 1,36,-1
 1674 0 l 1,37,-1
 2112 1656 l 1,38,-1
 2186 1656 l 1,39,-1
 1748 0 l 1,36,-1
1599 0 m 1,40,-1
 1525 0 l 1,41,-1
 1964 1656 l 1,42,-1
 2037 1656 l 1,43,-1
 1599 0 l 1,40,-1
517 142 m 1,44,-1
 918 1656 l 1,45,-1
 993 1656 l 1,46,-1
 554 0 l 1,47,-1
 479 0 l 1,48,-1
 41 1656 l 1,49,-1
 116 1656 l 1,50,-1
 517 142 l 1,44,-1
1217 812 m 1,51,-1
 1411 136 l 1,52,-1
 1449 279 l 1,53,-1
 1254 953 l 1,54,-1
 1217 812 l 1,51,-1
1291 1094 m 1,55,-1
 1486 420 l 1,56,-1
 1524 561 l 1,57,-1
 1329 1236 l 1,58,-1
 1291 1094 l 1,55,-1
1365 1374 m 1,59,-1
 1561 700 l 1,60,-1
 1598 842 l 1,61,-1
 1404 1518 l 1,62,-1
 1365 1374 l 1,59,-1
EndSplineSet
EndChar

StartChar: X
Encoding: 88 88 62
Width: 1795
Flags: W
LayerCount: 2
Fore
SplineSet
595 895 m 1,0,-1
 552 827 l 1,1,-1
 31 1656 l 1,2,-1
 116 1656 l 1,3,-1
 595 895 l 1,0,-1
950 354 m 1,4,-1
 992 422 l 1,5,-1
 1258 0 l 1,6,-1
 1173 0 l 1,7,-1
 950 354 l 1,4,-1
680 1029 m 1,8,-1
 637 962 l 1,9,-1
 201 1656 l 1,10,-1
 285 1656 l 1,11,-1
 680 1029 l 1,8,-1
1035 489 m 1,12,-1
 1077 557 l 1,13,-1
 1428 0 l 1,14,-1
 1343 0 l 1,15,-1
 1035 489 l 1,12,-1
765 1165 m 1,16,-1
 723 1098 l 1,17,-1
 371 1656 l 1,18,-1
 456 1656 l 1,19,-1
 765 1165 l 1,16,-1
1121 625 m 1,20,-1
 1163 693 l 1,21,-1
 1599 0 l 1,22,-1
 1514 0 l 1,23,-1
 1121 625 l 1,20,-1
850 1300 m 1,24,-1
 808 1232 l 1,25,-1
 541 1656 l 1,26,-1
 626 1656 l 1,27,-1
 850 1300 l 1,24,-1
1205 760 m 1,28,-1
 1247 828 l 1,29,-1
 1769 0 l 1,30,-1
 1684 0 l 1,31,-1
 1205 760 l 1,28,-1
1634 1656 m 1,32,-1
 1719 1656 l 1,33,-1
 677 0 l 1,34,-1
 592 0 l 1,35,-1
 1634 1656 l 1,32,-1
1465 1656 m 1,36,-1
 1549 1656 l 1,37,-1
 507 0 l 1,38,-1
 422 0 l 1,39,-1
 1465 1656 l 1,36,-1
1294 1656 m 1,40,-1
 1379 1656 l 1,41,-1
 336 0 l 1,42,-1
 251 0 l 1,43,-1
 1294 1656 l 1,40,-1
1124 1656 m 1,44,-1
 1209 1656 l 1,45,-1
 166 0 l 1,46,-1
 81 0 l 1,47,-1
 1124 1656 l 1,44,-1
EndSplineSet
EndChar

StartChar: Y
Encoding: 89 89 63
Width: 1616
Flags: W
LayerCount: 2
Fore
SplineSet
647 833 m 1,0,-1
 611 754 l 1,1,-1
 179 1656 l 1,2,-1
 251 1656 l 1,3,-1
 647 833 l 1,0,-1
719 991 m 1,4,-1
 682 912 l 1,5,-1
 323 1656 l 1,6,-1
 395 1656 l 1,7,-1
 719 991 l 1,4,-1
791 1148 m 1,8,-1
 755 1069 l 1,9,-1
 467 1656 l 1,10,-1
 539 1656 l 1,11,-1
 791 1148 l 1,8,-1
700 558 m 1,12,-1
 1221 1656 l 1,13,-1
 1293 1656 l 1,14,-1
 772 558 l 1,15,-1
 772 0 l 1,16,-1
 700 0 l 1,17,-1
 700 558 l 1,12,-1
844 558 m 1,18,-1
 1365 1656 l 1,19,-1
 1437 1656 l 1,20,-1
 916 558 l 1,21,-1
 916 0 l 1,22,-1
 844 0 l 1,23,-1
 844 558 l 1,18,-1
988 558 m 1,24,-1
 1509 1656 l 1,25,-1
 1581 1656 l 1,26,-1
 1060 558 l 1,27,-1
 1060 0 l 1,28,-1
 988 0 l 1,29,-1
 988 558 l 1,24,-1
592 634 m 1,30,-1
 1077 1656 l 1,31,-1
 1149 1656 l 1,32,-1
 628 558 l 1,33,-1
 628 0 l 1,34,-1
 556 0 l 1,35,-1
 556 558 l 1,36,-1
 35 1656 l 1,37,-1
 107 1656 l 1,38,-1
 592 634 l 1,30,-1
EndSplineSet
EndChar

StartChar: Z
Encoding: 90 90 64
Width: 1749
Flags: W
LayerCount: 2
Fore
SplineSet
876 432 m 1,0,-1
 995 504 l 1,1,-1
 1665 504 l 1,2,-1
 1665 432 l 1,3,-1
 876 432 l 1,0,-1
640 288 m 1,4,-1
 761 360 l 1,5,-1
 1665 360 l 1,6,-1
 1665 288 l 1,7,-1
 640 288 l 1,4,-1
401 144 m 1,8,-1
 523 216 l 1,9,-1
 1665 216 l 1,10,-1
 1665 144 l 1,11,-1
 401 144 l 1,8,-1
868 1224 m 1,12,-1
 749 1152 l 1,13,-1
 79 1152 l 1,14,-1
 79 1224 l 1,15,-1
 868 1224 l 1,12,-1
1104 1368 m 1,16,-1
 983 1296 l 1,17,-1
 79 1296 l 1,18,-1
 79 1368 l 1,19,-1
 1104 1368 l 1,16,-1
1343 1512 m 1,20,-1
 1221 1440 l 1,21,-1
 79 1440 l 1,22,-1
 79 1512 l 1,23,-1
 1343 1512 l 1,20,-1
1665 1487 m 1,24,-1
 1665 1403 l 1,25,-1
 79 337 l 1,26,-1
 79 421 l 1,27,-1
 1665 1487 l 1,24,-1
1665 1317 m 1,28,-1
 1665 1232 l 1,29,-1
 79 167 l 1,30,-1
 79 253 l 1,31,-1
 1665 1317 l 1,28,-1
1665 1148 m 1,32,-1
 1665 1064 l 1,33,-1
 186 72 l 1,34,-1
 1665 72 l 1,35,-1
 1665 0 l 1,36,-1
 79 0 l 1,37,38
 79 0 79 0 79 85 c 1,39,-1
 1665 1148 l 1,32,-1
1558 1584 m 1,40,-1
 79 1584 l 1,41,-1
 79 1656 l 1,42,-1
 1665 1656 l 1,43,44
 1665 1656 1665 1656 1665 1570 c 1,45,-1
 79 507 l 1,46,-1
 79 590 l 1,47,-1
 1558 1584 l 1,40,-1
EndSplineSet
EndChar

StartChar: bracketleft
Encoding: 91 91 65
Width: 657
Flags: W
LayerCount: 2
Fore
SplineSet
382 144 m 1,0,-1
 382 1440 l 1,1,-1
 598 1440 l 1,2,-1
 598 1368 l 1,3,-1
 454 1368 l 1,4,-1
 454 216 l 1,5,-1
 598 216 l 1,6,-1
 598 144 l 1,7,-1
 382 144 l 1,0,-1
238 1584 m 1,8,-1
 598 1584 l 1,9,-1
 598 1512 l 1,10,-1
 310 1512 l 1,11,-1
 310 72 l 1,12,-1
 598 72 l 1,13,-1
 598 1 l 1,14,-1
 238 1 l 1,15,-1
 238 1584 l 1,8,-1
94 1728 m 1,16,-1
 598 1728 l 1,17,-1
 598 1656 l 1,18,-1
 166 1656 l 1,19,-1
 166 -72 l 1,20,-1
 598 -72 l 1,21,-1
 598 -144 l 1,22,-1
 94 -144 l 1,23,-1
 94 1728 l 1,16,-1
EndSplineSet
EndChar

StartChar: backslash
Encoding: 92 92 66
Width: 918
Flags: W
LayerCount: 2
Fore
SplineSet
342 1655 m 1,0,-1
 417 1655 l 1,1,-1
 880 -194 l 1,2,-1
 805 -194 l 1,3,-1
 342 1655 l 1,0,-1
192 1655 m 1,4,-1
 267 1655 l 1,5,-1
 730 -194 l 1,6,-1
 656 -194 l 1,7,-1
 192 1655 l 1,4,-1
43 1655 m 1,8,-1
 117 1655 l 1,9,-1
 581 -194 l 1,10,-1
 507 -194 l 1,11,-1
 43 1655 l 1,8,-1
EndSplineSet
EndChar

StartChar: bracketright
Encoding: 93 93 67
Width: 655
Flags: W
LayerCount: 2
Fore
SplineSet
59 1728 m 1,0,-1
 563 1728 l 1,1,-1
 563 -144 l 1,2,-1
 59 -144 l 1,3,-1
 59 -72 l 1,4,-1
 491 -72 l 1,5,-1
 491 1656 l 1,6,-1
 59 1656 l 1,7,-1
 59 1728 l 1,0,-1
59 1584 m 1,8,-1
 419 1584 l 1,9,-1
 419 1 l 1,10,-1
 59 1 l 1,11,-1
 59 72 l 1,12,-1
 347 72 l 1,13,-1
 347 1512 l 1,14,-1
 59 1512 l 1,15,-1
 59 1584 l 1,8,-1
275 1440 m 1,16,-1
 275 144 l 1,17,-1
 59 144 l 1,18,-1
 59 216 l 1,19,-1
 203 216 l 1,20,-1
 203 1368 l 1,21,-1
 59 1368 l 1,22,-1
 59 1440 l 1,23,-1
 275 1440 l 1,16,-1
EndSplineSet
EndChar

StartChar: asciicircum
Encoding: 94 94 68
Width: 973
Flags: W
LayerCount: 2
Fore
SplineSet
138 649 m 1,0,-1
 61 649 l 1,1,-1
 372 1440 l 1,2,-1
 450 1440 l 1,3,-1
 760 649 l 1,4,-1
 682 649 l 1,5,-1
 410 1343 l 1,6,-1
 138 649 l 1,0,-1
914 649 m 1,7,-1
 837 649 l 1,8,-1
 527 1440 l 1,9,-1
 604 1440 l 1,10,-1
 914 649 l 1,7,-1
293 649 m 1,11,-1
 215 649 l 1,12,-1
 420 1172 l 1,13,-1
 461 1080 l 1,14,-1
 293 649 l 1,11,-1
EndSplineSet
EndChar

StartChar: underscore
Encoding: 95 95 69
Width: 1048
Flags: W
LayerCount: 2
Fore
SplineSet
91 -72 m 1,0,-1
 91 0 l 1,1,-1
 955 0 l 1,2,-1
 955 -72 l 1,3,-1
 91 -72 l 1,0,-1
91 -216 m 1,4,-1
 91 -144 l 1,5,-1
 955 -144 l 1,6,-1
 955 -216 l 1,7,-1
 91 -216 l 1,4,-1
91 -360 m 1,8,-1
 91 -288 l 1,9,-1
 955 -288 l 1,10,-1
 955 -360 l 1,11,-1
 91 -360 l 1,8,-1
EndSplineSet
EndChar

StartChar: grave
Encoding: 96 96 70
Width: 968
Flags: W
LayerCount: 2
Fore
SplineSet
840 1561 m 1,0,-1
 897 1613 l 1,1,-1
 230 1939 l 1,2,-1
 174 1887 l 1,3,-1
 840 1561 l 1,0,-1
726 1457 m 1,4,-1
 783 1509 l 1,5,-1
 117 1835 l 1,6,-1
 59 1782 l 1,7,-1
 726 1457 l 1,4,-1
EndSplineSet
EndChar

StartChar: a
Encoding: 97 97 71
Width: 1704
Flags: W
LayerCount: 2
Fore
SplineSet
1115 710 m 2,0,1
 1115 838 1115 838 1036 908 c 128,-1,2
 957 978 957 978 827 978 c 0,3,4
 717 978 717 978 638 902 c 128,-1,5
 559 826 559 826 559 720 c 0,6,7
 559 660 559 660 575 612.5 c 128,-1,8
 591 565 591 565 618.5 533.5 c 128,-1,9
 646 502 646 502 684 481.5 c 128,-1,10
 722 461 722 461 763.5 452 c 128,-1,11
 805 443 805 443 852 443 c 0,12,13
 966 443 966 443 1060 499 c 1,14,-1
 1060 427 l 1,15,16
 963 376 963 376 851 376 c 0,17,18
 779 376 779 376 715.5 395.5 c 128,-1,19
 652 415 652 415 600 454.5 c 128,-1,20
 548 494 548 494 517.5 562.5 c 128,-1,21
 487 631 487 631 487 720 c 0,22,23
 487 858 487 858 584 954 c 128,-1,24
 681 1050 681 1050 827 1050 c 0,25,26
 988 1050 988 1050 1087.5 959.5 c 128,-1,27
 1187 869 1187 869 1187 710 c 2,28,-1
 1187 0 l 1,29,-1
 1115 0 l 1,30,-1
 1115 710 l 2,0,1
1331 710 m 2,31,-1
 1331 0 l 1,32,-1
 1259 0 l 1,33,-1
 1259 710 l 2,34,35
 1259 899 1259 899 1138 1010.5 c 128,-1,36
 1017 1122 1017 1122 827 1122 c 0,37,38
 651 1122 651 1122 533 1005 c 128,-1,39
 415 888 415 888 415 720 c 0,40,41
 415 618 415 618 450.5 537 c 128,-1,42
 486 456 486 456 547 407 c 128,-1,43
 608 358 608 358 683.5 332.5 c 128,-1,44
 759 307 759 307 843 307 c 0,45,46
 957 307 957 307 1060 360 c 1,47,-1
 1060 284 l 1,48,49
 952 239 952 239 842 239 c 0,50,51
 743 239 743 239 654 269.5 c 128,-1,52
 565 300 565 300 495 358.5 c 128,-1,53
 425 417 425 417 384 510.5 c 128,-1,54
 343 604 343 604 343 720 c 0,55,56
 343 917 343 917 482.5 1055.5 c 128,-1,57
 622 1194 622 1194 827 1194 c 0,58,59
 971 1194 971 1194 1085 1135.5 c 128,-1,60
 1199 1077 1199 1077 1265 966 c 128,-1,61
 1331 855 1331 855 1331 710 c 2,31,-1
1475 710 m 2,62,-1
 1475 0 l 1,63,-1
 1403 0 l 1,64,-1
 1403 710 l 2,65,66
 1403 875 1403 875 1327.5 1002.5 c 128,-1,67
 1252 1130 1252 1130 1121 1198 c 128,-1,68
 990 1266 990 1266 827 1266 c 0,69,70
 672 1266 672 1266 544 1192.5 c 128,-1,71
 416 1119 416 1119 343.5 994 c 128,-1,72
 271 869 271 869 271 720 c 0,73,74
 271 592 271 592 318 486.5 c 128,-1,75
 365 381 365 381 444.5 313 c 128,-1,76
 524 245 524 245 625.5 207.5 c 128,-1,77
 727 170 727 170 838 170 c 0,78,79
 951 170 951 170 1060 217 c 1,80,-1
 1060 144 l 1,81,82
 946 101 946 101 836 101 c 0,83,84
 663 101 663 101 518 179 c 128,-1,85
 373 257 373 257 286 400 c 128,-1,86
 199 543 199 543 199 720 c 0,87,88
 199 846 199 846 247.5 960 c 128,-1,89
 296 1074 296 1074 379 1157 c 128,-1,90
 462 1240 462 1240 579 1289 c 128,-1,91
 696 1338 696 1338 827 1338 c 0,92,93
 1010 1338 1010 1338 1157.5 1260 c 128,-1,94
 1305 1182 1305 1182 1390 1038 c 128,-1,95
 1475 894 1475 894 1475 710 c 2,62,-1
1619 710 m 2,96,-1
 1619 0 l 1,97,-1
 1547 0 l 1,98,-1
 1547 710 l 2,99,100
 1547 914 1547 914 1452 1074.5 c 128,-1,101
 1357 1235 1357 1235 1193 1322.5 c 128,-1,102
 1029 1410 1029 1410 827 1410 c 0,103,104
 633 1410 633 1410 472 1317 c 128,-1,105
 311 1224 311 1224 219 1065.5 c 128,-1,106
 127 907 127 907 127 720 c 0,107,108
 127 597 127 597 166.5 486.5 c 128,-1,109
 206 376 206 376 274.5 293.5 c 128,-1,110
 343 211 343 211 432.5 151 c 128,-1,111
 522 91 522 91 625.5 60 c 128,-1,112
 729 29 729 29 836 29 c 0,113,114
 954 29 954 29 1060 74 c 1,115,-1
 1060 0 l 1,116,117
 949 -39 949 -39 832 -39 c 0,118,119
 711 -39 711 -39 596.5 -5 c 128,-1,120
 482 29 482 29 384.5 95.5 c 128,-1,121
 287 162 287 162 213 252.5 c 128,-1,122
 139 343 139 343 97 464 c 128,-1,123
 55 585 55 585 55 720 c 0,124,125
 55 875 55 875 113.5 1015.5 c 128,-1,126
 172 1156 172 1156 273.5 1258.5 c 128,-1,127
 375 1361 375 1361 519.5 1421.5 c 128,-1,128
 664 1482 664 1482 827 1482 c 0,129,130
 993 1482 993 1482 1139 1426 c 128,-1,131
 1285 1370 1285 1370 1391 1270.5 c 128,-1,132
 1497 1171 1497 1171 1558 1026 c 128,-1,133
 1619 881 1619 881 1619 710 c 2,96,-1
EndSplineSet
EndChar

StartChar: b
Encoding: 98 98 72
Width: 1476
Flags: W
LayerCount: 2
Fore
SplineSet
1221 728 m 2,0,-1
 1219 729 l 1,1,2
 1332 839 1332 839 1332 997 c 0,3,4
 1332 1147 1332 1147 1220.5 1257.5 c 128,-1,5
 1109 1368 1109 1368 957 1368 c 2,6,-1
 165 1368 l 1,7,-1
 165 0 l 1,8,-1
 93 0 l 1,9,-1
 93 1440 l 1,10,-1
 957 1440 l 2,11,12
 1075 1440 1075 1440 1178.5 1379.5 c 128,-1,13
 1282 1319 1282 1319 1343 1216.5 c 128,-1,14
 1404 1114 1404 1114 1404 997 c 0,15,16
 1404 837 1404 837 1318 722 c 1,17,18
 1404 603 1404 603 1404 460 c 0,19,20
 1404 323 1404 323 1342 218.5 c 128,-1,21
 1280 114 1280 114 1179.5 61 c 128,-1,22
 1079 8 1079 8 957 8 c 2,23,-1
 502 8 l 1,24,-1
 502 80 l 1,25,-1
 957 80 l 2,26,27
 1111 80 1111 80 1221.5 189.5 c 128,-1,28
 1332 299 1332 299 1332 460 c 0,29,30
 1332 534 1332 534 1300 606 c 128,-1,31
 1268 678 1268 678 1220 727 c 0,32,33
 1220 728 1220 728 1221 728 c 2,0,-1
957 368 m 2,34,-1
 502 368 l 1,35,-1
 502 296 l 1,36,-1
 957 296 l 2,37,38
 1023 296 1023 296 1069.5 340.5 c 128,-1,39
 1116 385 1116 385 1116 460 c 0,40,41
 1116 525 1116 525 1068 574.5 c 128,-1,42
 1020 624 1020 624 957 624 c 2,43,-1
 501 624 l 1,44,-1
 501 552 l 1,45,-1
 957 552 l 2,46,47
 991 552 991 552 1017.5 524 c 128,-1,48
 1044 496 1044 496 1044 460 c 0,49,50
 1044 416 1044 416 1019 392 c 128,-1,51
 994 368 994 368 957 368 c 2,34,-1
957 224 m 2,52,-1
 502 224 l 1,53,-1
 502 152 l 1,54,-1
 957 152 l 2,55,56
 1081 152 1081 152 1170.5 240.5 c 128,-1,57
 1260 329 1260 329 1260 460 c 0,58,59
 1260 543 1260 543 1215.5 616.5 c 128,-1,60
 1171 690 1171 690 1098 730 c 1,61,62
 1171 768 1171 768 1215.5 838.5 c 128,-1,63
 1260 909 1260 909 1260 997 c 0,64,65
 1260 1117 1260 1117 1169.5 1206.5 c 128,-1,66
 1079 1296 1079 1296 957 1296 c 2,67,-1
 237 1296 l 1,68,-1
 237 0 l 1,69,-1
 309 0 l 1,70,-1
 309 1224 l 1,71,-1
 957 1224 l 2,72,73
 1049 1224 1049 1224 1118.5 1155.5 c 128,-1,74
 1188 1087 1188 1087 1188 997 c 0,75,76
 1188 897 1188 897 1120 832.5 c 128,-1,77
 1052 768 1052 768 957 768 c 2,78,-1
 737 768 l 1,79,-1
 502 768 l 1,80,-1
 502 696 l 1,81,-1
 737 696 l 1,82,-1
 957 696 l 2,83,84
 1049 696 1049 696 1118.5 625 c 128,-1,85
 1188 554 1188 554 1188 460 c 0,86,87
 1188 356 1188 356 1120 290 c 128,-1,88
 1052 224 1052 224 957 224 c 2,52,-1
957 912 m 2,89,-1
 502 912 l 1,90,-1
 502 840 l 1,91,-1
 957 840 l 2,92,93
 1024 840 1024 840 1070 882.5 c 128,-1,94
 1116 925 1116 925 1116 997 c 0,95,96
 1116 1058 1116 1058 1068 1105 c 128,-1,97
 1020 1152 1020 1152 957 1152 c 2,98,-1
 381 1152 l 1,99,-1
 381 0 l 1,100,-1
 453 0 l 1,101,-1
 453 1080 l 1,102,-1
 957 1080 l 2,103,104
 991 1080 991 1080 1017.5 1054.5 c 128,-1,105
 1044 1029 1044 1029 1044 997 c 0,106,107
 1044 956 1044 956 1019 934 c 128,-1,108
 994 912 994 912 957 912 c 2,89,-1
EndSplineSet
EndChar

StartChar: c
Encoding: 99 99 73
Width: 1509
Flags: W
LayerCount: 2
Fore
SplineSet
1129 944 m 1,0,-1
 1071 900 l 1,1,2
 984 1008 984 1008 847 1008 c 0,3,4
 728 1008 728 1008 643.5 923.5 c 128,-1,5
 559 839 559 839 559 720 c 128,-1,6
 559 601 559 601 643.5 516.5 c 128,-1,7
 728 432 728 432 847 432 c 0,8,9
 914 432 914 432 972.5 461 c 128,-1,10
 1031 490 1031 490 1072 541 c 1,11,-1
 1128 494 l 1,12,13
 1078 431 1078 431 1004 395.5 c 128,-1,14
 930 360 930 360 847 360 c 0,15,16
 698 360 698 360 592.5 465.5 c 128,-1,17
 487 571 487 571 487 720 c 128,-1,18
 487 869 487 869 592.5 974.5 c 128,-1,19
 698 1080 698 1080 847 1080 c 0,20,21
 931 1080 931 1080 1005 1043.5 c 128,-1,22
 1079 1007 1079 1007 1129 944 c 1,0,-1
1241 1034 m 1,23,-1
 1184 990 l 1,24,25
 1124 1066 1124 1066 1035.5 1109 c 128,-1,26
 947 1152 947 1152 847 1152 c 0,27,28
 668 1152 668 1152 541.5 1025 c 128,-1,29
 415 898 415 898 415 720 c 128,-1,30
 415 542 415 542 541.5 415 c 128,-1,31
 668 288 668 288 847 288 c 0,32,33
 947 288 947 288 1036 331.5 c 128,-1,34
 1125 375 1125 375 1185 451 c 1,35,-1
 1240 405 l 1,36,37
 1170 317 1170 317 1067 266.5 c 128,-1,38
 964 216 964 216 847 216 c 0,39,40
 710 216 710 216 594 283.5 c 128,-1,41
 478 351 478 351 410.5 467 c 128,-1,42
 343 583 343 583 343 720 c 128,-1,43
 343 857 343 857 410.5 973 c 128,-1,44
 478 1089 478 1089 594 1156.5 c 128,-1,45
 710 1224 710 1224 847 1224 c 0,46,47
 964 1224 964 1224 1067.5 1173.5 c 128,-1,48
 1171 1123 1171 1123 1241 1034 c 1,23,-1
1354 1124 m 1,49,-1
 1298 1079 l 1,50,51
 1217 1180 1217 1180 1099 1238 c 128,-1,52
 981 1296 981 1296 847 1296 c 0,53,54
 730 1296 730 1296 623.5 1250.5 c 128,-1,55
 517 1205 517 1205 439.5 1127.5 c 128,-1,56
 362 1050 362 1050 316.5 943.5 c 128,-1,57
 271 837 271 837 271 720 c 128,-1,58
 271 603 271 603 316.5 496.5 c 128,-1,59
 362 390 362 390 439.5 312.5 c 128,-1,60
 517 235 517 235 623.5 189.5 c 128,-1,61
 730 144 730 144 847 144 c 0,62,63
 981 144 981 144 1099 202 c 128,-1,64
 1217 260 1217 260 1298 361 c 1,65,-1
 1352 314 l 1,66,67
 1261 201 1261 201 1129 136.5 c 128,-1,68
 997 72 997 72 847 72 c 0,69,70
 715 72 715 72 595 123.5 c 128,-1,71
 475 175 475 175 388.5 261.5 c 128,-1,72
 302 348 302 348 250.5 468 c 128,-1,73
 199 588 199 588 199 720 c 128,-1,74
 199 852 199 852 250.5 972 c 128,-1,75
 302 1092 302 1092 388.5 1178.5 c 128,-1,76
 475 1265 475 1265 595 1316.5 c 128,-1,77
 715 1368 715 1368 847 1368 c 0,78,79
 998 1368 998 1368 1130.5 1303 c 128,-1,80
 1263 1238 1263 1238 1354 1124 c 1,49,-1
1466 1214 m 1,81,-1
 1408 1171 l 1,82,83
 1307 1296 1307 1296 1160.5 1368 c 128,-1,84
 1014 1440 1014 1440 847 1440 c 0,85,86
 701 1440 701 1440 567.5 1383 c 128,-1,87
 434 1326 434 1326 337.5 1229.5 c 128,-1,88
 241 1133 241 1133 184 999.5 c 128,-1,89
 127 866 127 866 127 720 c 128,-1,90
 127 574 127 574 184 440.5 c 128,-1,91
 241 307 241 307 337.5 210.5 c 128,-1,92
 434 114 434 114 567.5 57 c 128,-1,93
 701 0 701 0 847 0 c 0,94,95
 1014 0 1014 0 1160.5 72 c 128,-1,96
 1307 144 1307 144 1408 269 c 1,97,-1
 1465 225 l 1,98,99
 1354 87 1354 87 1192.5 7.5 c 128,-1,100
 1031 -72 1031 -72 847 -72 c 0,101,102
 686 -72 686 -72 539.5 -9 c 128,-1,103
 393 54 393 54 287 160 c 128,-1,104
 181 266 181 266 118 412.5 c 128,-1,105
 55 559 55 559 55 720 c 128,-1,106
 55 881 55 881 118 1027.5 c 128,-1,107
 181 1174 181 1174 287 1280 c 128,-1,108
 393 1386 393 1386 539.5 1449 c 128,-1,109
 686 1512 686 1512 847 1512 c 0,110,111
 1031 1512 1031 1512 1193 1432.5 c 128,-1,112
 1355 1353 1355 1353 1466 1214 c 1,81,-1
EndSplineSet
EndChar

StartChar: d
Encoding: 100 100 74
Width: 1706
Flags: W
LayerCount: 2
Fore
SplineSet
525 432 m 1,0,-1
 525 1008 l 1,1,2
 525 1008 525 1008 924 1008 c 0,3,4
 1035 1008 1035 1008 1114.5 924 c 128,-1,5
 1194 840 1194 840 1194 722 c 0,6,7
 1194 600 1194 600 1115 516 c 128,-1,8
 1036 432 1036 432 924 432 c 2,9,-1
 525 432 l 1,0,-1
597 504 m 1,10,-1
 924 504 l 2,11,12
 1005 504 1005 504 1062.5 567 c 128,-1,13
 1120 630 1120 630 1120 722 c 0,14,15
 1120 810 1120 810 1062.5 873 c 128,-1,16
 1005 936 1005 936 924 936 c 2,17,-1
 597 936 l 1,18,-1
 597 504 l 1,10,-1
453 360 m 1,19,-1
 924 360 l 2,20,21
 1066 360 1066 360 1167 465.5 c 128,-1,22
 1268 571 1268 571 1268 722 c 0,23,24
 1268 870 1268 870 1166.5 975 c 128,-1,25
 1065 1080 1065 1080 924 1080 c 2,26,-1
 453 1080 l 1,27,-1
 453 360 l 1,19,-1
381 288 m 1,28,-1
 381 1152 l 1,29,-1
 924 1152 l 2,30,31
 1095 1152 1095 1152 1218.5 1025.5 c 128,-1,32
 1342 899 1342 899 1342 722 c 0,33,34
 1342 541 1342 541 1219 414.5 c 128,-1,35
 1096 288 1096 288 924 288 c 2,36,-1
 381 288 l 1,28,-1
309 216 m 1,37,-1
 924 216 l 2,38,39
 1056 216 1056 216 1169 283 c 128,-1,40
 1282 350 1282 350 1349 467 c 128,-1,41
 1416 584 1416 584 1416 722 c 0,42,43
 1416 857 1416 857 1349 973 c 128,-1,44
 1282 1089 1282 1089 1168.5 1156.5 c 128,-1,45
 1055 1224 1055 1224 924 1224 c 2,46,-1
 309 1224 l 1,47,-1
 309 216 l 1,37,-1
237 144 m 1,48,-1
 237 1296 l 1,49,-1
 924 1296 l 2,50,51
 1075 1296 1075 1296 1205.5 1219 c 128,-1,52
 1336 1142 1336 1142 1413 1009.5 c 128,-1,53
 1490 877 1490 877 1490 722 c 0,54,55
 1490 565 1490 565 1413 431.5 c 128,-1,56
 1336 298 1336 298 1205.5 221 c 128,-1,57
 1075 144 1075 144 924 144 c 2,58,-1
 237 144 l 1,48,-1
165 72 m 1,59,-1
 924 72 l 2,60,61
 1095 72 1095 72 1242 158.5 c 128,-1,62
 1389 245 1389 245 1476.5 395 c 128,-1,63
 1564 545 1564 545 1564 722 c 0,64,65
 1564 896 1564 896 1476.5 1045.5 c 128,-1,66
 1389 1195 1389 1195 1241.5 1281.5 c 128,-1,67
 1094 1368 1094 1368 924 1368 c 2,68,-1
 165 1368 l 1,69,-1
 165 72 l 1,59,-1
924 0 m 2,70,-1
 93 0 l 1,71,-1
 93 1440 l 1,72,-1
 924 1440 l 2,73,74
 1114 1440 1114 1440 1278.5 1343.5 c 128,-1,75
 1443 1247 1443 1247 1540.5 1081.5 c 128,-1,76
 1638 916 1638 916 1638 722 c 0,77,78
 1638 575 1638 575 1580.5 441 c 128,-1,79
 1523 307 1523 307 1426.5 210.5 c 128,-1,80
 1330 114 1330 114 1198 57 c 128,-1,81
 1066 0 1066 0 924 0 c 2,70,-1
EndSplineSet
EndChar

StartChar: e
Encoding: 101 101 75
Width: 1366
Flags: W
LayerCount: 2
Fore
SplineSet
453 0 m 1,0,-1
 381 0 l 1,1,-1
 381 1440 l 1,2,-1
 453 1440 l 1,3,-1
 453 0 l 1,0,-1
309 0 m 1,4,-1
 237 0 l 1,5,-1
 237 1440 l 1,6,-1
 309 1440 l 1,7,-1
 309 0 l 1,4,-1
165 0 m 1,8,-1
 93 0 l 1,9,-1
 93 1440 l 1,10,-1
 165 1440 l 1,11,-1
 165 0 l 1,8,-1
597 360 m 1,12,-1
 1286 360 l 1,13,-1
 1286 288 l 1,14,-1
 597 288 l 1,15,-1
 597 216 l 1,16,-1
 1286 216 l 1,17,-1
 1286 144 l 1,18,-1
 597 144 l 1,19,-1
 597 72 l 1,20,-1
 1286 72 l 1,21,-1
 1286 0 l 1,22,-1
 525 0 l 1,23,-1
 525 1440 l 1,24,-1
 1286 1440 l 1,25,-1
 1286 1368 l 1,26,-1
 597 1368 l 1,27,-1
 597 1296 l 1,28,-1
 1286 1296 l 1,29,-1
 1286 1224 l 1,30,-1
 597 1224 l 1,31,-1
 597 1152 l 1,32,-1
 1286 1152 l 1,33,-1
 1286 1080 l 1,34,-1
 597 1080 l 1,35,-1
 597 901 l 1,36,-1
 1246 901 l 1,37,-1
 1246 829 l 1,38,-1
 597 829 l 1,39,-1
 597 757 l 1,40,-1
 1246 757 l 1,41,-1
 1246 685 l 1,42,-1
 597 685 l 1,43,-1
 597 613 l 1,44,-1
 1246 613 l 1,45,-1
 1246 541 l 1,46,-1
 597 541 l 1,47,-1
 597 360 l 1,12,-1
EndSplineSet
EndChar

StartChar: f
Encoding: 102 102 76
Width: 1281
Flags: W
LayerCount: 2
Fore
SplineSet
597 0 m 1,0,-1
 525 0 l 1,1,-1
 525 1440 l 1,2,-1
 1212 1440 l 1,3,-1
 1212 1368 l 1,4,-1
 597 1368 l 1,5,-1
 597 1296 l 1,6,-1
 1212 1296 l 1,7,-1
 1212 1224 l 1,8,-1
 597 1224 l 1,9,-1
 597 1152 l 1,10,-1
 1212 1152 l 1,11,-1
 1212 1080 l 1,12,-1
 597 1080 l 1,13,-1
 597 860 l 1,14,-1
 1164 860 l 1,15,-1
 1164 788 l 1,16,-1
 597 788 l 1,17,-1
 597 716 l 1,18,-1
 1164 716 l 1,19,-1
 1164 644 l 1,20,-1
 597 644 l 1,21,-1
 597 572 l 1,22,-1
 1164 572 l 1,23,-1
 1164 500 l 1,24,-1
 597 500 l 1,25,-1
 597 0 l 1,0,-1
453 0 m 1,26,-1
 381 0 l 1,27,-1
 381 1440 l 1,28,-1
 453 1440 l 1,29,-1
 453 0 l 1,26,-1
309 0 m 1,30,-1
 237 0 l 1,31,-1
 237 1440 l 1,32,-1
 309 1440 l 1,33,-1
 309 0 l 1,30,-1
165 0 m 1,34,-1
 93 0 l 1,35,-1
 93 1440 l 1,36,-1
 165 1440 l 1,37,-1
 165 0 l 1,34,-1
EndSplineSet
EndChar

StartChar: g
Encoding: 103 103 77
Width: 1694
Flags: W
LayerCount: 2
Fore
SplineSet
1106 730 m 1,0,-1
 1178 730 l 1,1,-1
 1178 0 l 1,2,3
 1018 -72 1018 -72 847 -72 c 0,4,5
 686 -72 686 -72 539.5 -9 c 128,-1,6
 393 54 393 54 287 160 c 128,-1,7
 181 266 181 266 118 412.5 c 128,-1,8
 55 559 55 559 55 720 c 128,-1,9
 55 881 55 881 118 1027.5 c 128,-1,10
 181 1174 181 1174 287 1280 c 128,-1,11
 393 1386 393 1386 539.5 1449 c 128,-1,12
 686 1512 686 1512 847 1512 c 0,13,14
 1031 1512 1031 1512 1193 1432.5 c 128,-1,15
 1355 1353 1355 1353 1466 1214 c 1,16,-1
 1408 1171 l 1,17,18
 1307 1296 1307 1296 1160.5 1368 c 128,-1,19
 1014 1440 1014 1440 847 1440 c 0,20,21
 701 1440 701 1440 567.5 1383 c 128,-1,22
 434 1326 434 1326 337.5 1229.5 c 128,-1,23
 241 1133 241 1133 184 999.5 c 128,-1,24
 127 866 127 866 127 720 c 128,-1,25
 127 574 127 574 184 440.5 c 128,-1,26
 241 307 241 307 337.5 210.5 c 128,-1,27
 434 114 434 114 567.5 57 c 128,-1,28
 701 0 701 0 847 0 c 0,29,30
 982 0 982 0 1106 48 c 1,31,-1
 1106 122 l 1,32,33
 981 72 981 72 847 72 c 0,34,35
 715 72 715 72 595 123.5 c 128,-1,36
 475 175 475 175 388.5 261.5 c 128,-1,37
 302 348 302 348 250.5 468 c 128,-1,38
 199 588 199 588 199 720 c 128,-1,39
 199 852 199 852 250.5 972 c 128,-1,40
 302 1092 302 1092 388.5 1178.5 c 128,-1,41
 475 1265 475 1265 595 1316.5 c 128,-1,42
 715 1368 715 1368 847 1368 c 0,43,44
 998 1368 998 1368 1130.5 1303 c 128,-1,45
 1263 1238 1263 1238 1354 1124 c 1,46,-1
 1298 1079 l 1,47,48
 1217 1180 1217 1180 1099 1238 c 128,-1,49
 981 1296 981 1296 847 1296 c 0,50,51
 730 1296 730 1296 623.5 1250.5 c 128,-1,52
 517 1205 517 1205 439.5 1127.5 c 128,-1,53
 362 1050 362 1050 316.5 943.5 c 128,-1,54
 271 837 271 837 271 720 c 128,-1,55
 271 603 271 603 316.5 496.5 c 128,-1,56
 362 390 362 390 439.5 312.5 c 128,-1,57
 517 235 517 235 623.5 189.5 c 128,-1,58
 730 144 730 144 847 144 c 0,59,60
 985 144 985 144 1106 200 c 1,61,-1
 1106 274 l 1,62,63
 985 216 985 216 847 216 c 0,64,65
 710 216 710 216 594 283.5 c 128,-1,66
 478 351 478 351 410.5 467 c 128,-1,67
 343 583 343 583 343 720 c 128,-1,68
 343 857 343 857 410.5 973 c 128,-1,69
 478 1089 478 1089 594 1156.5 c 128,-1,70
 710 1224 710 1224 847 1224 c 0,71,72
 964 1224 964 1224 1067.5 1173.5 c 128,-1,73
 1171 1123 1171 1123 1241 1034 c 1,74,-1
 1184 990 l 1,75,76
 1124 1066 1124 1066 1035.5 1109 c 128,-1,77
 947 1152 947 1152 847 1152 c 0,78,79
 668 1152 668 1152 541.5 1025 c 128,-1,80
 415 898 415 898 415 720 c 128,-1,81
 415 542 415 542 541.5 415 c 128,-1,82
 668 288 668 288 847 288 c 0,83,84
 987 288 987 288 1106 356 c 1,85,-1
 1106 429 l 1,86,87
 989 360 989 360 847 360 c 0,88,89
 698 360 698 360 592.5 465.5 c 128,-1,90
 487 571 487 571 487 720 c 128,-1,91
 487 869 487 869 592.5 974.5 c 128,-1,92
 698 1080 698 1080 847 1080 c 0,93,94
 931 1080 931 1080 1005 1043.5 c 128,-1,95
 1079 1007 1079 1007 1129 944 c 1,96,-1
 1071 900 l 1,97,98
 984 1008 984 1008 847 1008 c 0,99,100
 728 1008 728 1008 643.5 923.5 c 128,-1,101
 559 839 559 839 559 720 c 128,-1,102
 559 601 559 601 643.5 516.5 c 128,-1,103
 728 432 728 432 847 432 c 0,104,105
 1000 432 1000 432 1106 517 c 1,106,-1
 1106 730 l 1,0,-1
1538 730 m 1,107,-1
 1610 730 l 1,108,-1
 1610 0 l 1,109,-1
 1538 0 l 1,110,-1
 1538 730 l 1,107,-1
1394 730 m 1,111,-1
 1466 730 l 1,112,-1
 1466 0 l 1,113,-1
 1394 0 l 1,114,-1
 1394 730 l 1,111,-1
1250 730 m 1,115,-1
 1322 730 l 1,116,-1
 1322 0 l 1,117,-1
 1250 0 l 1,118,-1
 1250 730 l 1,115,-1
EndSplineSet
EndChar

StartChar: h
Encoding: 104 104 78
Width: 1701
Flags: W
LayerCount: 2
Fore
SplineSet
1534 1440 m 1,0,-1
 1606 1440 l 1,1,-1
 1606 0 l 1,2,-1
 1534 0 l 1,3,-1
 1534 1440 l 1,0,-1
93 1440 m 1,4,-1
 165 1440 l 1,5,-1
 165 0 l 1,6,-1
 93 0 l 1,7,-1
 93 1440 l 1,4,-1
1390 1440 m 1,8,-1
 1462 1440 l 1,9,-1
 1462 0 l 1,10,-1
 1390 0 l 1,11,-1
 1390 1440 l 1,8,-1
1246 1440 m 1,12,-1
 1318 1440 l 1,13,-1
 1318 0 l 1,14,-1
 1246 0 l 1,15,-1
 1246 1440 l 1,12,-1
1102 1440 m 1,16,-1
 1174 1440 l 1,17,-1
 1174 0 l 1,18,-1
 1102 0 l 1,19,-1
 1102 576 l 1,20,-1
 597 576 l 1,21,-1
 597 0 l 1,22,-1
 525 0 l 1,23,-1
 525 1440 l 1,24,-1
 597 1440 l 1,25,-1
 597 936 l 1,26,-1
 1102 936 l 1,27,-1
 1102 1440 l 1,16,-1
381 1440 m 1,28,-1
 453 1440 l 1,29,-1
 453 0 l 1,30,-1
 381 0 l 1,31,-1
 381 1440 l 1,28,-1
237 1440 m 1,32,-1
 309 1440 l 1,33,-1
 309 0 l 1,34,-1
 237 0 l 1,35,-1
 237 1440 l 1,32,-1
1102 648 m 1,36,-1
 1102 720 l 1,37,-1
 597 720 l 1,38,-1
 597 648 l 1,39,-1
 1102 648 l 1,36,-1
1102 792 m 1,40,-1
 1102 864 l 1,41,-1
 597 864 l 1,42,-1
 597 792 l 1,43,-1
 1102 792 l 1,40,-1
EndSplineSet
EndChar

StartChar: i
Encoding: 105 105 79
Width: 692
Flags: W
LayerCount: 2
Fore
SplineSet
525 1440 m 1,0,-1
 597 1440 l 1,1,-1
 597 0 l 1,2,-1
 525 0 l 1,3,-1
 525 1440 l 1,0,-1
381 1440 m 1,4,-1
 453 1440 l 1,5,-1
 453 0 l 1,6,-1
 381 0 l 1,7,-1
 381 1440 l 1,4,-1
237 1440 m 1,8,-1
 309 1440 l 1,9,-1
 309 0 l 1,10,-1
 237 0 l 1,11,-1
 237 1440 l 1,8,-1
93 1440 m 1,12,-1
 165 1440 l 1,13,-1
 165 0 l 1,14,-1
 93 0 l 1,15,-1
 93 1440 l 1,12,-1
EndSplineSet
EndChar

StartChar: j
Encoding: 106 106 80
Width: 806
Flags: W
LayerCount: 2
Fore
SplineSet
47 217 m 1,0,-1
 47 289 l 1,1,2
 117 289 117 289 164.5 329 c 128,-1,3
 212 369 212 369 212 435 c 2,4,-1
 212 1440 l 1,5,-1
 284 1440 l 1,6,-1
 284 435 l 2,7,8
 284 340 284 340 215 278.5 c 128,-1,9
 146 217 146 217 47 217 c 1,0,-1
47 73 m 1,10,-1
 47 145 l 1,11,12
 177 145 177 145 266.5 229.5 c 128,-1,13
 356 314 356 314 356 435 c 2,14,-1
 356 1440 l 1,15,-1
 428 1440 l 1,16,-1
 428 435 l 2,17,18
 428 285 428 285 317.5 179 c 128,-1,19
 207 73 207 73 47 73 c 1,10,-1
47 -71 m 1,20,-1
 47 1 l 1,21,22
 237 1 237 1 368.5 128 c 128,-1,23
 500 255 500 255 500 435 c 2,24,-1
 500 1440 l 1,25,-1
 572 1440 l 1,26,-1
 572 435 l 2,27,28
 572 298 572 298 502.5 181.5 c 128,-1,29
 433 65 433 65 312 -3 c 128,-1,30
 191 -71 191 -71 47 -71 c 1,20,-1
47 -215 m 1,31,-1
 47 -143 l 1,32,33
 170 -143 170 -143 280.5 -97 c 128,-1,34
 391 -51 391 -51 470.5 26.5 c 128,-1,35
 550 104 550 104 597 211 c 128,-1,36
 644 318 644 318 644 435 c 2,37,-1
 644 1440 l 1,38,-1
 716 1440 l 1,39,-1
 716 435 l 2,40,41
 716 303 716 303 663.5 183 c 128,-1,42
 611 63 611 63 521.5 -24.5 c 128,-1,43
 432 -112 432 -112 308 -163.5 c 128,-1,44
 184 -215 184 -215 47 -215 c 1,31,-1
EndSplineSet
EndChar

StartChar: k
Encoding: 107 107 81
Width: 1642
Flags: W
LayerCount: 2
Fore
SplineSet
1606 1440 m 1,0,-1
 1526 1440 l 1,1,-1
 1125 714 l 1,2,-1
 1520 0 l 1,3,-1
 1600 0 l 1,4,-1
 1205 714 l 1,5,-1
 1606 1440 l 1,0,-1
1445 1440 m 1,6,-1
 1365 1440 l 1,7,-1
 964 714 l 1,8,-1
 1359 0 l 1,9,-1
 1439 0 l 1,10,-1
 1044 714 l 1,11,-1
 1445 1440 l 1,6,-1
1284 1440 m 1,12,-1
 1204 1440 l 1,13,-1
 803 714 l 1,14,-1
 1198 0 l 1,15,-1
 1278 0 l 1,16,-1
 883 714 l 1,17,-1
 1284 1440 l 1,12,-1
1123 1440 m 1,18,-1
 1043 1440 l 1,19,-1
 641 714 l 1,20,-1
 1037 0 l 1,21,-1
 1117 0 l 1,22,-1
 721 714 l 1,23,-1
 1123 1440 l 1,18,-1
525 1440 m 1,24,-1
 597 1440 l 1,25,-1
 597 0 l 1,26,-1
 525 0 l 1,27,-1
 525 1440 l 1,24,-1
381 1440 m 1,28,-1
 453 1440 l 1,29,-1
 453 0 l 1,30,-1
 381 0 l 1,31,-1
 381 1440 l 1,28,-1
237 1440 m 1,32,-1
 309 1440 l 1,33,-1
 309 0 l 1,34,-1
 237 0 l 1,35,-1
 237 1440 l 1,32,-1
93 1440 m 1,36,-1
 165 1440 l 1,37,-1
 165 0 l 1,38,-1
 93 0 l 1,39,-1
 93 1440 l 1,36,-1
EndSplineSet
EndChar

StartChar: l
Encoding: 108 108 82
Width: 1194
Flags: W
LayerCount: 2
Fore
SplineSet
93 1440 m 1,0,-1
 165 1440 l 1,1,-1
 165 0 l 1,2,-1
 93 0 l 1,3,-1
 93 1440 l 1,0,-1
525 1440 m 1,4,-1
 597 1440 l 1,5,-1
 597 360 l 1,6,-1
 1128 360 l 1,7,-1
 1128 288 l 1,8,-1
 597 288 l 1,9,-1
 597 216 l 1,10,-1
 1128 216 l 1,11,-1
 1128 144 l 1,12,-1
 597 144 l 1,13,-1
 597 72 l 1,14,-1
 1128 72 l 1,15,-1
 1128 0 l 1,16,-1
 525 0 l 1,17,-1
 525 1440 l 1,4,-1
381 1440 m 1,18,-1
 453 1440 l 1,19,-1
 453 0 l 1,20,-1
 381 0 l 1,21,-1
 381 1440 l 1,18,-1
237 1440 m 1,22,-1
 309 1440 l 1,23,-1
 309 0 l 1,24,-1
 237 0 l 1,25,-1
 237 1440 l 1,22,-1
EndSplineSet
EndChar

StartChar: m
Encoding: 109 109 83
Width: 2392
Flags: W
LayerCount: 2
Fore
SplineSet
1013 900 m 2,0,-1
 1013 0 l 1,1,-1
 941 0 l 1,2,-1
 941 900 l 2,3,4
 941 929 941 929 931.5 949.5 c 128,-1,5
 922 970 922 970 907 981 c 128,-1,6
 892 992 892 992 867.5 998.5 c 128,-1,7
 843 1005 843 1005 820 1006.5 c 128,-1,8
 797 1008 797 1008 763 1008 c 128,-1,9
 729 1008 729 1008 706 1006.5 c 128,-1,10
 683 1005 683 1005 658.5 998.5 c 128,-1,11
 634 992 634 992 619 981 c 128,-1,12
 604 970 604 970 594.5 949.5 c 128,-1,13
 585 929 585 929 585 900 c 2,14,-1
 585 0 l 1,15,-1
 513 0 l 1,16,-1
 513 900 l 2,17,18
 513 1080 513 1080 763 1080 c 128,-1,19
 1013 1080 1013 1080 1013 900 c 2,0,-1
1157 900 m 2,20,-1
 1157 0 l 1,21,-1
 1085 0 l 1,22,-1
 1085 900 l 2,23,24
 1085 1027 1085 1027 995.5 1089.5 c 128,-1,25
 906 1152 906 1152 763 1152 c 128,-1,26
 620 1152 620 1152 530.5 1089.5 c 128,-1,27
 441 1027 441 1027 441 900 c 2,28,-1
 441 0 l 1,29,-1
 369 0 l 1,30,-1
 369 900 l 2,31,32
 369 1005 369 1005 423 1080 c 128,-1,33
 477 1155 477 1155 564.5 1189.5 c 128,-1,34
 652 1224 652 1224 763 1224 c 128,-1,35
 874 1224 874 1224 961.5 1189.5 c 128,-1,36
 1049 1155 1049 1155 1103 1080 c 128,-1,37
 1157 1005 1157 1005 1157 900 c 2,20,-1
1301 900 m 2,38,-1
 1301 0 l 1,39,-1
 1229 0 l 1,40,-1
 1229 900 l 2,41,42
 1229 994 1229 994 1192.5 1070 c 128,-1,43
 1156 1146 1156 1146 1092 1195 c 128,-1,44
 1028 1244 1028 1244 944 1270 c 128,-1,45
 860 1296 860 1296 763 1296 c 128,-1,46
 666 1296 666 1296 582 1270 c 128,-1,47
 498 1244 498 1244 434 1195 c 128,-1,48
 370 1146 370 1146 333.5 1070 c 128,-1,49
 297 994 297 994 297 900 c 2,50,-1
 297 0 l 1,51,-1
 225 0 l 1,52,-1
 225 900 l 2,53,54
 225 1009 225 1009 267.5 1098 c 128,-1,55
 310 1187 310 1187 383 1245.5 c 128,-1,56
 456 1304 456 1304 554 1336 c 128,-1,57
 652 1368 652 1368 763 1368 c 128,-1,58
 874 1368 874 1368 972 1336 c 128,-1,59
 1070 1304 1070 1304 1143 1245.5 c 128,-1,60
 1216 1187 1216 1187 1258.5 1098 c 128,-1,61
 1301 1009 1301 1009 1301 900 c 2,38,-1
1445 0 m 1,62,-1
 1373 0 l 1,63,-1
 1373 900 l 2,64,65
 1373 1009 1373 1009 1324.5 1109 c 128,-1,66
 1276 1209 1276 1209 1194 1281.5 c 128,-1,67
 1112 1354 1112 1354 999 1397 c 128,-1,68
 886 1440 886 1440 763 1440 c 0,69,70
 594 1440 594 1440 456.5 1376.5 c 128,-1,71
 319 1313 319 1313 236 1188.5 c 128,-1,72
 153 1064 153 1064 153 900 c 2,73,-1
 153 0 l 1,74,-1
 81 0 l 1,75,-1
 81 900 l 2,76,77
 81 1038 81 1038 135 1154 c 128,-1,78
 189 1270 189 1270 281.5 1348 c 128,-1,79
 374 1426 374 1426 498.5 1469 c 128,-1,80
 623 1512 623 1512 763 1512 c 0,81,82
 1011 1512 1011 1512 1193 1387 c 1,83,84
 1375 1512 1375 1512 1623 1512 c 0,85,86
 1763 1512 1763 1512 1887.5 1469 c 128,-1,87
 2012 1426 2012 1426 2104.5 1348 c 128,-1,88
 2197 1270 2197 1270 2251 1154 c 128,-1,89
 2305 1038 2305 1038 2305 900 c 2,90,-1
 2305 0 l 1,91,-1
 2233 0 l 1,92,-1
 2233 900 l 2,93,94
 2233 1063 2233 1063 2150 1187.5 c 128,-1,95
 2067 1312 2067 1312 1929.5 1376 c 128,-1,96
 1792 1440 1792 1440 1623 1440 c 0,97,98
 1411 1440 1411 1440 1253 1340 c 1,99,100
 1276 1320 1276 1320 1304 1288 c 1,101,102
 1441 1368 1441 1368 1623 1368 c 0,103,104
 1734 1368 1734 1368 1832 1336 c 128,-1,105
 1930 1304 1930 1304 2003 1245.5 c 128,-1,106
 2076 1187 2076 1187 2118.5 1098 c 128,-1,107
 2161 1009 2161 1009 2161 900 c 2,108,-1
 2161 0 l 1,109,-1
 2089 0 l 1,110,-1
 2089 900 l 2,111,112
 2089 994 2089 994 2052.5 1070 c 128,-1,113
 2016 1146 2016 1146 1952 1195 c 128,-1,114
 1888 1244 1888 1244 1804 1270 c 128,-1,115
 1720 1296 1720 1296 1623 1296 c 0,116,117
 1464 1296 1464 1296 1348 1231 c 1,118,119
 1366 1203 1366 1203 1384 1169 c 1,120,121
 1482 1224 1482 1224 1623 1224 c 0,122,123
 1734 1224 1734 1224 1821.5 1189.5 c 128,-1,124
 1909 1155 1909 1155 1963 1080 c 128,-1,125
 2017 1005 2017 1005 2017 900 c 2,126,-1
 2017 0 l 1,127,-1
 1945 0 l 1,128,-1
 1945 900 l 2,129,130
 1945 1027 1945 1027 1855.5 1089.5 c 128,-1,131
 1766 1152 1766 1152 1623 1152 c 0,132,133
 1493 1152 1493 1152 1412 1104 c 1,134,135
 1425 1066 1425 1066 1432 1032 c 1,136,137
 1495 1080 1495 1080 1623 1080 c 0,138,139
 1873 1080 1873 1080 1873 900 c 2,140,-1
 1873 0 l 1,141,-1
 1801 0 l 1,142,-1
 1801 900 l 2,143,144
 1801 929 1801 929 1791.5 949.5 c 128,-1,145
 1782 970 1782 970 1767 981 c 128,-1,146
 1752 992 1752 992 1727.5 998.5 c 128,-1,147
 1703 1005 1703 1005 1680 1006.5 c 128,-1,148
 1657 1008 1657 1008 1623 1008 c 128,-1,149
 1589 1008 1589 1008 1566 1006.5 c 128,-1,150
 1543 1005 1543 1005 1518.5 998.5 c 128,-1,151
 1494 992 1494 992 1479 981 c 128,-1,152
 1464 970 1464 970 1454.5 949.5 c 128,-1,153
 1445 929 1445 929 1445 900 c 2,154,-1
 1445 0 l 1,62,-1
EndSplineSet
EndChar

StartChar: n
Encoding: 110 110 84
Width: 1612
Flags: W
LayerCount: 2
Fore
SplineSet
1229 581 m 1,0,-1
 1157 712 l 1,1,-1
 1157 1440 l 1,2,-1
 1229 1440 l 1,3,-1
 1229 581 l 1,0,-1
1373 332 m 1,4,-1
 1301 454 l 1,5,-1
 1301 1440 l 1,6,-1
 1373 1440 l 1,7,-1
 1373 332 l 1,4,-1
381 859 m 1,8,-1
 453 728 l 1,9,-1
 453 0 l 1,10,-1
 381 0 l 1,11,-1
 381 859 l 1,8,-1
237 1118 m 1,12,-1
 309 986 l 1,13,-1
 309 0 l 1,14,-1
 237 0 l 1,15,-1
 237 1118 l 1,12,-1
262 1440 m 1,16,-1
 346 1440 l 1,17,-1
 1180 0 l 1,18,-1
 1096 0 l 1,19,-1
 262 1440 l 1,16,-1
432 1440 m 1,20,-1
 517 1440 l 1,21,-1
 1350 0 l 1,22,-1
 1264 0 l 1,23,-1
 432 1440 l 1,20,-1
601 1440 m 1,24,-1
 685 1440 l 1,25,-1
 1445 125 l 1,26,-1
 1445 1440 l 1,27,-1
 1517 1440 l 1,28,-1
 1517 0 l 1,29,-1
 1432 0 l 1,30,-1
 601 1440 l 1,24,-1
165 1316 m 1,31,-1
 165 0 l 1,32,-1
 93 0 l 1,33,-1
 93 1440 l 1,34,-1
 179 1440 l 1,35,-1
 1010 0 l 1,36,-1
 927 0 l 1,37,-1
 165 1316 l 1,31,-1
EndSplineSet
EndChar

StartChar: o
Encoding: 111 111 85
Width: 1707
Flags: W
LayerCount: 2
Fore
SplineSet
559 720 m 128,-1,1
 559 601 559 601 643.5 516.5 c 128,-1,2
 728 432 728 432 847 432 c 128,-1,3
 966 432 966 432 1050.5 516.5 c 128,-1,4
 1135 601 1135 601 1135 720 c 128,-1,5
 1135 839 1135 839 1050.5 923.5 c 128,-1,6
 966 1008 966 1008 847 1008 c 128,-1,7
 728 1008 728 1008 643.5 923.5 c 128,-1,0
 559 839 559 839 559 720 c 128,-1,1
487 720 m 128,-1,9
 487 869 487 869 592.5 974.5 c 128,-1,10
 698 1080 698 1080 847 1080 c 128,-1,11
 996 1080 996 1080 1101.5 974.5 c 128,-1,12
 1207 869 1207 869 1207 720 c 128,-1,13
 1207 571 1207 571 1101.5 465.5 c 128,-1,14
 996 360 996 360 847 360 c 128,-1,15
 698 360 698 360 592.5 465.5 c 128,-1,8
 487 571 487 571 487 720 c 128,-1,9
415 720 m 128,-1,17
 415 542 415 542 541.5 415 c 128,-1,18
 668 288 668 288 847 288 c 128,-1,19
 1026 288 1026 288 1152.5 415 c 128,-1,20
 1279 542 1279 542 1279 720 c 128,-1,21
 1279 898 1279 898 1152.5 1025 c 128,-1,22
 1026 1152 1026 1152 847 1152 c 128,-1,23
 668 1152 668 1152 541.5 1025 c 128,-1,16
 415 898 415 898 415 720 c 128,-1,17
343 720 m 128,-1,25
 343 857 343 857 410.5 973 c 128,-1,26
 478 1089 478 1089 594 1156.5 c 128,-1,27
 710 1224 710 1224 847 1224 c 128,-1,28
 984 1224 984 1224 1100 1156.5 c 128,-1,29
 1216 1089 1216 1089 1283.5 973 c 128,-1,30
 1351 857 1351 857 1351 720 c 128,-1,31
 1351 583 1351 583 1283.5 467 c 128,-1,32
 1216 351 1216 351 1100 283.5 c 128,-1,33
 984 216 984 216 847 216 c 128,-1,34
 710 216 710 216 594 283.5 c 128,-1,35
 478 351 478 351 410.5 467 c 128,-1,24
 343 583 343 583 343 720 c 128,-1,25
271 720 m 128,-1,37
 271 603 271 603 316.5 496.5 c 128,-1,38
 362 390 362 390 439.5 312.5 c 128,-1,39
 517 235 517 235 623.5 189.5 c 128,-1,40
 730 144 730 144 847 144 c 128,-1,41
 964 144 964 144 1070.5 189.5 c 128,-1,42
 1177 235 1177 235 1254.5 312.5 c 128,-1,43
 1332 390 1332 390 1377.5 496.5 c 128,-1,44
 1423 603 1423 603 1423 720 c 128,-1,45
 1423 837 1423 837 1377.5 943.5 c 128,-1,46
 1332 1050 1332 1050 1254.5 1127.5 c 128,-1,47
 1177 1205 1177 1205 1070.5 1250.5 c 128,-1,48
 964 1296 964 1296 847 1296 c 128,-1,49
 730 1296 730 1296 623.5 1250.5 c 128,-1,50
 517 1205 517 1205 439.5 1127.5 c 128,-1,51
 362 1050 362 1050 316.5 943.5 c 128,-1,36
 271 837 271 837 271 720 c 128,-1,37
199 720 m 128,-1,53
 199 852 199 852 250.5 972 c 128,-1,54
 302 1092 302 1092 388.5 1178.5 c 128,-1,55
 475 1265 475 1265 595 1316.5 c 128,-1,56
 715 1368 715 1368 847 1368 c 128,-1,57
 979 1368 979 1368 1099 1316.5 c 128,-1,58
 1219 1265 1219 1265 1305.5 1178.5 c 128,-1,59
 1392 1092 1392 1092 1443.5 972 c 128,-1,60
 1495 852 1495 852 1495 720 c 128,-1,61
 1495 588 1495 588 1443.5 468 c 128,-1,62
 1392 348 1392 348 1305.5 261.5 c 128,-1,63
 1219 175 1219 175 1099 123.5 c 128,-1,64
 979 72 979 72 847 72 c 128,-1,65
 715 72 715 72 595 123.5 c 128,-1,66
 475 175 475 175 388.5 261.5 c 128,-1,67
 302 348 302 348 250.5 468 c 128,-1,52
 199 588 199 588 199 720 c 128,-1,53
127 720 m 128,-1,69
 127 574 127 574 184 440.5 c 128,-1,70
 241 307 241 307 337.5 210.5 c 128,-1,71
 434 114 434 114 567.5 57 c 128,-1,72
 701 0 701 0 847 0 c 128,-1,73
 993 0 993 0 1126.5 57 c 128,-1,74
 1260 114 1260 114 1356.5 210.5 c 128,-1,75
 1453 307 1453 307 1510 440.5 c 128,-1,76
 1567 574 1567 574 1567 720 c 128,-1,77
 1567 866 1567 866 1510 999.5 c 128,-1,78
 1453 1133 1453 1133 1356.5 1229.5 c 128,-1,79
 1260 1326 1260 1326 1126.5 1383 c 128,-1,80
 993 1440 993 1440 847 1440 c 128,-1,81
 701 1440 701 1440 567.5 1383 c 128,-1,82
 434 1326 434 1326 337.5 1229.5 c 128,-1,83
 241 1133 241 1133 184 999.5 c 128,-1,68
 127 866 127 866 127 720 c 128,-1,69
55 720 m 128,-1,85
 55 881 55 881 118 1027.5 c 128,-1,86
 181 1174 181 1174 287 1280 c 128,-1,87
 393 1386 393 1386 539.5 1449 c 128,-1,88
 686 1512 686 1512 847 1512 c 128,-1,89
 1008 1512 1008 1512 1154.5 1449 c 128,-1,90
 1301 1386 1301 1386 1407 1280 c 128,-1,91
 1513 1174 1513 1174 1576 1027.5 c 128,-1,92
 1639 881 1639 881 1639 720 c 128,-1,93
 1639 559 1639 559 1576 412.5 c 128,-1,94
 1513 266 1513 266 1407 160 c 128,-1,95
 1301 54 1301 54 1154.5 -9 c 128,-1,96
 1008 -72 1008 -72 847 -72 c 128,-1,97
 686 -72 686 -72 539.5 -9 c 128,-1,98
 393 54 393 54 287 160 c 128,-1,99
 181 266 181 266 118 412.5 c 128,-1,84
 55 559 55 559 55 720 c 128,-1,85
EndSplineSet
EndChar

StartChar: p
Encoding: 112 112 86
Width: 1601
Flags: W
LayerCount: 2
Fore
SplineSet
652 678 m 1,0,-1
 957 678 l 2,1,2
 1047 678 1047 678 1110 732 c 128,-1,3
 1173 786 1173 786 1173 884 c 0,4,5
 1173 960 1173 960 1107 1020 c 128,-1,6
 1041 1080 1041 1080 957 1080 c 2,7,-1
 453 1080 l 1,8,-1
 453 0 l 1,9,-1
 381 0 l 1,10,-1
 381 1152 l 1,11,-1
 957 1152 l 2,12,13
 1072 1152 1072 1152 1158.5 1071 c 128,-1,14
 1245 990 1245 990 1245 884 c 0,15,16
 1245 757 1245 757 1161 681.5 c 128,-1,17
 1077 606 1077 606 957 606 c 2,18,-1
 652 606 l 1,19,-1
 652 678 l 1,0,-1
652 534 m 1,20,-1
 957 534 l 2,21,22
 1105 534 1105 534 1211 632 c 128,-1,23
 1317 730 1317 730 1317 884 c 0,24,25
 1317 1019 1317 1019 1209 1121.5 c 128,-1,26
 1101 1224 1101 1224 957 1224 c 2,27,-1
 309 1224 l 1,28,-1
 309 0 l 1,29,-1
 237 0 l 1,30,-1
 237 1296 l 1,31,-1
 957 1296 l 2,32,33
 1131 1296 1131 1296 1260 1172.5 c 128,-1,34
 1389 1049 1389 1049 1389 884 c 0,35,36
 1389 704 1389 704 1261.5 583 c 128,-1,37
 1134 462 1134 462 957 462 c 2,38,-1
 652 462 l 1,39,-1
 652 534 l 1,20,-1
652 390 m 1,40,-1
 957 390 l 2,41,42
 1092 390 1092 390 1207.5 454 c 128,-1,43
 1323 518 1323 518 1392 632 c 128,-1,44
 1461 746 1461 746 1461 884 c 0,45,46
 1461 1011 1461 1011 1392.5 1123 c 128,-1,47
 1324 1235 1324 1235 1207.5 1301.5 c 128,-1,48
 1091 1368 1091 1368 957 1368 c 2,49,-1
 165 1368 l 1,50,-1
 165 0 l 1,51,-1
 93 0 l 1,52,-1
 93 1440 l 1,53,-1
 957 1440 l 2,54,55
 1071 1440 1071 1440 1177.5 1395 c 128,-1,56
 1284 1350 1284 1350 1362 1274.5 c 128,-1,57
 1440 1199 1440 1199 1486.5 1096.5 c 128,-1,58
 1533 994 1533 994 1533 884 c 0,59,60
 1533 755 1533 755 1487 647 c 128,-1,61
 1441 539 1441 539 1362 467.5 c 128,-1,62
 1283 396 1283 396 1178.5 357 c 128,-1,63
 1074 318 1074 318 957 318 c 2,64,-1
 652 318 l 1,65,-1
 652 390 l 1,40,-1
597 0 m 1,66,-1
 525 0 l 1,67,-1
 525 1008 l 1,68,-1
 957 1008 l 2,69,70
 1016 1008 1016 1008 1058.5 971.5 c 128,-1,71
 1101 935 1101 935 1101 884 c 0,72,73
 1101 750 1101 750 957 750 c 2,74,-1
 652 750 l 1,75,-1
 652 822 l 1,76,-1
 957 822 l 2,77,78
 1029 822 1029 822 1029 884 c 0,79,80
 1029 906 1029 906 1008 921 c 128,-1,81
 987 936 987 936 957 936 c 2,82,-1
 597 936 l 1,83,-1
 597 0 l 1,66,-1
EndSplineSet
EndChar

StartChar: q
Encoding: 113 113 87
Width: 1614
Flags: W
LayerCount: 2
Fore
SplineSet
701 488 m 2,0,-1
 975 488 l 1,1,-1
 975 416 l 1,2,-1
 701 416 l 2,3,4
 552 416 552 416 447.5 519.5 c 128,-1,5
 343 623 343 623 343 797 c 0,6,7
 343 933 343 933 452 1042.5 c 128,-1,8
 561 1152 561 1152 701 1152 c 2,9,-1
 1231 1152 l 1,10,-1
 1231 -216 l 1,11,-1
 1159 -216 l 1,12,-1
 1159 1080 l 1,13,-1
 701 1080 l 2,14,15
 591 1080 591 1080 503 992 c 128,-1,16
 415 904 415 904 415 797 c 0,17,18
 415 646 415 646 497.5 567 c 128,-1,19
 580 488 580 488 701 488 c 2,0,-1
701 344 m 2,20,-1
 975 344 l 1,21,-1
 975 272 l 1,22,-1
 701 272 l 2,23,24
 602 272 602 272 510.5 311 c 128,-1,25
 419 350 419 350 350 418 c 128,-1,26
 281 486 281 486 240 585 c 128,-1,27
 199 684 199 684 199 797 c 0,28,29
 199 893 199 893 240.5 984.5 c 128,-1,30
 282 1076 282 1076 349.5 1144.5 c 128,-1,31
 417 1213 417 1213 510 1254.5 c 128,-1,32
 603 1296 603 1296 701 1296 c 2,33,-1
 1375 1296 l 1,34,-1
 1375 -216 l 1,35,-1
 1303 -216 l 1,36,-1
 1303 1224 l 1,37,-1
 701 1224 l 2,38,39
 590 1224 590 1224 490 1163.5 c 128,-1,40
 390 1103 390 1103 330.5 1004 c 128,-1,41
 271 905 271 905 271 797 c 0,42,43
 271 696 271 696 306.5 610 c 128,-1,44
 342 524 342 524 401 466.5 c 128,-1,45
 460 409 460 409 538 376.5 c 128,-1,46
 616 344 616 344 701 344 c 2,20,-1
701 200 m 2,47,-1
 975 200 l 1,48,-1
 975 128 l 1,49,-1
 701 128 l 2,50,51
 597 128 597 128 501 157 c 128,-1,52
 405 186 405 186 324 243 c 128,-1,53
 243 300 243 300 183 379.5 c 128,-1,54
 123 459 123 459 89 566.5 c 128,-1,55
 55 674 55 674 55 797 c 0,56,57
 55 922 55 922 107.5 1040 c 128,-1,58
 160 1158 160 1158 247.5 1246 c 128,-1,59
 335 1334 335 1334 454.5 1387 c 128,-1,60
 574 1440 574 1440 701 1440 c 2,61,-1
 1519 1440 l 1,62,-1
 1519 -216 l 1,63,-1
 1447 -216 l 1,64,-1
 1447 1368 l 1,65,-1
 701 1368 l 2,66,67
 550 1368 550 1368 417 1288 c 128,-1,68
 284 1208 284 1208 205.5 1076 c 128,-1,69
 127 944 127 944 127 797 c 0,70,71
 127 670 127 670 173.5 557.5 c 128,-1,72
 220 445 220 445 298.5 367.5 c 128,-1,73
 377 290 377 290 482 245 c 128,-1,74
 587 200 587 200 701 200 c 2,47,-1
1087 -216 m 1,75,-1
 1015 -216 l 1,76,-1
 1015 936 l 1,77,-1
 701 936 l 2,78,79
 640 936 640 936 599.5 895.5 c 128,-1,80
 559 855 559 855 559 797 c 0,81,82
 559 702 559 702 595.5 667 c 128,-1,83
 632 632 632 632 701 632 c 2,84,-1
 975 632 l 1,85,-1
 975 560 l 1,86,-1
 701 560 l 2,87,88
 487 560 487 560 487 797 c 0,89,90
 487 879 487 879 551.5 943.5 c 128,-1,91
 616 1008 616 1008 701 1008 c 2,92,-1
 1087 1008 l 1,93,-1
 1087 -216 l 1,75,-1
EndSplineSet
EndChar

StartChar: r
Encoding: 114 114 88
Width: 1703
Flags: W
LayerCount: 2
Fore
SplineSet
637 688 m 1,0,-1
 1071 688 l 2,1,2
 1157 688 1157 688 1217 742 c 128,-1,3
 1277 796 1277 796 1277 894 c 0,4,5
 1277 966 1277 966 1214.5 1023 c 128,-1,6
 1152 1080 1152 1080 1071 1080 c 2,7,-1
 453 1080 l 1,8,-1
 453 0 l 1,9,-1
 381 0 l 1,10,-1
 381 1152 l 1,11,-1
 1071 1152 l 2,12,13
 1182 1152 1182 1152 1265.5 1074 c 128,-1,14
 1349 996 1349 996 1349 894 c 0,15,16
 1349 767 1349 767 1268 691.5 c 128,-1,17
 1187 616 1187 616 1071 616 c 2,18,-1
 637 616 l 1,19,-1
 637 688 l 1,0,-1
637 544 m 1,20,-1
 1071 544 l 2,21,22
 1215 544 1215 544 1318 642 c 128,-1,23
 1421 740 1421 740 1421 894 c 0,24,25
 1421 1025 1421 1025 1316 1124.5 c 128,-1,26
 1211 1224 1211 1224 1071 1224 c 2,27,-1
 309 1224 l 1,28,-1
 309 0 l 1,29,-1
 237 0 l 1,30,-1
 237 1296 l 1,31,-1
 1071 1296 l 2,32,33
 1241 1296 1241 1296 1367 1175.5 c 128,-1,34
 1493 1055 1493 1055 1493 894 c 0,35,36
 1493 714 1493 714 1368.5 593 c 128,-1,37
 1244 472 1244 472 1071 472 c 2,38,-1
 637 472 l 1,39,-1
 637 544 l 1,20,-1
637 400 m 1,40,-1
 1071 400 l 2,41,42
 1204 400 1204 400 1317 464 c 128,-1,43
 1430 528 1430 528 1497.5 642 c 128,-1,44
 1565 756 1565 756 1565 894 c 0,45,46
 1565 1019 1565 1019 1498 1128.5 c 128,-1,47
 1431 1238 1431 1238 1316.5 1303 c 128,-1,48
 1202 1368 1202 1368 1071 1368 c 2,49,-1
 165 1368 l 1,50,-1
 165 0 l 1,51,-1
 93 0 l 1,52,-1
 93 1440 l 1,53,-1
 1071 1440 l 2,54,55
 1184 1440 1184 1440 1288.5 1395.5 c 128,-1,56
 1393 1351 1393 1351 1469 1277.5 c 128,-1,57
 1545 1204 1545 1204 1591 1103 c 128,-1,58
 1637 1002 1637 1002 1637 894 c 0,59,60
 1637 719 1637 719 1557 588.5 c 128,-1,61
 1477 458 1477 458 1342 390 c 1,62,-1
 1493 0 l 1,63,-1
 1416 0 l 1,64,-1
 1273 361 l 1,65,66
 1246 352 1246 352 1210 343 c 1,67,-1
 1345 0 l 1,68,-1
 1268 0 l 1,69,-1
 1136 331 l 1,70,71
 1105 328 1105 328 1071 328 c 1,72,-1
 1198 0 l 1,73,-1
 1122 0 l 1,74,-1
 996 328 l 1,75,-1
 931 328 l 1,76,-1
 1052 0 l 1,77,-1
 976 0 l 1,78,-1
 854 328 l 1,79,-1
 637 328 l 1,80,-1
 637 400 l 1,40,-1
597 0 m 1,81,-1
 525 0 l 1,82,-1
 525 1008 l 1,83,-1
 1071 1008 l 2,84,85
 1127 1008 1127 1008 1166 974.5 c 128,-1,86
 1205 941 1205 941 1205 894 c 0,87,88
 1205 760 1205 760 1071 760 c 2,89,-1
 637 760 l 1,90,-1
 637 832 l 1,91,-1
 1071 832 l 2,92,93
 1133 832 1133 832 1133 894 c 0,94,95
 1133 911 1133 911 1114.5 923.5 c 128,-1,96
 1096 936 1096 936 1071 936 c 2,97,-1
 597 936 l 1,98,-1
 597 0 l 1,81,-1
EndSplineSet
EndChar

StartChar: s
Encoding: 115 115 89
Width: 1399
Flags: W
LayerCount: 2
Fore
SplineSet
755 685 m 2,0,-1
 641 685 l 2,1,2
 431 685 431 685 318 770.5 c 128,-1,3
 205 856 205 856 205 1006 c 0,4,5
 205 1146 205 1146 338 1239.5 c 128,-1,6
 471 1333 471 1333 711 1333 c 0,7,8
 871 1333 871 1333 1009.5 1289 c 128,-1,9
 1148 1245 1148 1245 1240 1165 c 1,10,-1
 1184 1120 l 1,11,12
 1102 1187 1102 1187 978 1224 c 128,-1,13
 854 1261 854 1261 711 1261 c 0,14,15
 500 1261 500 1261 388.5 1189 c 128,-1,16
 277 1117 277 1117 277 1006 c 0,17,18
 277 886 277 886 368.5 821.5 c 128,-1,19
 460 757 460 757 641 757 c 2,20,-1
 751 757 l 2,21,22
 964 757 964 757 1077.5 671.5 c 128,-1,23
 1191 586 1191 586 1191 436 c 0,24,25
 1191 296 1191 296 1058 202.5 c 128,-1,26
 925 109 925 109 685 109 c 0,27,28
 525 109 525 109 386.5 153 c 128,-1,29
 248 197 248 197 156 277 c 1,30,-1
 212 322 l 1,31,32
 294 255 294 255 418 218 c 128,-1,33
 542 181 542 181 685 181 c 0,34,35
 896 181 896 181 1007.5 253 c 128,-1,36
 1119 325 1119 325 1119 436 c 0,37,38
 1119 556 1119 556 1027.5 620.5 c 128,-1,39
 936 685 936 685 755 685 c 2,0,-1
755 541 m 2,40,-1
 641 541 l 2,41,42
 363 541 363 541 212 667.5 c 128,-1,43
 61 794 61 794 61 1006 c 0,44,45
 61 1103 61 1103 104 1188 c 128,-1,46
 147 1273 147 1273 227.5 1337.5 c 128,-1,47
 308 1402 308 1402 433 1439.5 c 128,-1,48
 558 1477 558 1477 711 1477 c 0,49,50
 904 1477 904 1477 1072 1418.5 c 128,-1,51
 1240 1360 1240 1360 1352 1255 c 1,52,-1
 1294 1212 l 1,53,54
 1192 1304 1192 1304 1039 1354.5 c 128,-1,55
 886 1405 886 1405 711 1405 c 0,56,57
 441 1405 441 1405 287 1291 c 128,-1,58
 133 1177 133 1177 133 1006 c 0,59,60
 133 825 133 825 265 719 c 128,-1,61
 397 613 397 613 641 613 c 2,62,-1
 751 613 l 2,63,64
 1047 613 1047 613 1047 436 c 0,65,66
 1047 356 1047 356 956.5 304.5 c 128,-1,67
 866 253 866 253 685 253 c 0,68,69
 558 253 558 253 449 282.5 c 128,-1,70
 340 312 340 312 269 367 c 1,71,-1
 326 411 l 1,72,73
 451 325 451 325 685 325 c 0,74,75
 835 325 835 325 905 356 c 128,-1,76
 975 387 975 387 975 436 c 0,77,78
 975 493 975 493 926 517 c 128,-1,79
 877 541 877 541 755 541 c 2,40,-1
755 829 m 2,80,-1
 641 829 l 2,81,82
 349 829 349 829 349 1006 c 0,83,84
 349 1086 349 1086 439.5 1137.5 c 128,-1,85
 530 1189 530 1189 711 1189 c 0,86,87
 838 1189 838 1189 947 1159.5 c 128,-1,88
 1056 1130 1056 1130 1127 1075 c 1,89,-1
 1070 1031 l 1,90,91
 945 1117 945 1117 711 1117 c 0,92,93
 561 1117 561 1117 491 1086 c 128,-1,94
 421 1055 421 1055 421 1006 c 0,95,96
 421 949 421 949 470 925 c 128,-1,97
 519 901 519 901 641 901 c 2,98,-1
 755 901 l 2,99,100
 1033 901 1033 901 1184 774.5 c 128,-1,101
 1335 648 1335 648 1335 436 c 0,102,103
 1335 339 1335 339 1292 254 c 128,-1,104
 1249 169 1249 169 1168.5 104.5 c 128,-1,105
 1088 40 1088 40 963 2.5 c 128,-1,106
 838 -35 838 -35 685 -35 c 0,107,108
 492 -35 492 -35 324 23.5 c 128,-1,109
 156 82 156 82 44 187 c 1,110,-1
 102 230 l 1,111,112
 204 138 204 138 357 87.5 c 128,-1,113
 510 37 510 37 685 37 c 0,114,115
 955 37 955 37 1109 151 c 128,-1,116
 1263 265 1263 265 1263 436 c 0,117,118
 1263 617 1263 617 1131 723 c 128,-1,119
 999 829 999 829 755 829 c 2,80,-1
EndSplineSet
EndChar

StartChar: t
Encoding: 116 116 90
Width: 1205
Flags: W
LayerCount: 2
Fore
SplineSet
348 1041 m 1,0,-1
 420 1041 l 1,1,-1
 420 0 l 1,2,-1
 348 0 l 1,3,-1
 348 1041 l 1,0,-1
60 1368 m 1,4,-1
 60 1440 l 1,5,-1
 1140 1440 l 1,6,-1
 1140 1368 l 1,7,-1
 60 1368 l 1,4,-1
60 1224 m 1,8,-1
 60 1296 l 1,9,-1
 1140 1296 l 1,10,-1
 1140 1224 l 1,11,-1
 60 1224 l 1,8,-1
60 1080 m 1,12,-1
 60 1152 l 1,13,-1
 1140 1152 l 1,14,-1
 1140 1080 l 1,15,-1
 60 1080 l 1,12,-1
780 1041 m 1,16,-1
 852 1041 l 1,17,-1
 852 0 l 1,18,-1
 780 0 l 1,19,-1
 780 1041 l 1,16,-1
636 1041 m 1,20,-1
 708 1041 l 1,21,-1
 708 0 l 1,22,-1
 636 0 l 1,23,-1
 636 1041 l 1,20,-1
492 1041 m 1,24,-1
 564 1041 l 1,25,-1
 564 0 l 1,26,-1
 492 0 l 1,27,-1
 492 1041 l 1,24,-1
EndSplineSet
EndChar

StartChar: u
Encoding: 117 117 91
Width: 1630
Flags: W
LayerCount: 2
Fore
SplineSet
1038 638 m 2,0,-1
 1038 1440 l 1,1,-1
 1110 1440 l 1,2,-1
 1110 638 l 2,3,4
 1110 524 1110 524 1022.5 442 c 128,-1,5
 935 360 935 360 812 360 c 128,-1,6
 689 360 689 360 601.5 442 c 128,-1,7
 514 524 514 524 514 638 c 2,8,-1
 514 1440 l 1,9,-1
 586 1440 l 1,10,-1
 586 638 l 2,11,12
 586 553 586 553 652.5 492.5 c 128,-1,13
 719 432 719 432 812 432 c 128,-1,14
 905 432 905 432 971.5 492.5 c 128,-1,15
 1038 553 1038 553 1038 638 c 2,0,-1
1182 638 m 2,16,-1
 1182 1440 l 1,17,-1
 1254 1440 l 1,18,-1
 1254 638 l 2,19,20
 1254 463 1254 463 1124 339.5 c 128,-1,21
 994 216 994 216 812 216 c 128,-1,22
 630 216 630 216 500 339.5 c 128,-1,23
 370 463 370 463 370 638 c 2,24,-1
 370 1440 l 1,25,-1
 442 1440 l 1,26,-1
 442 638 l 2,27,28
 442 493 442 493 550.5 390.5 c 128,-1,29
 659 288 659 288 812 288 c 0,30,31
 964 288 964 288 1073 390.5 c 128,-1,32
 1182 493 1182 493 1182 638 c 2,16,-1
1326 638 m 2,33,-1
 1326 1440 l 1,34,-1
 1398 1440 l 1,35,-1
 1398 638 l 2,36,37
 1398 485 1398 485 1319 354.5 c 128,-1,38
 1240 224 1240 224 1105 148 c 128,-1,39
 970 72 970 72 812 72 c 128,-1,40
 654 72 654 72 519 148 c 128,-1,41
 384 224 384 224 305 354.5 c 128,-1,42
 226 485 226 485 226 638 c 2,43,-1
 226 1440 l 1,44,-1
 298 1440 l 1,45,-1
 298 638 l 2,46,47
 298 505 298 505 367 391 c 128,-1,48
 436 277 436 277 554.5 210.5 c 128,-1,49
 673 144 673 144 812 144 c 128,-1,50
 951 144 951 144 1069.5 210.5 c 128,-1,51
 1188 277 1188 277 1257 391 c 128,-1,52
 1326 505 1326 505 1326 638 c 2,33,-1
1470 638 m 2,53,-1
 1470 1440 l 1,54,-1
 1542 1440 l 1,55,-1
 1542 638 l 2,56,57
 1542 494 1542 494 1484 362.5 c 128,-1,58
 1426 231 1426 231 1328 136 c 128,-1,59
 1230 41 1230 41 1095 -15.5 c 128,-1,60
 960 -72 960 -72 812 -72 c 128,-1,61
 664 -72 664 -72 529 -15.5 c 128,-1,62
 394 41 394 41 296 136 c 128,-1,63
 198 231 198 231 140 362.5 c 128,-1,64
 82 494 82 494 82 638 c 2,65,-1
 82 1440 l 1,66,-1
 154 1440 l 1,67,-1
 154 638 l 2,68,69
 154 466 154 466 242.5 319 c 128,-1,70
 331 172 331 172 482.5 86 c 128,-1,71
 634 0 634 0 812 0 c 128,-1,72
 990 0 990 0 1141.5 86 c 128,-1,73
 1293 172 1293 172 1381.5 319 c 128,-1,74
 1470 466 1470 466 1470 638 c 2,53,-1
EndSplineSet
EndChar

StartChar: v
Encoding: 118 118 92
Width: 1752
Flags: W
LayerCount: 2
Fore
SplineSet
36 1440 m 1,0,-1
 114 1440 l 1,1,-1
 645 97 l 1,2,-1
 1176 1440 l 1,3,-1
 1253 1440 l 1,4,-1
 684 0 l 1,5,-1
 606 0 l 1,6,-1
 36 1440 l 1,0,-1
191 1440 m 1,7,-1
 268 1440 l 1,8,-1
 695 360 l 1,9,-1
 654 268 l 1,10,-1
 191 1440 l 1,7,-1
346 1440 m 1,11,-1
 424 1440 l 1,12,-1
 772 557 l 1,13,-1
 734 458 l 1,14,-1
 346 1440 l 1,11,-1
501 1440 m 1,15,-1
 578 1440 l 1,16,-1
 848 757 l 1,17,-1
 810 656 l 1,18,-1
 501 1440 l 1,15,-1
1640 1440 m 1,19,-1
 1718 1440 l 1,20,-1
 1148 0 l 1,21,-1
 1071 0 l 1,22,-1
 1640 1440 l 1,19,-1
1486 1440 m 1,23,-1
 1563 1440 l 1,24,-1
 993 0 l 1,25,-1
 916 0 l 1,26,-1
 1486 1440 l 1,23,-1
1330 1440 m 1,27,-1
 1408 1440 l 1,28,-1
 838 0 l 1,29,-1
 761 0 l 1,30,-1
 1330 1440 l 1,27,-1
EndSplineSet
EndChar

StartChar: w
Encoding: 119 119 93
Width: 2314
Flags: W
LayerCount: 2
Fore
SplineSet
1564 462 m 128,-1,1
 1594 462 1594 462 1614.5 463.5 c 128,-1,2
 1635 465 1635 465 1657 471.5 c 128,-1,3
 1679 478 1679 478 1692 489 c 128,-1,4
 1705 500 1705 500 1713.5 520.5 c 128,-1,5
 1722 541 1722 541 1722 570 c 2,6,-1
 1722 1440 l 1,7,-1
 1794 1440 l 1,8,-1
 1794 570 l 2,9,10
 1794 390 1794 390 1564 390 c 0,11,12
 1448 390 1448 390 1392 434 c 1,13,14
 1384 395 1384 395 1373 365 c 1,15,16
 1449 318 1449 318 1564 318 c 0,17,18
 1698 318 1698 318 1782 380.5 c 128,-1,19
 1866 443 1866 443 1866 570 c 2,20,-1
 1866 1440 l 1,21,-1
 1938 1440 l 1,22,-1
 1938 570 l 2,23,24
 1938 413 1938 413 1832.5 329.5 c 128,-1,25
 1727 246 1727 246 1564 246 c 0,26,27
 1437 246 1437 246 1346 298 c 1,28,29
 1331 266 1331 266 1311 237 c 1,30,31
 1420 174 1420 174 1564 174 c 0,32,33
 1657 174 1657 174 1737.5 200 c 128,-1,34
 1818 226 1818 226 1879 275 c 128,-1,35
 1940 324 1940 324 1975 400 c 128,-1,36
 2010 476 2010 476 2010 570 c 2,37,-1
 2010 1440 l 1,38,-1
 2082 1440 l 1,39,-1
 2082 570 l 2,40,41
 2082 426 2082 426 2011.5 318 c 128,-1,42
 1941 210 1941 210 1824.5 156 c 128,-1,43
 1708 102 1708 102 1564 102 c 0,44,45
 1396 102 1396 102 1268 179 c 1,46,47
 1240 147 1240 147 1217 127 c 1,48,49
 1366 30 1366 30 1564 30 c 0,50,51
 1727 30 1727 30 1860 94 c 128,-1,52
 1993 158 1993 158 2073.5 282.5 c 128,-1,53
 2154 407 2154 407 2154 570 c 2,54,-1
 2154 1440 l 1,55,-1
 2226 1440 l 1,56,-1
 2226 570 l 2,57,58
 2226 432 2226 432 2173.5 316 c 128,-1,59
 2121 200 2121 200 2031.5 122 c 128,-1,60
 1942 44 1942 44 1821 1 c 128,-1,61
 1700 -42 1700 -42 1564 -42 c 0,62,63
 1326 -42 1326 -42 1157 80 c 1,64,65
 982 -42 982 -42 744 -42 c 0,66,67
 608 -42 608 -42 487 1 c 128,-1,68
 366 44 366 44 276.5 122 c 128,-1,69
 187 200 187 200 134.5 316 c 128,-1,70
 82 432 82 432 82 570 c 2,71,-1
 82 1440 l 1,72,-1
 154 1440 l 1,73,-1
 154 570 l 2,74,75
 154 447 154 447 200.5 344 c 128,-1,76
 247 241 247 241 327 173 c 128,-1,77
 407 105 407 105 514.5 67.5 c 128,-1,78
 622 30 622 30 744 30 c 0,79,80
 903 30 903 30 1039 102.5 c 128,-1,81
 1175 175 1175 175 1254.5 299.5 c 128,-1,82
 1334 424 1334 424 1334 570 c 2,83,-1
 1334 1440 l 1,84,-1
 1406 1440 l 1,85,-1
 1406 570 l 2,86,87
 1406 541 1406 541 1414.5 520.5 c 128,-1,88
 1423 500 1423 500 1436 489 c 128,-1,89
 1449 478 1449 478 1471 471.5 c 128,-1,90
 1493 465 1493 465 1513.5 463.5 c 128,-1,0
 1534 462 1534 462 1564 462 c 128,-1,1
974 1440 m 1,91,-1
 974 570 l 2,92,93
 974 390 974 390 744 390 c 128,-1,94
 514 390 514 390 514 570 c 2,95,-1
 514 1440 l 1,96,-1
 586 1440 l 1,97,-1
 586 570 l 2,98,99
 586 541 586 541 594.5 520.5 c 128,-1,100
 603 500 603 500 616 489 c 128,-1,101
 629 478 629 478 651 471.5 c 128,-1,102
 673 465 673 465 693.5 463.5 c 128,-1,103
 714 462 714 462 744 462 c 128,-1,104
 774 462 774 462 794.5 463.5 c 128,-1,105
 815 465 815 465 837 471.5 c 128,-1,106
 859 478 859 478 872 489 c 128,-1,107
 885 500 885 500 893.5 520.5 c 128,-1,108
 902 541 902 541 902 570 c 2,109,-1
 902 1440 l 1,110,-1
 974 1440 l 1,91,-1
1118 1440 m 1,111,-1
 1118 570 l 2,112,113
 1118 413 1118 413 1012.5 329.5 c 128,-1,114
 907 246 907 246 744 246 c 128,-1,115
 581 246 581 246 475.5 329.5 c 128,-1,116
 370 413 370 413 370 570 c 2,117,-1
 370 1440 l 1,118,-1
 442 1440 l 1,119,-1
 442 570 l 2,120,121
 442 443 442 443 526 380.5 c 128,-1,122
 610 318 610 318 744 318 c 128,-1,123
 878 318 878 318 962 380.5 c 128,-1,124
 1046 443 1046 443 1046 570 c 2,125,-1
 1046 1440 l 1,126,-1
 1118 1440 l 1,111,-1
1262 1440 m 1,127,-1
 1262 570 l 2,128,129
 1262 426 1262 426 1191.5 318 c 128,-1,130
 1121 210 1121 210 1004.5 156 c 128,-1,131
 888 102 888 102 744 102 c 128,-1,132
 600 102 600 102 483.5 156 c 128,-1,133
 367 210 367 210 296.5 318 c 128,-1,134
 226 426 226 426 226 570 c 2,135,-1
 226 1440 l 1,136,-1
 298 1440 l 1,137,-1
 298 570 l 2,138,139
 298 476 298 476 333 400 c 128,-1,140
 368 324 368 324 429 275 c 128,-1,141
 490 226 490 226 570.5 200 c 128,-1,142
 651 174 651 174 744 174 c 128,-1,143
 837 174 837 174 917.5 200 c 128,-1,144
 998 226 998 226 1059 275 c 128,-1,145
 1120 324 1120 324 1155 400 c 128,-1,146
 1190 476 1190 476 1190 570 c 2,147,-1
 1190 1440 l 1,148,-1
 1262 1440 l 1,127,-1
EndSplineSet
EndChar

StartChar: x
Encoding: 120 120 94
Width: 1618
Flags: W
LayerCount: 2
Fore
SplineSet
1491 1440 m 1,0,-1
 1579 1440 l 1,1,-1
 661 0 l 1,2,-1
 571 0 l 1,3,-1
 1491 1440 l 1,0,-1
1313 1440 m 1,4,-1
 1401 1440 l 1,5,-1
 482 0 l 1,6,-1
 394 0 l 1,7,-1
 1313 1440 l 1,4,-1
1135 1440 m 1,8,-1
 1224 1440 l 1,9,-1
 305 0 l 1,10,-1
 216 0 l 1,11,-1
 1135 1440 l 1,8,-1
957 1440 m 1,12,-1
 1047 1440 l 1,13,-1
 127 0 l 1,14,-1
 39 0 l 1,15,-1
 957 1440 l 1,12,-1
517 829 m 1,16,-1
 473 759 l 1,17,-1
 39 1440 l 1,18,-1
 127 1440 l 1,19,-1
 517 829 l 1,16,-1
832 197 m 1,20,-1
 876 267 l 1,21,-1
 1047 0 l 1,22,-1
 957 0 l 1,23,-1
 832 197 l 1,20,-1
606 968 m 1,24,-1
 562 899 l 1,25,-1
 217 1440 l 1,26,-1
 305 1440 l 1,27,-1
 606 968 l 1,24,-1
921 337 m 1,28,-1
 965 406 l 1,29,-1
 1224 0 l 1,30,-1
 1136 0 l 1,31,-1
 921 337 l 1,28,-1
695 1108 m 1,32,-1
 651 1038 l 1,33,-1
 394 1440 l 1,34,-1
 483 1440 l 1,35,-1
 695 1108 l 1,32,-1
1009 476 m 1,36,-1
 1054 546 l 1,37,-1
 1402 0 l 1,38,-1
 1313 0 l 1,39,-1
 1009 476 l 1,36,-1
784 1247 m 1,40,-1
 739 1177 l 1,41,-1
 571 1440 l 1,42,-1
 661 1440 l 1,43,-1
 784 1247 l 1,40,-1
1098 615 m 1,44,-1
 1143 684 l 1,45,-1
 1579 0 l 1,46,-1
 1491 0 l 1,47,-1
 1098 615 l 1,44,-1
EndSplineSet
EndChar

StartChar: y
Encoding: 121 121 95
Width: 1502
Flags: W
LayerCount: 2
Fore
SplineSet
1400 1440 m 1,0,-1
 1472 1440 l 1,1,-1
 1019 486 l 1,2,-1
 1019 0 l 1,3,-1
 947 0 l 1,4,-1
 947 486 l 1,5,-1
 1400 1440 l 1,0,-1
1256 1440 m 1,6,-1
 1328 1440 l 1,7,-1
 875 486 l 1,8,-1
 875 0 l 1,9,-1
 803 0 l 1,10,-1
 803 486 l 1,11,-1
 1256 1440 l 1,6,-1
1112 1440 m 1,12,-1
 1184 1440 l 1,13,-1
 731 486 l 1,14,-1
 731 0 l 1,15,-1
 659 0 l 1,16,-1
 659 486 l 1,17,-1
 1112 1440 l 1,12,-1
968 1440 m 1,18,-1
 1040 1440 l 1,19,-1
 587 486 l 1,20,-1
 587 0 l 1,21,-1
 515 0 l 1,22,-1
 515 486 l 1,23,-1
 32 1440 l 1,24,-1
 104 1440 l 1,25,-1
 550 559 l 1,26,-1
 968 1440 l 1,18,-1
177 1440 m 1,27,-1
 249 1440 l 1,28,-1
 606 761 l 1,29,-1
 570 682 l 1,30,-1
 177 1440 l 1,27,-1
321 1440 m 1,31,-1
 394 1440 l 1,32,-1
 678 919 l 1,33,-1
 641 840 l 1,34,-1
 321 1440 l 1,31,-1
467 1440 m 1,35,-1
 539 1440 l 1,36,-1
 750 1076 l 1,37,-1
 714 997 l 1,38,-1
 467 1440 l 1,35,-1
EndSplineSet
EndChar

StartChar: z
Encoding: 122 122 96
Width: 1464
Flags: W
LayerCount: 2
Fore
SplineSet
1388 360 m 1,0,-1
 1388 288 l 1,1,-1
 829 288 l 1,2,-1
 875 360 l 1,3,-1
 1388 360 l 1,0,-1
1388 216 m 1,4,-1
 1388 144 l 1,5,-1
 740 144 l 1,6,-1
 785 216 l 1,7,-1
 1388 216 l 1,4,-1
1388 72 m 1,8,-1
 1388 0 l 1,9,-1
 660 0 l 1,10,-1
 704 72 l 1,11,-1
 1388 72 l 1,8,-1
83 1079 m 1,12,-1
 83 1151 l 1,13,-1
 643 1151 l 1,14,-1
 598 1079 l 1,15,-1
 83 1079 l 1,12,-1
83 1223 m 1,16,-1
 83 1295 l 1,17,-1
 727 1295 l 1,18,-1
 681 1223 l 1,19,-1
 83 1223 l 1,16,-1
83 1367 m 1,20,-1
 83 1439 l 1,21,-1
 808 1439 l 1,22,-1
 760 1367 l 1,23,-1
 83 1367 l 1,20,-1
590 0 m 1,24,-1
 501 0 l 1,25,-1
 1397 1439 l 1,26,-1
 1397 1317 l 1,27,-1
 590 0 l 1,24,-1
412 0 m 1,28,-1
 324 0 l 1,29,-1
 1222 1439 l 1,30,-1
 1309 1439 l 1,31,-1
 412 0 l 1,28,-1
234 0 m 1,32,-1
 146 0 l 1,33,-1
 1042 1439 l 1,34,-1
 1131 1439 l 1,35,-1
 234 0 l 1,32,-1
57 0 m 1,36,-1
 57 146 l 1,37,-1
 865 1439 l 1,38,-1
 954 1439 l 1,39,-1
 57 0 l 1,36,-1
EndSplineSet
EndChar

StartChar: braceleft
Encoding: 123 123 97
Width: 813
Flags: W
LayerCount: 2
Fore
SplineSet
541 352 m 2,0,-1
 541 48 l 2,1,2
 541 -8 541 -8 568 -40 c 128,-1,3
 595 -72 595 -72 636 -72 c 2,4,-1
 758 -72 l 1,5,-1
 758 -144 l 1,6,-1
 639 -144 l 2,7,8
 567 -144 567 -144 518 -93 c 128,-1,9
 469 -42 469 -42 469 48 c 2,10,-1
 469 352 l 2,11,12
 469 437 469 437 441.5 507 c 128,-1,13
 414 577 414 577 368 622 c 128,-1,14
 322 667 322 667 262.5 691.5 c 128,-1,15
 203 716 203 716 137 716 c 2,16,-1
 57 716 l 1,17,-1
 57 788 l 1,18,-1
 135 788 l 2,19,20
 215 788 215 788 288 758 c 128,-1,21
 361 728 361 728 417.5 673 c 128,-1,22
 474 618 474 618 507.5 534.5 c 128,-1,23
 541 451 541 451 541 352 c 2,0,-1
397 352 m 2,24,-1
 397 48 l 2,25,26
 397 -76 397 -76 467 -146 c 128,-1,27
 537 -216 537 -216 639 -216 c 2,28,-1
 758 -216 l 1,29,-1
 758 -288 l 1,30,-1
 641 -288 l 2,31,32
 510 -288 510 -288 417.5 -197 c 128,-1,33
 325 -106 325 -106 325 48 c 2,34,-1
 325 352 l 2,35,36
 325 458 325 458 273 515 c 128,-1,37
 221 572 221 572 140 572 c 2,38,-1
 57 572 l 1,39,-1
 57 644 l 1,40,-1
 137 644 l 2,41,42
 245 644 245 644 321 566 c 128,-1,43
 397 488 397 488 397 352 c 2,24,-1
253 352 m 2,44,-1
 253 48 l 2,45,46
 253 -136 253 -136 366 -248 c 128,-1,47
 479 -360 479 -360 638 -360 c 2,48,-1
 758 -360 l 1,49,-1
 758 -432 l 1,50,-1
 639 -432 l 2,51,52
 517 -432 517 -432 413.5 -375 c 128,-1,53
 310 -318 310 -318 245.5 -207 c 128,-1,54
 181 -96 181 -96 181 48 c 2,55,-1
 181 352 l 2,56,57
 181 397 181 397 168 412.5 c 128,-1,58
 155 428 155 428 131 428 c 2,59,-1
 57 428 l 1,60,-1
 57 500 l 1,61,-1
 134 500 l 2,62,63
 185 500 185 500 219 463 c 128,-1,64
 253 426 253 426 253 352 c 2,44,-1
498 659 m 1,65,-1
 443 712 l 1,66,67
 469 779 469 779 469 864 c 2,68,-1
 469 1249 l 2,69,70
 469 1339 469 1339 518 1390 c 128,-1,71
 567 1441 567 1441 639 1441 c 2,72,-1
 758 1441 l 1,73,-1
 758 1369 l 1,74,-1
 636 1369 l 2,75,76
 595 1369 595 1369 568 1337 c 128,-1,77
 541 1305 541 1305 541 1249 c 2,78,-1
 541 864 l 2,79,80
 541 753 541 753 498 659 c 1,65,-1
382 760 m 1,81,-1
 315 794 l 1,82,83
 325 847 325 847 325 864 c 2,84,-1
 325 1249 l 2,85,86
 325 1403 325 1403 417.5 1494 c 128,-1,87
 510 1585 510 1585 641 1585 c 2,88,-1
 758 1585 l 1,89,-1
 758 1513 l 1,90,-1
 639 1513 l 2,91,92
 537 1513 537 1513 467 1443 c 128,-1,93
 397 1373 397 1373 397 1249 c 2,94,-1
 397 864 l 2,95,96
 397 814 397 814 382 760 c 1,81,-1
249 817 m 1,97,-1
 177 825 l 1,98,99
 181 845 181 845 181 864 c 2,100,-1
 181 1249 l 2,101,102
 181 1393 181 1393 245.5 1504 c 128,-1,103
 310 1615 310 1615 413.5 1672 c 128,-1,104
 517 1729 517 1729 639 1729 c 2,105,-1
 758 1729 l 1,106,-1
 758 1657 l 1,107,-1
 638 1657 l 2,108,109
 479 1657 479 1657 366 1545 c 128,-1,110
 253 1433 253 1433 253 1249 c 2,111,-1
 253 864 l 2,112,113
 253 836 253 836 249 817 c 1,97,-1
EndSplineSet
EndChar

StartChar: bar
Encoding: 124 124 98
Width: 546
Flags: W
LayerCount: 2
Fore
SplineSet
382 1656 m 1,0,-1
 454 1656 l 1,1,-1
 454 -215 l 1,2,-1
 382 -215 l 1,3,-1
 382 1656 l 1,0,-1
238 1656 m 1,4,-1
 310 1656 l 1,5,-1
 310 -215 l 1,6,-1
 238 -215 l 1,7,-1
 238 1656 l 1,4,-1
94 1656 m 1,8,-1
 166 1656 l 1,9,-1
 166 -215 l 1,10,-1
 94 -215 l 1,11,-1
 94 1656 l 1,8,-1
EndSplineSet
EndChar

StartChar: braceright
Encoding: 125 125 99
Width: 813
Flags: W
LayerCount: 2
Fore
SplineSet
565 480 m 1,0,-1
 637 472 l 1,1,2
 633 452 633 452 633 433 c 2,3,-1
 633 48 l 2,4,5
 633 -96 633 -96 568.5 -207 c 128,-1,6
 504 -318 504 -318 400.5 -375 c 128,-1,7
 297 -432 297 -432 175 -432 c 2,8,-1
 56 -432 l 1,9,-1
 56 -360 l 1,10,-1
 176 -360 l 2,11,12
 335 -360 335 -360 448 -248 c 128,-1,13
 561 -136 561 -136 561 48 c 2,14,-1
 561 433 l 2,15,16
 561 461 561 461 565 480 c 1,0,-1
432 537 m 1,17,-1
 499 503 l 1,18,19
 489 450 489 450 489 433 c 2,20,-1
 489 48 l 2,21,22
 489 -106 489 -106 396.5 -197 c 128,-1,23
 304 -288 304 -288 173 -288 c 2,24,-1
 56 -288 l 1,25,-1
 56 -216 l 1,26,-1
 175 -216 l 2,27,28
 277 -216 277 -216 347 -146 c 128,-1,29
 417 -76 417 -76 417 48 c 2,30,-1
 417 433 l 2,31,32
 417 483 417 483 432 537 c 1,17,-1
316 638 m 1,33,-1
 371 585 l 1,34,35
 345 518 345 518 345 433 c 2,36,-1
 345 48 l 2,37,38
 345 -42 345 -42 296 -93 c 128,-1,39
 247 -144 247 -144 175 -144 c 2,40,-1
 56 -144 l 1,41,-1
 56 -72 l 1,42,-1
 178 -72 l 2,43,44
 219 -72 219 -72 246 -40 c 128,-1,45
 273 -8 273 -8 273 48 c 2,46,-1
 273 433 l 2,47,48
 273 544 273 544 316 638 c 1,33,-1
561 945 m 2,49,-1
 561 1249 l 2,50,51
 561 1433 561 1433 448 1545 c 128,-1,52
 335 1657 335 1657 176 1657 c 2,53,-1
 56 1657 l 1,54,-1
 56 1729 l 1,55,-1
 175 1729 l 2,56,57
 297 1729 297 1729 400.5 1672 c 128,-1,58
 504 1615 504 1615 568.5 1504 c 128,-1,59
 633 1393 633 1393 633 1249 c 2,60,-1
 633 945 l 2,61,62
 633 900 633 900 646 884.5 c 128,-1,63
 659 869 659 869 683 869 c 2,64,-1
 757 869 l 1,65,-1
 757 797 l 1,66,-1
 680 797 l 2,67,68
 629 797 629 797 595 834 c 128,-1,69
 561 871 561 871 561 945 c 2,49,-1
417 945 m 2,70,-1
 417 1249 l 2,71,72
 417 1373 417 1373 347 1443 c 128,-1,73
 277 1513 277 1513 175 1513 c 2,74,-1
 56 1513 l 1,75,-1
 56 1585 l 1,76,-1
 173 1585 l 2,77,78
 304 1585 304 1585 396.5 1494 c 128,-1,79
 489 1403 489 1403 489 1249 c 2,80,-1
 489 945 l 2,81,82
 489 839 489 839 541 782 c 128,-1,83
 593 725 593 725 674 725 c 2,84,-1
 757 725 l 1,85,-1
 757 653 l 1,86,-1
 677 653 l 2,87,88
 569 653 569 653 493 731 c 128,-1,89
 417 809 417 809 417 945 c 2,70,-1
273 945 m 2,90,-1
 273 1249 l 2,91,92
 273 1305 273 1305 246 1337 c 128,-1,93
 219 1369 219 1369 178 1369 c 2,94,-1
 56 1369 l 1,95,-1
 56 1441 l 1,96,-1
 175 1441 l 2,97,98
 247 1441 247 1441 296 1390 c 128,-1,99
 345 1339 345 1339 345 1249 c 2,100,-1
 345 945 l 2,101,102
 345 860 345 860 372.5 790 c 128,-1,103
 400 720 400 720 446 675 c 128,-1,104
 492 630 492 630 551.5 605.5 c 128,-1,105
 611 581 611 581 677 581 c 2,106,-1
 757 581 l 1,107,-1
 757 509 l 1,108,-1
 679 509 l 2,109,110
 599 509 599 509 526 539 c 128,-1,111
 453 569 453 569 396.5 624 c 128,-1,112
 340 679 340 679 306.5 762.5 c 128,-1,113
 273 846 273 846 273 945 c 2,90,-1
EndSplineSet
EndChar

